<?xml version="1.0" encoding="UTF-8" standalone="no"?>
<!-- Created with Inkscape (http://www.inkscape.org/) -->

<svg
   xmlns:dc="http://purl.org/dc/elements/1.1/"
   xmlns:cc="http://creativecommons.org/ns#"
   xmlns:rdf="http://www.w3.org/1999/02/22-rdf-syntax-ns#"
   xmlns:svg="http://www.w3.org/2000/svg"
   xmlns="http://www.w3.org/2000/svg"
   xmlns:sodipodi="http://sodipodi.sourceforge.net/DTD/sodipodi-0.dtd"
   xmlns:inkscape="http://www.inkscape.org/namespaces/inkscape"
   width="21.969mm"
   height="14.646mm"
   viewBox="0 0 21.968999 14.646"
   version="1.1"
   id="svg6508"
   inkscape:version="0.92.2 (5c3e80d, 2017-08-06)"
   sodipodi:docname="cloud-1.svg">
  <defs
     id="defs6502" />
  <sodipodi:namedview
     id="base"
     pagecolor="#ffffff"
     bordercolor="#666666"
     borderopacity="1.0"
     inkscape:pageopacity="0.0"
     inkscape:pageshadow="2"
     inkscape:zoom="1.979899"
     inkscape:cx="-127.71866"
     inkscape:cy="100.00017"
     inkscape:document-units="mm"
     inkscape:current-layer="layer1"
     showgrid="false"
     inkscape:window-width="1680"
     inkscape:window-height="987"
     inkscape:window-x="-8"
     inkscape:window-y="-8"
     inkscape:window-maximized="1" />
  <metadata
     id="metadata6505">
    <rdf:RDF>
      <cc:Work
         rdf:about="">
        <dc:format>image/svg+xml</dc:format>
        <dc:type
           rdf:resource="http://purl.org/dc/dcmitype/StillImage" />
        <dc:title></dc:title>
      </cc:Work>
    </rdf:RDF>
  </metadata>
  <g
     inkscape:label="Layer 1"
     inkscape:groupmode="layer"
     id="layer1"
     transform="translate(0,-282.354)">
    <g
       style="fill:#cccccc;fill-opacity:1;stroke-width:0.72260976"
       transform="matrix(-0.36614963,0,0,0.36614963,21.968989,278.69251)"
       id="g11041">
      <path
         style="fill:#cccccc;fill-opacity:1;stroke-width:0.72260976"
         inkscape:connector-curvature="0"
         d="M 50.976,26.194 C 50.447,17.194 43.028,10 34.085,10 28.655,10 23.397,12.663 20.139,17.008 20.064,16.969 19.985,16.942 19.909,16.906 19.711,16.81 19.51,16.719 19.305,16.637 19.191,16.592 19.077,16.551 18.962,16.511 18.759,16.44 18.553,16.377 18.343,16.32 18.228,16.289 18.114,16.257 17.998,16.231 17.773,16.18 17.543,16.141 17.311,16.106 17.21,16.091 17.111,16.071 17.009,16.06 16.677,16.023 16.341,16 16,16 c -4.963,0 -9,4.037 -9,9 0,0.127 0.008,0.252 0.016,0.377 v 0.004 C 2.857,27.649 0,32.399 0,37.154 0,44.237 5.762,50 12.845,50 24.580361,49.963776 36.268071,50 47.972,50 54.604,50 60,44.604 60,37.972 60,32.483 56.173,27.56 50.976,26.194 Z M 47.972,48 C 36.260221,47.983244 24.571028,48 12.845,48 6.865,48 2,43.135 2,37.154 2,33 4.705,28.688 8.433,26.901 L 9,26.63 V 26 c 0,-0.127 0.008,-0.256 0.015,-0.386 l 0.009,-0.16 -0.012,-0.21 C 9.006,25.163 9,25.082 9,25 c 0,-3.859 3.141,-7 7,-7 0.309,0 0.614,0.027 0.917,0.067 0.078,0.01 0.156,0.023 0.233,0.036 0.267,0.044 0.53,0.102 0.789,0.177 0.035,0.01 0.071,0.017 0.106,0.027 0.285,0.087 0.563,0.197 0.835,0.321 0.071,0.032 0.14,0.067 0.21,0.101 0.24,0.119 0.475,0.249 0.702,0.396 C 21.719,20.373 23,22.538 23,25 c 0,0.553 0.447,1 1,1 0.553,0 1,-0.447 1,-1 0,-2.754 -1.246,-5.219 -3.2,-6.871 C 24.667,14.379 29.388,12 34.085,12 c 7.745,0 14.177,6.135 14.848,13.888 -1.022,-0.072 -2.552,-0.109 -4.083,0.124 -0.546,0.083 -0.921,0.593 -0.838,1.139 0.075,0.495 0.501,0.85 0.987,0.85 0.05,0 0.101,-0.004 0.151,-0.012 2.227,-0.337 4.548,-0.021 4.684,-0.002 C 54.49,28.872 58,33.161 58,37.972 58,43.501 53.501,48 47.972,48 Z"
         id="path11009"
         sodipodi:nodetypes="csccccccccssccsccscccsccscccsscccccccssscscccsccsc" />
      <g
         style="fill:#cccccc;fill-opacity:1;stroke-width:0.72260976"
         id="g11011" />
      <g
         style="fill:#cccccc;fill-opacity:1;stroke-width:0.72260976"
         id="g11013" />
      <g
         style="fill:#cccccc;fill-opacity:1;stroke-width:0.72260976"
         id="g11015" />
      <g
         style="fill:#cccccc;fill-opacity:1;stroke-width:0.72260976"
         id="g11017" />
      <g
         style="fill:#cccccc;fill-opacity:1;stroke-width:0.72260976"
         id="g11019" />
      <g
         style="fill:#cccccc;fill-opacity:1;stroke-width:0.72260976"
         id="g11021" />
      <g
         style="fill:#cccccc;fill-opacity:1;stroke-width:0.72260976"
         id="g11023" />
      <g
         style="fill:#cccccc;fill-opacity:1;stroke-width:0.72260976"
         id="g11025" />
      <g
         style="fill:#cccccc;fill-opacity:1;stroke-width:0.72260976"
         id="g11027" />
      <g
         style="fill:#cccccc;fill-opacity:1;stroke-width:0.72260976"
         id="g11029" />
      <g
         style="fill:#cccccc;fill-opacity:1;stroke-width:0.72260976"
         id="g11031" />
      <g
         style="fill:#cccccc;fill-opacity:1;stroke-width:0.72260976"
         id="g11033" />
      <g
         style="fill:#cccccc;fill-opacity:1;stroke-width:0.72260976"
         id="g11035" />
      <g
         style="fill:#cccccc;fill-opacity:1;stroke-width:0.72260976"
         id="g11037" />
      <g
         style="fill:#cccccc;fill-opacity:1;stroke-width:0.72260976"
         id="g11039" />
    </g>
  </g>
</svg>
