<?xml version="1.0" encoding="UTF-8" standalone="no"?>
<!-- Created with Inkscape (http://www.inkscape.org/) -->

<svg
   xmlns:dc="http://purl.org/dc/elements/1.1/"
   xmlns:cc="http://creativecommons.org/ns#"
   xmlns:rdf="http://www.w3.org/1999/02/22-rdf-syntax-ns#"
   xmlns:svg="http://www.w3.org/2000/svg"
   xmlns="http://www.w3.org/2000/svg"
   xmlns:sodipodi="http://sodipodi.sourceforge.net/DTD/sodipodi-0.dtd"
   xmlns:inkscape="http://www.inkscape.org/namespaces/inkscape"
   width="14.045mm"
   height="9.4510002mm"
   viewBox="0 0 14.045 9.4510003"
   version="1.1"
   id="svg6508"
   inkscape:version="0.92.2 (5c3e80d, 2017-08-06)"
   sodipodi:docname="cloud-2.svg">
  <defs
     id="defs6502" />
  <sodipodi:namedview
     id="base"
     pagecolor="#ffffff"
     bordercolor="#666666"
     borderopacity="1.0"
     inkscape:pageopacity="0.0"
     inkscape:pageshadow="2"
     inkscape:zoom="1.979899"
     inkscape:cx="-57.26052"
     inkscape:cy="82.827577"
     inkscape:document-units="mm"
     inkscape:current-layer="layer1"
     showgrid="false"
     inkscape:window-width="1680"
     inkscape:window-height="987"
     inkscape:window-x="-8"
     inkscape:window-y="-8"
     inkscape:window-maximized="1" />
  <metadata
     id="metadata6505">
    <rdf:RDF>
      <cc:Work
         rdf:about="">
        <dc:format>image/svg+xml</dc:format>
        <dc:type
           rdf:resource="http://purl.org/dc/dcmitype/StillImage" />
        <dc:title></dc:title>
      </cc:Work>
    </rdf:RDF>
  </metadata>
  <g
     inkscape:label="Layer 1"
     inkscape:groupmode="layer"
     id="layer1"
     transform="translate(0,-287.549)">
    <g
       id="g2497"
       transform="matrix(0.22968665,0,0,0.22968665,0.13190051,285.3839)"
       style="fill:#cccccc;fill-opacity:1;stroke-width:0.92572099">
      <path
         sodipodi:type="inkscape:offset"
         inkscape:radius="0.57462019"
         inkscape:original="M 34.085938 10 C 28.655938 10 23.396672 12.662812 20.138672 17.007812 C 20.063672 16.968813 19.984203 16.94225 19.908203 16.90625 C 19.710203 16.81025 19.509688 16.718719 19.304688 16.636719 C 19.190687 16.591719 19.077891 16.551719 18.962891 16.511719 C 18.759891 16.440719 18.55375 16.377312 18.34375 16.320312 C 18.22875 16.289313 18.114047 16.256469 17.998047 16.230469 C 17.773047 16.179469 17.542547 16.140469 17.310547 16.105469 C 17.209547 16.090469 17.111766 16.071547 17.009766 16.060547 C 16.677766 16.023547 16.341 16 16 16 C 11.037 16 7 20.037 7 25 C 7 25.127 7.007625 25.251953 7.015625 25.376953 L 7.015625 25.380859 C 2.856625 27.648859 1.1842379e-015 32.399297 0 37.154297 C 0 44.237297 5.7627031 50 12.845703 50 L 37.353516 50 C 37.457516 50 37.560062 49.994328 37.664062 49.986328 L 37.726562 49.978516 L 37.859375 49.986328 C 37.961375 49.994328 38.064922 50 38.169922 50 L 47.972656 50 C 54.604656 50 60 44.604656 60 37.972656 C 60 32.483656 56.173563 27.559359 50.976562 26.193359 C 50.447563 17.193359 43.028937 10 34.085938 10 z M 34.085938 12 C 41.830937 12 48.262594 18.135672 48.933594 25.888672 C 47.911594 25.816672 46.380609 25.778719 44.849609 26.011719 C 44.303609 26.094719 43.928719 26.604391 44.011719 27.150391 C 44.086719 27.645391 44.512047 28.001953 44.998047 28.001953 C 45.048047 28.001953 45.100391 27.996281 45.150391 27.988281 C 47.377391 27.651281 49.697984 27.967328 49.833984 27.986328 C 54.489984 28.871328 58 33.161656 58 37.972656 C 58 43.501656 53.501656 48 47.972656 48 L 38.169922 48 C 38.110922 48 38.052141 47.994234 37.994141 47.990234 L 37.724609 47.980469 L 37.525391 47.990234 C 37.468391 47.994234 37.411516 48 37.353516 48 L 12.845703 48 C 6.8657031 48 2 43.135297 2 37.154297 C 2 33.000297 4.7055938 28.687391 8.4335938 26.900391 L 9 26.630859 L 9 26 C 9 25.873 9.008625 25.743281 9.015625 25.613281 L 9.0234375 25.453125 L 9.0117188 25.244141 C 9.0057187 25.163141 9 25.082 9 25 C 9 21.141 12.141 18 16 18 C 16.309 18 16.614969 18.026406 16.917969 18.066406 C 16.995969 18.076406 17.073391 18.090516 17.150391 18.103516 C 17.417391 18.147516 17.680453 18.204297 17.939453 18.279297 C 17.974453 18.289297 18.009922 18.296641 18.044922 18.306641 C 18.329922 18.393641 18.608859 18.504906 18.880859 18.628906 C 18.951859 18.660906 19.019844 18.694516 19.089844 18.728516 C 19.329844 18.847516 19.565969 18.978 19.792969 19.125 C 21.719969 20.373 23 22.538 23 25 C 23 25.553 23.447 26 24 26 C 24.553 26 25 25.553 25 25 C 25 22.246 23.754781 19.780906 21.800781 18.128906 C 24.667781 14.378906 29.388938 12 34.085938 12 z "
         style="fill:#cccccc;fill-opacity:1;stroke-width:0.92572099"
         id="path2442"
         d="m 34.085938,9.4257812 c -5.458603,0 -10.695502,2.6265818 -14.080079,6.8945308 -0.159534,-0.07492 -0.319191,-0.14916 -0.488281,-0.216796 a 0.57467765,0.57467765 0 0 0 -0.002,-0.002 c -0.126236,-0.04983 -0.24613,-0.09206 -0.363281,-0.132812 -0.216795,-0.07583 -0.43598,-0.142807 -0.658203,-0.203125 -0.108689,-0.0293 -0.232081,-0.0649 -0.369141,-0.0957 h -0.002 c -0.245273,-0.05552 -0.488435,-0.09689 -0.726563,-0.132813 a 0.57467765,0.57467765 0 0 0 -0.002,0 c -0.08485,-0.0126 -0.189345,-0.03449 -0.322265,-0.04883 l 0.002,0.002 C 16.726379,15.451469 16.367453,15.425781 16,15.425781 c -5.274605,0 -9.5742188,4.299614 -9.5742188,9.574219 0,0.03891 0.0029,0.07017 0.00391,0.107422 -4.1725752,2.441782 -7.00390625,7.191448 -7.00390625,12.046875 0,7.394672 6.02524935,13.419922 13.41992175,13.419922 h 24.507813 c 0.124892,0 0.243377,-0.007 0.355468,-0.01563 a 0.57467765,0.57467765 0 0 0 0.02539,-0.002 l 0.01172,-0.002 0.08008,0.0059 -0.01172,-0.002 c 0.111115,0.0087 0.229775,0.01563 0.355469,0.01563 h 9.802734 c 6.943648,0 12.601563,-5.657915 12.601563,-12.601563 0,-5.622207 -3.820464,-10.636889 -9.083985,-12.205078 C 50.749702,16.660098 43.203142,9.4257813 34.085938,9.4257812 Z m 0,3.1484378 c 7.22149,0 13.216883,5.570256 14.158203,12.720703 -0.992961,-0.04195 -2.190799,-0.04783 -3.480469,0.148437 -0.852909,0.129655 -1.449935,0.940275 -1.320313,1.792969 0.117081,0.772733 0.787635,1.339844 1.554688,1.339844 0.09196,0 0.169153,-0.0086 0.238281,-0.01953 2.102337,-0.318136 4.357167,-0.02335 4.498047,-0.0039 4.369411,0.8347 7.691406,4.891172 7.691406,9.419922 0,5.21733 -4.235795,9.453125 -9.453125,9.453125 h -9.802734 c -0.02156,0 -0.06749,-0.005 -0.136719,-0.0098 a 0.57467765,0.57467765 0 0 0 -0.01758,0 l -0.269531,-0.0098 a 0.57467765,0.57467765 0 0 0 -0.04883,0 l -0.199219,0.0098 a 0.57467765,0.57467765 0 0 0 -0.01367,0.002 c -0.06884,0.0048 -0.110943,0.0078 -0.130859,0.0078 H 12.845703 c -5.6683658,0 -10.2714842,-4.60213 -10.2714842,-10.271484 0,-3.903594 2.6059359,-8.055555 6.1054687,-9.734375 l 0.00195,-0.002 0.5644532,-0.267578 a 0.57467765,0.57467765 0 0 0 0.328125,-0.519532 V 26 c 0,-0.100984 0.00837,-0.220657 0.015625,-0.355469 a 0.57467765,0.57467765 0 0 0 0,-0.0039 l 0.00781,-0.160156 a 0.57467765,0.57467765 0 0 0 0,-0.05859 l -0.011719,-0.208984 a 0.57467765,0.57467765 0 0 0 -0.00195,-0.01172 c -0.0059,-0.07963 -0.00977,-0.145888 -0.00977,-0.201172 0,-3.547195 2.8785862,-6.425781 6.4257812,-6.425781 0.276263,0 0.556027,0.02477 0.841797,0.0625 a 0.57467765,0.57467765 0 0 0 0.0039,0 c 0.05795,0.0074 0.12703,0.01937 0.208985,0.0332 a 0.57467765,0.57467765 0 0 0 0.002,0 c 0.24849,0.04095 0.489079,0.09447 0.722656,0.162109 a 0.57467765,0.57467765 0 0 0 0.002,0 c 0.06215,0.01776 0.09762,0.0251 0.105469,0.02734 0.251072,0.07724 0.503994,0.178148 0.755859,0.292969 a 0.57467765,0.57467765 0 0 0 0.002,0 c 0.05886,0.02653 0.121015,0.05861 0.19336,0.09375 0.2232,0.110818 0.439162,0.2296 0.642578,0.361328 1.769949,1.146287 2.945312,3.129747 2.945312,5.392578 0,0.862651 0.711568,1.574219 1.574219,1.574219 0.862651,0 1.574219,-0.711568 1.574219,-1.574219 0,-2.706924 -1.165173,-5.12497 -2.978516,-6.867188 2.777858,-3.383497 7.146963,-5.558593 11.490235,-5.558593 z" />
      <g
         id="g2444"
         style="fill:#cccccc;fill-opacity:1;stroke-width:0.92572099" />
      <g
         id="g2446"
         style="fill:#cccccc;fill-opacity:1;stroke-width:0.92572099" />
      <g
         id="g2448"
         style="fill:#cccccc;fill-opacity:1;stroke-width:0.92572099" />
      <g
         id="g2450"
         style="fill:#cccccc;fill-opacity:1;stroke-width:0.92572099" />
      <g
         id="g2452"
         style="fill:#cccccc;fill-opacity:1;stroke-width:0.92572099" />
      <g
         id="g2454"
         style="fill:#cccccc;fill-opacity:1;stroke-width:0.92572099" />
      <g
         id="g2456"
         style="fill:#cccccc;fill-opacity:1;stroke-width:0.92572099" />
      <g
         id="g2458"
         style="fill:#cccccc;fill-opacity:1;stroke-width:0.92572099" />
      <g
         id="g2460"
         style="fill:#cccccc;fill-opacity:1;stroke-width:0.92572099" />
      <g
         id="g2462"
         style="fill:#cccccc;fill-opacity:1;stroke-width:0.92572099" />
      <g
         id="g2464"
         style="fill:#cccccc;fill-opacity:1;stroke-width:0.92572099" />
      <g
         id="g2466"
         style="fill:#cccccc;fill-opacity:1;stroke-width:0.92572099" />
      <g
         id="g2468"
         style="fill:#cccccc;fill-opacity:1;stroke-width:0.92572099" />
      <g
         id="g2470"
         style="fill:#cccccc;fill-opacity:1;stroke-width:0.92572099" />
      <g
         id="g2472"
         style="fill:#cccccc;fill-opacity:1;stroke-width:0.92572099" />
    </g>
  </g>
</svg>
