<?xml version="1.0" encoding="UTF-8" standalone="no"?>
<!-- Created with Inkscape (http://www.inkscape.org/) -->

<svg
   xmlns:dc="http://purl.org/dc/elements/1.1/"
   xmlns:cc="http://creativecommons.org/ns#"
   xmlns:rdf="http://www.w3.org/1999/02/22-rdf-syntax-ns#"
   xmlns:svg="http://www.w3.org/2000/svg"
   xmlns="http://www.w3.org/2000/svg"
   xmlns:sodipodi="http://sodipodi.sourceforge.net/DTD/sodipodi-0.dtd"
   xmlns:inkscape="http://www.inkscape.org/namespaces/inkscape"
   width="88.246002mm"
   height="142.651mm"
   viewBox="0 0 88.246002 142.651"
   version="1.1"
   id="svg2946"
   inkscape:version="0.92.2 (5c3e80d, 2017-08-06)"
   sodipodi:docname="great-britain.svg">
  <defs
     id="defs2940" />
  <sodipodi:namedview
     id="base"
     pagecolor="#ffffff"
     bordercolor="#666666"
     borderopacity="1.0"
     inkscape:pageopacity="0.0"
     inkscape:pageshadow="2"
     inkscape:zoom="0.35"
     inkscape:cx="-257.14286"
     inkscape:cy="368.57143"
     inkscape:document-units="mm"
     inkscape:current-layer="layer1"
     showgrid="false"
     inkscape:window-width="1680"
     inkscape:window-height="987"
     inkscape:window-x="-8"
     inkscape:window-y="-8"
     inkscape:window-maximized="1" />
  <metadata
     id="metadata2943">
    <rdf:RDF>
      <cc:Work
         rdf:about="">
        <dc:format>image/svg+xml</dc:format>
        <dc:type
           rdf:resource="http://purl.org/dc/dcmitype/StillImage" />
        <dc:title />
      </cc:Work>
    </rdf:RDF>
  </metadata>
  <g
     inkscape:label="Layer 1"
     inkscape:groupmode="layer"
     id="layer1"
     transform="translate(0,-154.349)">
    <path
       style="fill:#057adc;fill-opacity:1;stroke-width:0.11146046"
       d="m 14.557149,296.84126 c -0.098,-0.2566 -0.094,-0.265 0.2111,-0.3809 0.1624,-0.062 0.2786,-0.1944 0.2786,-0.318 0,-0.2228 0.2551,-0.5044 0.361,-0.3985 0.1106,0.1106 -0.075,0.5596 -0.3816,0.9207 -0.3432,0.4048 -0.3767,0.4174 -0.4691,0.1767 z m 10.0866,-0.7235 c -0.1146,-0.1885 -0.2399,-0.5397 -0.2784,-0.7806 -0.055,-0.3464 -0.1664,-0.5076 -0.5312,-0.772 -0.2537,-0.1837 -0.5713,-0.334 -0.7058,-0.334 -0.1346,0 -0.3374,-0.1026 -0.4508,-0.2278 -0.3034,-0.3352 -0.6404,-0.2378 -0.7883,0.2278 -0.089,0.2791 -0.2564,0.4645 -0.5898,0.6517 -0.8485,0.4767 -1.2567,0.1419 -1.1408,-0.9355 0.064,-0.5958 0.1042,-0.6764 0.4055,-0.8161 0.1839,-0.085 0.4361,-0.2472 0.5605,-0.3598 0.1244,-0.1126 0.4504,-0.284 0.7245,-0.3808 0.4783,-0.169 0.5059,-0.1668 0.6834,0.052 0.2439,0.3004 0.3838,0.2876 0.6089,-0.056 0.1024,-0.1561 0.3499,-0.3523 0.5502,-0.436 0.2001,-0.084 0.5652,-0.3533 0.8112,-0.5993 0.2459,-0.2459 0.5449,-0.4994 0.6643,-0.5634 0.125,-0.067 0.2708,-0.329 0.3434,-0.6171 0.1059,-0.4206 0.2064,-0.5479 0.6278,-0.7948 0.448,-0.2626 0.6652,-0.5826 0.6055,-0.8923 -0.011,-0.057 -0.014,-0.3117 -0.01,-0.5653 0.013,-0.4584 0.016,-0.4616 0.5145,-0.5363 0.3149,-0.047 0.5417,-0.1506 0.6099,-0.2781 0.068,-0.127 0.2943,-0.2309 0.6042,-0.2774 0.5619,-0.084 0.6783,-0.1891 0.7901,-0.7117 0.061,-0.2846 0.2052,-0.4473 0.6259,-0.7063 0.3007,-0.185 0.5468,-0.3889 0.5468,-0.453 0,-0.064 0.1881,-0.2941 0.418,-0.5108 0.3962,-0.3737 0.4165,-0.4267 0.3898,-1.0164 -0.016,-0.3421 0.028,-0.8979 0.096,-1.2351 0.068,-0.3371 0.1563,-0.8137 0.1953,-1.0589 0.064,-0.4061 0.1036,-0.4489 0.44,-0.4812 0.2199,-0.021 0.5513,0.059 0.8192,0.199 0.5574,0.2906 0.7687,0.2287 1.1413,-0.3343 0.161,-0.2433 0.3422,-0.4423 0.4026,-0.4423 0.1514,0 0.138,-0.4851 -0.024,-0.8389 -0.1032,-0.2265 -0.1032,-0.3401 0,-0.5054 0.073,-0.1172 0.1332,-0.3358 0.1332,-0.4858 0,-0.3237 0.1137,-0.3686 1.2967,-0.5126 0.4822,-0.059 1.07739,-0.1613 1.32259,-0.2281 0.995,-0.2714 1.59591,-0.3115 2.14261,-0.143 0.3729,0.1149 0.7666,0.1432 1.3141,0.094 0.75189,-0.067 0.80029,-0.056 1.2713,0.2851 0.47609,0.3449 0.5133,0.3528 1.3361,0.2862 1.3911,-0.1127 2.362,-0.2588 2.4759,-0.3726 0.068,-0.069 0.062,-0.3044 -0.016,-0.6544 -0.11251,-0.5009 -0.098,-0.5998 0.1735,-1.1678 0.2128,-0.4457 0.38749,-0.6549 0.6199,-0.7427 0.17799,-0.067 0.3237,-0.2035 0.3237,-0.3029 0,-0.3346 0.3552,-0.7268 1.02889,-1.136 0.5433,-0.3301 0.71981,-0.514 0.93661,-0.9758 0.14689,-0.313 0.44189,-0.7861 0.6555,-1.0514 0.2136,-0.2653 0.3884,-0.5271 0.3884,-0.5817 0,-0.207 -0.32691,0.039 -0.5994,0.4504 -0.36311,0.5487 -0.8326,0.9032 -1.78841,1.3505 -0.6722,0.3145 -0.80709,0.3429 -1.10159,0.2318 -0.306,-0.1155 -0.37201,-0.095 -0.7474,0.2326 -0.22651,0.1976 -0.59481,0.4993 -0.8183,0.6705 -0.24881,0.1905 -0.40711,0.4067 -0.4082,0.5573 -0.01,0.4228 -0.1623,0.5327 -0.9559,0.6594 -0.81551,0.1302 -0.98621,0.1324 -1.90781,0.024 -0.53319,-0.063 -0.6232,-0.118 -1.1024,-0.6789 -0.4285,-0.5016 -0.5682,-0.5992 -0.78139,-0.5456 -0.2111,0.053 -0.29431,-0.01 -0.4463,-0.2984 -0.33751,-0.6569 -1.03201,-1.616 -1.22311,-1.6893 -0.10309,-0.04 -0.3633,-0.039 -0.5781,0 -0.29439,0.055 -0.4202,0.1519 -0.511,0.3924 -0.1237,0.3278 -0.3298,0.3891 -1.1036,0.3285 -0.1734,-0.014 -0.43529,0.076 -0.6003,0.2062 -0.3794,0.2984 -0.5083,0.2903 -0.9227,-0.059 -0.25359,-0.2134 -0.3429,-0.383 -0.3429,-0.6514 0,-0.4383 0.3734,-0.8488 0.58211,-0.6401 0.16819,0.1681 0.7835,0.1699 0.9506,0.01 0.20529,-0.2052 -0.5315,-0.5402 -1.1308,-0.5142 -0.58111,0.026 -0.8822,-0.1875 -1.0941,-0.7731 -0.11161,-0.3085 -0.1804,-0.3673 -0.3636,-0.31 -0.5905,0.1846 -1.23781,0.2691 -1.60781,0.21 -0.5881,-0.094 -0.90379,0.1919 -0.93499,0.847 l -0.024,0.5016 h -0.7991 c -0.67531,0 -0.84051,0.039 -1.06611,0.2508 -0.31769,0.2985 -0.2851,0.2961 -1.04349,0.076 -0.37481,-0.1089 -0.6023,-0.2367 -0.6023,-0.3382 0,-0.09 -0.085,-0.293 -0.18881,-0.4515 -0.1776,-0.2711 -0.1776,-0.2965 0,-0.4273 0.1666,-0.1218 0.16971,-0.1559 0.025,-0.2759 -0.1335,-0.1107 -0.22129,-0.093 -0.45959,0.095 l -0.2947,0.2317 -0.3157,-0.2488 c -0.1735,-0.1368 -0.31831,-0.2889 -0.3217,-0.3378 -0.01,-0.1148 0.57239,-0.6269 0.7183,-0.6337 0.2964,-0.014 0.4353,-0.2303 0.4084,-0.6358 -0.043,-0.6535 -0.2221,-0.7608 -1.24861,-0.7495 -0.4881,0.01 -0.88749,-0.01 -0.88749,-0.033 0,-0.1302 0.50949,-0.7019 0.62549,-0.7019 0.076,0 0.27991,-0.1196 0.45371,-0.2659 0.1738,-0.1462 0.50539,-0.345 0.7371,-0.4418 0.29729,-0.1243 0.4693,-0.2916 0.58569,-0.57 0.144,-0.3448 0.2135,-0.3941 0.5547,-0.3941 0.2146,0 0.4914,0.062 0.61491,0.1392 0.18329,0.1136 0.2428,0.1106 0.32159,-0.016 0.056,-0.091 0.1934,-0.1299 0.3288,-0.095 0.277,0.072 1.00591,-0.5573 1.2822,-1.1076 0.2061,-0.4107 0.2916,-0.4442 1.38891,-0.5472 0.6017,-0.057 0.88729,-0.1391 1.07819,-0.3121 0.14291,-0.1294 0.4085,-0.3709 0.5902,-0.5366 0.1818,-0.1658 0.47411,-0.3359 0.6495,-0.3781 0.60801,-0.1464 1.1017,-0.473 1.6106,-1.0657 0.41011,-0.4776 0.5812,-0.8164 0.8641,-1.7102 0.4343,-1.3726 0.4362,-1.6533 0.016,-2.2739 -0.4157,-0.6134 -0.43249,-1.101 -0.053,-1.5512 0.3668,-0.4359 0.3532,-0.5929 -0.11899,-1.3703 -0.37491,-0.6171 -0.38961,-0.6768 -0.25641,-1.0449 0.1261,-0.3489 0.1168,-0.4232 -0.088,-0.6976 -0.197,-0.2646 -0.3188,-0.3118 -0.8814,-0.3412 -1.1234,-0.059 -2.1667,0.513 -2.1667,1.1873 0,0.4436 -0.2772,0.5305 -0.5803,0.182 -0.2882,-0.3315 -0.3256,-0.3337 -1.1383,-0.065 -0.5053,0.1666 -0.65,0.1804 -0.6941,0.066 -0.153,-0.3988 1.2199,-1.9717 1.8271,-2.0932 0.2074,-0.041 0.6281,-0.3432 1.0761,-0.7717 0.7222,-0.691 0.7355,-0.7143 0.7355,-1.2843 0,-0.5127 -0.036,-0.6028 -0.3065,-0.7716 -0.448,-0.2793 -0.9222,-0.7697 -1.142,-1.1812 -0.1134,-0.2121 -0.2971,-0.3759 -0.4465,-0.3982 -0.3507,-0.052 -1.0314,-0.7344 -0.9837,-0.986 0.024,-0.1254 0.2182,-0.2594 0.5112,-0.3523 0.2944,-0.093 0.4769,-0.2194 0.4837,-0.3343 0.01,-0.1015 0.018,-0.3009 0.028,-0.4433 0.014,-0.2067 0.136,-0.3009 0.6085,-0.4677 0.557,-0.1966 0.6337,-0.1985 1.3071,-0.033 0.545,0.1345 0.7323,0.2326 0.7865,0.4119 0.039,0.1295 0.1592,0.3358 0.2667,0.4584 0.1075,0.1226 0.2287,0.3631 0.2693,0.5345 0.073,0.3095 0.078,0.3112 0.7391,0.2364 0.7937,-0.09 0.865,0.053 0.3309,0.661 -0.1839,0.2095 -0.3344,0.4185 -0.3344,0.4644 0,0.2097 0.9293,-0.076 1.6534,-0.5075 0.4394,-0.262 0.7988,-0.4943 0.7988,-0.5162 0,-0.022 -0.061,-0.137 -0.1351,-0.256 -0.074,-0.119 -0.1086,-0.2429 -0.076,-0.2752 0.076,-0.076 0.6715,0.1211 1.3948,0.461 0.6626,0.3114 0.8357,0.2885 1.99,-0.2636 1.1476,-0.5489 1.373,-0.5152 2.3644,0.3529 0.8577,0.751 1.0773,0.8508 1.1954,0.5431 0.075,-0.1962 0.012,-0.2987 -0.6277,-1.0144 -0.2316,-0.2591 -0.4211,-0.5707 -0.4211,-0.6922 0,-0.2788 0.3794,-0.6372 0.8576,-0.8101 0.4589,-0.166 0.4796,-0.4477 0.09,-1.2239 -0.1533,-0.3051 -0.2787,-0.6435 -0.2787,-0.7519 0,-0.3697 0.5727,-1.288 1.2048,-1.932 l 0.6309,-0.6426 -0.5398,0.029 c -0.4635,0.025 -0.5697,-0.01 -0.7514,-0.249 -0.1866,-0.2456 -0.2031,-0.4001 -0.1391,-1.3007 l 0.073,-1.0219 0.5134,-0.1828 c 0.2823,-0.1004 0.5885,-0.2225 0.6805,-0.271 0.2614,-0.138 0.2642,-0.6069 0.01,-0.8413 -0.3244,-0.2936 -0.2831,-0.7232 0.116,-1.2074 0.339,-0.4113 0.342,-0.426 0.2019,-0.9729 -0.078,-0.3054 -0.1743,-0.5552 -0.2133,-0.5552 -0.039,0 -0.1888,0.1254 -0.3328,0.2786 -0.3158,0.3362 -0.46,0.3479 -0.7221,0.059 -0.2571,-0.2841 -0.3455,-0.2193 -0.6884,0.5049 -0.3541,0.7478 -0.5067,0.8855 -0.8047,0.7259 -0.311,-0.1664 -0.427,0.055 -0.1748,0.334 0.1075,0.1188 0.1443,0.2159 0.082,0.2159 -0.062,0 -0.2516,-0.1992 -0.4204,-0.4428 -0.3062,-0.4418 -0.3231,-0.6411 -0.1115,-1.3107 0.064,-0.2049 0.022,-0.2702 -0.2404,-0.3697 -0.671,-0.2542 -1.1549,-0.9291 -1.1549,-1.6105 0,-0.2863 -0.081,-0.476 -0.2833,-0.6635 -0.4541,-0.4209 -1.6116,-2.0822 -1.6116,-2.3131 0,-0.1163 0.07,-0.3474 0.1565,-0.5138 0.086,-0.1663 0.1918,-0.5526 0.2352,-0.8582 0.1043,-0.7353 0.3778,-1.3424 0.8669,-1.9242 0.2869,-0.3413 0.4205,-0.6259 0.4707,-1.0031 0.1442,-1.0813 0.5181,-1.6031 0.9935,-1.3864 0.3579,0.1631 0.6226,-0.096 0.3875,-0.3789 -0.082,-0.099 -0.1509,-0.2872 -0.1529,-0.418 -0.01,-0.3313 -0.9362,-0.5797 -1.5084,-0.4025 -0.2146,0.066 -0.5154,0.1055 -0.6687,0.087 -0.2667,-0.033 -0.2771,-0.012 -0.2416,0.4863 0.042,0.5881 -0.2296,0.9831 -0.678,0.9862 -0.4112,0.01 -1.1726,0.2675 -1.3876,0.4824 -0.1839,0.1838 -0.5997,0.4705 -1.1948,0.8239 -0.597,0.3545 -1.5731,0.058 -2.0838,-0.6326 -0.1877,-0.2538 -0.3411,-0.341 -0.6004,-0.341 -0.2415,0 -0.4465,-0.1025 -0.6686,-0.3344 -0.4082,-0.426 -0.5018,-0.4207 -0.5009,0.028 0,0.2818 0.072,0.4026 0.3205,0.5441 0.3159,0.1797 0.319,0.1916 0.2637,1.0031 -0.031,0.4517 -0.1059,0.884 -0.1669,0.9607 -0.3267,0.4102 -1.4653,-0.1841 -1.9366,-1.011 -0.2929,-0.5139 -0.4009,-0.6029 -0.9817,-0.8099 -0.3589,-0.1278 -0.718,-0.322 -0.7981,-0.4315 -0.1691,-0.2312 -0.5104,-0.1765 -0.9278,0.1487 -0.3466,0.2701 -0.3363,0.7353 0.039,1.7305 0.2948,0.7834 0.2806,1.0698 -0.053,1.0698 -0.3018,0 -0.5513,-0.4196 -0.4753,-0.7995 0.042,-0.2097 0.01,-0.3879 -0.1089,-0.5132 -0.095,-0.1057 -0.2076,-0.3308 -0.25,-0.5005 -0.042,-0.1697 -0.3013,-0.5208 -0.5754,-0.7803 -0.6593,-0.6239 -0.8157,-0.9514 -0.8926,-1.8685 -0.063,-0.7524 -0.059,-0.7697 0.2384,-0.905 0.2365,-0.1078 0.3495,-0.1086 0.5173,-0.01 0.1758,0.1097 0.2146,0.104 0.2146,-0.031 0,-0.3438 0.5868,-1.9081 0.8036,-2.1424 0.1243,-0.1342 0.4207,-0.5606 0.6586,-0.9474 0.3285,-0.5341 0.4325,-0.8199 0.4326,-1.1887 10e-5,-0.3377 0.077,-0.5794 0.2508,-0.794 0.138,-0.1697 0.3376,-0.4676 0.4435,-0.662 0.1092,-0.2002 0.3403,-0.4048 0.5329,-0.472 0.3429,-0.1196 0.6674,-0.5823 0.668,-0.9527 2e-4,-0.1102 -0.108,-0.4262 -0.2405,-0.7021 -0.1323,-0.2759 -0.274,-0.5768 -0.3148,-0.6688 -0.041,-0.092 -0.3081,-0.2925 -0.5941,-0.4458 -0.3334,-0.1787 -0.6457,-0.4709 -0.8707,-0.8147 -0.3081,-0.471 -0.3348,-0.5708 -0.2201,-0.8225 0.168,-0.3689 0.085,-0.4436 -0.249,-0.2246 -0.2624,0.1719 -0.266,0.1694 -0.2276,-0.1609 0.051,-0.4375 0.1221,-0.5409 0.3721,-0.5409 0.1881,0 0.2046,-0.099 0.1885,-1.1243 -0.016,-1.0448 2.6e-4,-1.1387 0.2351,-1.329 l 0.2526,-0.2048 -0.197,-0.62 c -0.1082,-0.341 -0.2289,-0.6207 -0.2682,-0.6215 -0.039,0 -0.076,0.3284 -0.082,0.7318 -0.01,0.554 -0.066,0.8029 -0.2351,1.0181 -0.1233,0.1567 -0.2242,0.3717 -0.2242,0.4778 0,0.1061 -0.098,0.3177 -0.2181,0.4701 -0.1688,0.2146 -0.2255,0.4873 -0.2508,1.2043 -0.036,1.0206 -0.1852,1.2333 -0.4738,0.6753 -0.097,-0.1868 -0.3307,-0.4198 -0.5203,-0.5179 -0.294,-0.152 -0.3353,-0.2245 -0.2815,-0.4937 0.071,-0.3556 -0.1259,-0.5992 -0.3651,-0.4514 -0.2464,0.1523 -0.7815,-0.1042 -0.9674,-0.4639 -0.2044,-0.3952 -0.1182,-1.8386 0.1401,-2.3455 0.1714,-0.3363 0.044,-0.4146 -0.1982,-0.122 -0.084,0.1014 -0.3144,0.2519 -0.5117,0.3343 -0.2021,0.084 -0.3364,0.2109 -0.3078,0.2893 0.028,0.077 0.098,0.4807 0.1562,0.8981 0.073,0.5296 0.2085,0.9196 0.4471,1.2915 0.4762,0.7421 0.4549,1.0642 -0.089,1.3415 -0.5916,0.3019 -0.9656,1.1891 -0.8743,2.0742 0.055,0.5301 0.01,0.748 -0.3822,1.721 -0.4409,1.1044 -0.4431,1.1169 -0.2474,1.4481 0.1914,0.3241 0.19,0.349 -0.047,0.8374 -0.2378,0.4896 -0.2588,0.5034 -0.7753,0.511 -0.292,0.01 -0.6313,0.048 -0.7539,0.097 -0.3891,0.15639 -0.613,-0.061 -0.613,-0.5941 0,-0.64541 0.1831,-1.1313 0.5056,-1.3426 0.2466,-0.16161 0.2654,-0.24261 0.2581,-1.11121 -0.01,-0.9637 0.2924,-2.133 0.8362,-3.2551 l 0.2217,-0.4576 -0.243,-0.34119 c -0.3033,-0.426 -0.3998,-0.88931 -0.2606,-1.25161 0.086,-0.2244 0.061,-0.32909 -0.1317,-0.5383 -0.3847,-0.41849 -0.3272,-1.1626 0.1513,-1.9578 0.2145,-0.3567 0.502,-0.6918 0.6388,-0.74459 0.21,-0.081 0.2381,-0.153 0.1803,-0.4618 -0.038,-0.2012 -0.1119,-0.41341 -0.1651,-0.4717 -0.053,-0.058 -0.097,-0.21951 -0.097,-0.35831 0,-0.1388 -0.093,-0.3023 -0.2071,-0.36319 -0.1683,-0.09 -0.2306,-0.059 -0.3321,0.1632 -0.1278,0.28059 -0.5017,0.3721 -0.6355,0.15559 -0.04,-0.065 0.011,-0.212 0.1149,-0.3263 0.119,-0.13159 0.1612,-0.29289 0.1149,-0.43889 -0.083,-0.2619 0.1063,-0.32081 0.2049,-0.064 0.1254,0.32649 0.2743,0.1592 0.3503,-0.39351 0.052,-0.3785 0.033,-0.6134 -0.058,-0.72319 -0.1091,-0.1314 -0.095,-0.1767 0.073,-0.236 0.9536,-0.33771 1.1657,-0.5676 0.7423,-0.8045 -0.1634,-0.091 -0.1684,-0.13201 -0.036,-0.2916 0.085,-0.1019 0.2954,-0.25851 0.4684,-0.34801 0.546,-0.28239 0.3084,-0.9124 -0.2877,-0.76269 -0.4349,0.10909 -0.3411,-0.29821 0.1008,-0.43781 0.1226,-0.039 0.306,-0.217 0.4076,-0.3961 0.1015,-0.179 0.297,-0.34219 0.4345,-0.3625 0.1373,-0.02 0.305,-0.1369 0.3726,-0.25909 0.068,-0.12201 0.2357,-0.36421 0.3736,-0.5379 0.138,-0.1738 0.2508,-0.4064 0.2508,-0.5168 0,-0.1181 0.1378,-0.2579 0.3344,-0.3394 0.3657,-0.1514 0.4541,-0.44581 0.1339,-0.44581 -0.2745,0 -0.9196,0.57761 -2.5558,2.28861 -0.5499,0.57489 -0.9332,0.75019 -1.0892,0.4979 -0.09,-0.145 -0.5015,-0.145 -0.5015,0 0,0.1254 0.2827,0.40329 0.7139,0.7019 0.5358,0.37089 0.2551,1.1118 -0.6819,1.7991 -0.6054,0.44419 -0.918,0.49839 -1.0028,0.17399 -0.072,-0.27629 -0.087,-0.276 -0.5514,0.011 -0.2349,0.14521 -0.6413,0.2542 -1.0721,0.2877 -0.3816,0.029 -0.9276,0.1333 -1.2134,0.2305 -0.4938,0.168 -0.5462,0.16521 -1.0588,-0.057 -0.6332,-0.2739 -0.8159,-0.497 -0.6381,-0.779 0.133,-0.2107 0.7283,-0.2477 1.5303,-0.095 l 0.4284,0.081 -0.075,-0.3424 c -0.06,-0.2738 -0.016,-0.4121 0.2179,-0.6906 0.4163,-0.4947 0.3362,-0.7139 -0.2512,-0.6875 -0.2583,0.011 -0.4696,-0.022 -0.4696,-0.074 0,-0.053 -0.03,-0.175 -0.068,-0.2719 -0.053,-0.138 0.01,-0.1764 0.286,-0.1764 0.1945,0 0.4476,0.05 0.5625,0.1118 0.2942,0.1576 0.406,-0.07 0.1651,-0.3363 -0.1292,-0.1427 -0.3748,-0.2212 -0.7633,-0.2437 -0.5374,-0.031 -0.5709,-0.05 -0.5421,-0.3119 0.017,-0.1533 0.029,-0.4116 0.027,-0.574 -0.01,-0.2333 0.071,-0.3213 0.3521,-0.4194 0.1957,-0.068 0.4344,-0.1947 0.5304,-0.2811 0.096,-0.086 0.3145,-0.1921 0.4855,-0.2349 0.2676,-0.067 0.3732,-0.012 0.7536,0.3874 0.4713,0.4955 0.7421,0.526 0.5296,0.059 -0.101,-0.2217 -0.09,-0.3134 0.06,-0.4785 0.1016,-0.1123 0.1849,-0.2356 0.1849,-0.2739 0,-0.1087 -0.7923,-0.3017 -1.2416,-0.3023 -0.5374,0 -0.9327,-0.3158 -0.8245,-0.6567 0.1079,-0.3399 0.9922,-0.7271 1.293,-0.5662 0.1582,0.085 0.3064,0.066 0.5701,-0.07 0.2803,-0.145 0.4005,-0.1568 0.5628,-0.055 0.2596,0.162 0.4199,0.068 0.4221,-0.2475 0.01,-0.3283 0.1035,-0.4591 0.4999,-0.6465 0.2063,-0.098 0.3343,-0.2428 0.3343,-0.3794 0,-0.2252 -0.1443,-0.2587 -0.5572,-0.1293 -0.4588,0.1439 -0.5311,-0.071 -0.2276,-0.6751 0.1558,-0.3102 0.2832,-0.6724 0.2832,-0.8049 0,-0.1325 0.1557,-0.383 0.3459,-0.5567 0.2602,-0.2377 0.3272,-0.3743 0.2708,-0.5519 -0.076,-0.2389 0.2856,-0.692 0.7682,-0.963 0.195,-0.1094 0.1961,-0.1344 0.021,-0.4736 -0.1019,-0.197 -0.2229,-0.3582 -0.269,-0.3582 -0.2187,0 -0.5565,0.3599 -0.6157,0.6558 -0.04,0.1976 -0.1575,0.3585 -0.2946,0.4021 -0.1258,0.04 -0.3026,0.2154 -0.393,0.3902 -0.2032,0.3931 -0.7715,0.8105 -1.0322,0.7583 -0.286,-0.057 -0.1735,-0.8764 0.2113,-1.5377 0.2221,-0.3814 0.2256,-0.4638 0.026,-0.6148 -0.2919,-0.221 -0.3443,-0.2067 -0.5103,0.1398 -0.2097,0.4376 -0.4887,0.4544 -0.5726,0.034 -0.084,-0.4214 -0.3461,-0.4414 -0.5412,-0.041 -0.1871,0.3839 -0.4218,0.4587 -0.5001,0.1594 -0.034,-0.1291 -0.1465,-0.2347 -0.2504,-0.2347 -0.2158,0 -0.5967,-0.3921 -1.0711,-1.1029 -0.2684,-0.402 -0.3276,-0.6085 -0.33,-1.15 -0.01,-0.5699 -0.041,-0.6892 -0.2802,-0.873 -0.3686,-0.2832 -0.4052,-0.2744 -0.4833,0.1164 -0.037,0.184 -0.1309,0.3328 -0.209,0.3308 -0.1976,-0.01 -0.9953,-0.5734 -1.0903,-0.7766 -0.043,-0.092 -0.1689,-0.3558 -0.2798,-0.5864 -0.208,-0.4323 -0.2076,-0.4356 0.1621,-1.1903 0.1404,-0.2867 0.3245,-0.251 0.5049,0.098 0.1688,0.3266 0.3937,0.4605 0.3937,0.2344 0,-0.059 0.1098,-0.2094 0.2439,-0.3343 l 0.2439,-0.2272 -0.2966,-0.3096 c -0.2467,-0.2574 -0.2817,-0.3654 -0.208,-0.6409 0.049,-0.1823 0.1226,-0.319 0.1642,-0.3036 0.042,0.015 0.1219,0.028 0.1784,0.028 0.057,0 0.1567,0.163 0.2225,0.3622 0.1132,0.3424 0.7611,0.9753 0.9983,0.9753 0.06,0 0.1792,-0.07 0.2646,-0.1551 0.122,-0.122 0.1358,-0.3304 0.064,-0.9753 -0.087,-0.7905 -0.08,-0.8284 0.1872,-1.0473 0.1527,-0.1249 0.2776,-0.2849 0.2776,-0.3557 0,-0.4676 0.6671,-0.1304 0.9909,0.5009 0.1174,0.2289 0.3401,0.5346 0.495,0.679 0.2709,0.2529 0.2794,0.301 0.2247,1.2818 -0.031,0.5606 -0.1029,1.1644 -0.1592,1.3422 -0.061,0.1943 -0.062,0.3719 0,0.4458 0.056,0.068 0.1186,0.2733 0.1394,0.4572 0.061,0.536 0.25,0.3863 0.3448,-0.2723 0.048,-0.3336 0.1616,-0.6887 0.2523,-0.789 0.091,-0.1003 0.165,-0.2349 0.165,-0.2993 0,-0.064 0.073,-0.1771 0.1615,-0.2508 0.089,-0.074 0.1766,-0.3643 0.1951,-0.6458 0.021,-0.3167 0.093,-0.5315 0.19,-0.5635 0.2212,-0.073 0.073,1.1248 -0.2046,1.6598 -0.1655,0.3182 -0.1956,0.5518 -0.1479,1.146 0.053,0.6662 0.095,0.7714 0.3874,0.9795 0.2612,0.186 0.3135,0.289 0.2584,0.5088 -0.2167,0.8631 1.0365,0.7186 1.4908,-0.172 0.1183,-0.2318 0.3484,-0.4823 0.5114,-0.5566 0.3283,-0.1495 0.3207,-0.4194 -0.011,-0.3946 -0.1164,0.01 -0.3706,0.081 -0.565,0.1604 -0.5099,0.2086 -0.7519,-0.01 -0.6588,-0.5911 0.053,-0.3315 0.016,-0.4964 -0.1689,-0.7462 -0.2113,-0.2858 -0.2285,-0.407 -0.1574,-1.1147 0.088,-0.8728 0.2934,-1.132 0.7181,-0.9048 0.1186,0.063 0.2745,0.1154 0.3465,0.1154 0.1808,0 0.041,-0.5145 -0.2517,-0.9253 -0.1921,-0.2699 -0.2147,-0.3957 -0.1315,-0.7313 0.086,-0.3451 0.1461,-0.4047 0.4067,-0.401 0.4225,0.01 0.3834,-0.12 -0.1397,-0.4502 -0.4382,-0.2767 -0.4459,-0.2928 -0.4459,-0.9409 0,-0.7264 0.1704,-1.0097 0.6074,-1.0097 0.1413,0 0.3194,0.075 0.3958,0.1672 0.076,0.092 0.2134,0.1671 0.3047,0.1671 0.1273,0 0.1498,-0.085 0.097,-0.3676 -0.095,-0.5087 0.1355,-0.8252 0.471,-0.6457 0.1331,0.071 0.2419,0.2193 0.2419,0.3291 0,0.2294 0.4805,0.724 0.5935,0.611 0.041,-0.041 0.075,-0.1673 0.075,-0.2797 0,-0.1124 0.063,-0.2039 0.1393,-0.2034 0.077,0 0.266,-0.153 0.4209,-0.3412 l 0.2814,-0.3424 0.265,0.2299 c 0.3065,0.2658 0.4501,0.2841 0.7093,0.09 0.1573,-0.1175 0.165,-0.1817 0.049,-0.4102 -0.076,-0.149 -0.28081,-0.3091 -0.4559,-0.3558 -0.1752,-0.047 -0.4009,-0.1563 -0.5015,-0.2436 -0.1007,-0.087 -0.3203,-0.1912 -0.488,-0.231 -0.376,-0.089 -0.4909,-0.4627 -0.3107,-1.009 0.1746,-0.5289 0.2727,-0.5669 0.7322,-0.2829 0.3139,0.194 0.4234,0.215 0.5545,0.1063 0.2945,-0.2444 -0.032,-1.3903 -0.6418,-2.2521 -0.2208,-0.3121 0.044,-0.4876 0.392,-0.2596 0.2443,0.16 0.2979,0.1623 0.4414,0.019 0.1123,-0.1123 0.3006,-0.145 0.6023,-0.1045 0.3297,0.044 0.4785,0.011 0.5972,-0.1317 0.13829,-0.1667 0.12899,-0.2418 -0.074,-0.5967 -0.1278,-0.2234 -0.2662,-0.5619 -0.3074,-0.7521 -0.063,-0.291 -0.031,-0.3753 0.2066,-0.5305 0.4093,-0.2682 0.6821,-0.8387 0.5229,-1.0936 -0.1782,-0.2852 -0.1548,-0.7152 0.05,-0.92 0.096,-0.096 0.2138,-0.1751 0.2608,-0.1751 0.1266,0 0.3444,-0.5278 0.3444,-0.8346 0,-0.4021 0.1473,-0.4221 0.8422,-0.1148 0.3489,0.1543 0.716,0.2821 0.8156,0.2839 0.1,0 0.4069,0.1983 0.6826,0.4367 l 0.5015,0.4334 -0.2447,0.3309 c -0.1346,0.1821 -0.2129,0.3627 -0.1742,0.4015 0.1182,0.1181 0.7323,-0.6364 0.808,-0.9928 0.063,-0.2944 0.1149,-0.3322 0.4374,-0.3167 0.2298,0.011 0.4848,0.1311 0.6843,0.3222 0.2944,0.2821 0.3434,0.2941 0.6626,0.1618 0.2612,-0.1082 0.4112,-0.1125 0.6189,-0.018 0.2236,0.1019 0.3464,0.084 0.6671,-0.096 0.2162,-0.1214 0.4841,-0.2208 0.5953,-0.2208 0.1113,0 0.296,-0.1036 0.4107,-0.2303 0.183,-0.2022 0.2236,-0.2095 0.3328,-0.06 0.3699,0.5059 1.5804,0.4247 2.2348,-0.1499 0.4949,-0.4345 1.1956,-0.6527 1.4414,-0.4488 0.2343,0.1945 1.2787,0.235 1.2787,0.05 0,-0.075 -0.075,-0.1987 -0.1673,-0.275 -0.3663,-0.3041 -0.099,-0.6785 0.2898,-0.4061 0.2075,0.1453 0.2908,0.1432 0.7275,-0.018 0.3985,-0.1477 0.535,-0.1565 0.7117,-0.046 0.1202,0.075 0.3713,0.1366 0.558,0.1366 0.2135,0 0.3657,0.069 0.4104,0.1852 0.071,0.1837 -0.1476,1.1021 -0.4244,1.7876 -0.1341,0.332 -0.1239,0.3753 0.1481,0.6274 0.2683,0.2487 0.2835,0.3091 0.1863,0.7418 -0.2424,1.0789 -0.8137,1.8139 -1.7341,2.2313 -0.6196,0.281 -0.7586,0.4049 -1.1472,1.0235 -0.3101,0.4936 -0.7802,0.9861 -1.5741,1.6488 -0.8026,0.6701 -1.2011,1.0888 -1.3696,1.4387 -0.2052,0.4265 -0.3089,0.5143 -0.7615,0.6451 -0.6216,0.1796 -0.6806,0.2562 -0.756,0.9828 -0.05,0.4753 -0.1039,0.5783 -0.3762,0.7084 -0.2823,0.1349 -0.2996,0.1712 -0.1523,0.3185 0.1309,0.1308 0.2163,0.1394 0.402,0.04 0.1425,-0.076 0.4472,-0.098 0.7702,-0.055 0.4163,0.055 0.5671,0.031 0.6826,-0.1076 0.1351,-0.1629 0.4552,-0.2514 0.4552,-0.126 0,0.2219 -0.5871,1.2837 -0.8338,1.508 -0.382,0.3474 -1.3954,1.8298 -1.3954,2.0414 0,0.1058 0.19,0.1795 0.5851,0.227 0.9037,0.1085 0.902,0.1091 1.6814,-0.5297 0.6086,-0.4989 0.8353,-0.6159 1.3238,-0.6828 0.364,-0.05 0.7086,-0.1809 0.9009,-0.3425 0.5166,-0.4339 1.0521,-0.5401 1.6391,-0.3253 1.5245,0.5581 2.1275,0.6168 2.8014,0.273 0.3887,-0.1983 0.5245,-0.2147 0.9709,-0.1172 1.6568,0.362 3.1585,0.4122 3.6978,0.1236 0.1149,-0.061 0.3451,-0.052 0.5997,0.027 0.3445,0.1058 0.4658,0.096 0.7308,-0.061 0.4346,-0.2567 1.1341,-0.2373 1.612,0.045 0.4476,0.2641 1.178,1.1975 1.1817,1.5101 0,0.1144 0.1001,0.423 0.2193,0.6857 0.1827,0.4028 0.1999,0.5673 0.1087,1.0478 -0.1176,0.6201 -0.096,0.5848 -1.0271,1.6819 -0.3525,0.4154 -0.6409,0.8445 -0.6409,0.9536 0,0.1092 -0.1066,0.5143 -0.237,0.9002 -0.2089,0.6189 -0.2201,0.7528 -0.095,1.133 0.1371,0.4153 0.123,0.471 -0.3867,1.5212 -0.3221,0.6637 -0.5657,1.3449 -0.6229,1.7418 -0.072,0.5031 -0.2225,0.8477 -0.6586,1.512 -0.3106,0.4732 -0.7126,0.9696 -0.8934,1.1033 -0.2198,0.1624 -0.3538,0.3817 -0.4045,0.6614 -0.042,0.2302 -0.1443,0.5539 -0.228,0.7195 -0.084,0.1655 -0.1546,0.4413 -0.1574,0.6129 -0.01,0.5003 -0.2321,0.8587 -0.8866,1.4181 -0.3372,0.2883 -0.7427,0.6463 -0.901,0.7958 -0.1803,0.1702 -0.4199,0.2717 -0.6409,0.2717 -0.3441,0 -0.4656,0.1402 -0.2415,0.2786 0.061,0.038 0.1115,0.2839 0.1115,0.5467 0,0.5614 0.1778,0.7625 0.8972,1.0145 0.5146,0.1803 0.8794,0.5327 0.8836,0.8537 0,0.1022 -0.1937,0.3411 -0.4335,0.5311 -0.7776,0.6159 -1.7242,0.8745 -1.8644,0.5093 -0.1419,-0.37 -0.6101,-0.1759 -1.3886,0.5756 -0.4232,0.4086 -0.7694,0.8031 -0.7694,0.8767 0,0.2685 -0.4626,0.7212 -0.737,0.7212 -0.3233,0 -1.1578,0.4023 -1.1578,0.5581 0,0.1992 0.8173,0.4617 1.21,0.3887 0.2813,-0.052 0.5194,0.01 0.9592,0.2263 l 0.585,0.296 0.5722,-0.29 c 0.4533,-0.2297 0.6293,-0.4026 0.8469,-0.832 0.3133,-0.6184 0.424,-0.6815 1.1954,-0.6815 0.4973,0 0.5951,0.042 0.9031,0.3901 0.1899,0.2146 0.4043,0.3902 0.4764,0.3902 0.1883,0 1.3909,0.654 1.7408,0.9468 0.1969,0.1647 0.5197,0.2734 0.9602,0.3233 0.8115,0.092 0.9738,0.2515 1.7918,1.7644 0.5946,1.1 1.0866,1.6468 1.4814,1.6468 0.4272,0 0.6245,0.2027 0.7023,0.7214 0.061,0.4055 0.1195,0.5047 0.2991,0.5047 0.3991,0 0.6458,0.2177 0.9185,0.8109 0.5177,1.1263 0.6388,1.6342 0.5001,2.0971 -0.1107,0.3697 -0.096,0.4719 0.1216,0.8406 0.1938,0.3284 0.2327,0.5197 0.1788,0.8793 -0.056,0.374 -0.022,0.5189 0.1827,0.7793 0.1698,0.216 0.2525,0.474 0.2546,0.7945 0,0.2611 0.062,0.5336 0.1336,0.6054 0.072,0.072 0.1054,0.1964 0.075,0.2767 -0.058,0.1516 0.33,0.892 0.8747,1.6681 0.2439,0.3474 0.3375,0.6478 0.4172,1.3375 0.18,1.5602 0.323,1.9401 0.9694,2.5759 0.3782,0.3719 0.5942,0.683 0.6179,0.8899 0.031,0.2758 0.1811,0.3971 1.1193,0.9094 0.5956,0.3252 1.2564,0.6049 1.4685,0.6217 0.2122,0.017 0.5776,0.1629 0.8121,0.325 0.2345,0.1621 0.7674,0.449 1.1843,0.6376 0.6749,0.3054 0.7811,0.3974 0.9712,0.8409 0.1175,0.2739 0.2602,0.498 0.3173,0.498 0.1342,0 0.7958,1.0291 0.7958,1.2378 0,0.2643 0.5514,0.9911 0.9237,1.2175 0.1919,0.1167 0.4262,0.3705 0.5207,0.564 0.1246,0.2552 0.319,0.407 0.7076,0.5528 0.8639,0.3238 1.0878,0.6013 0.5869,0.727 -0.489,0.1228 -0.6551,0.4221 -0.5967,1.0753 0.082,0.9209 0.6836,2.19 1.5056,3.1776 0.3966,0.4765 0.7982,1.0169 0.8925,1.2007 0.094,0.184 0.3401,0.5227 0.5464,0.7527 0.2137,0.2386 0.3749,0.5379 0.3749,0.6967 0,0.3297 -0.1788,0.37 -0.2765,0.063 -0.1048,-0.3301 -0.7294,-0.4943 -1.2673,-0.3331 -0.556,0.1665 -0.9135,0.078 -1.3948,-0.3442 -0.4199,-0.3687 -0.6282,-0.4218 -0.6282,-0.1599 0,0.2681 0.7655,0.9156 1.5047,1.2727 0.4273,0.2065 0.7421,0.4474 0.8716,0.6674 0.2877,0.4881 0.6654,0.7086 1.064,0.6211 0.3164,-0.07 0.3372,-0.048 0.5698,0.5753 0.1328,0.3562 0.5842,1.2243 1.0033,1.9293 0.4191,0.7049 0.8134,1.4721 0.8762,1.7048 0.1924,0.7133 -0.2181,1.8386 -0.678,1.8583 -0.082,0.01 -1.0179,1.1921 -1.7319,2.1986 -0.201,0.2835 -0.3476,0.5693 -0.3257,0.6352 0.022,0.066 0.2426,0.1599 0.4903,0.2089 0.3221,0.064 0.5795,0.2269 0.904,0.5731 0.4463,0.4762 0.4654,0.484 1.1885,0.484 0.8593,0 0.8546,0.01 1.285,-1.3535 0.4016,-1.2671 0.4577,-1.2972 2.5754,-1.3803 0.9438,-0.037 1.9167,-0.065 2.1619,-0.062 0.9411,0.012 2.4966,0.2484 2.8563,0.434 0.8155,0.4209 2.9854,1.951 3.2059,2.2606 0.4768,0.6695 0.9039,1.73471 0.904,2.25431 1e-4,0.28 0.08,0.7792 0.1782,1.1091 0.1083,0.3645 0.1504,0.7551 0.1074,0.9955 -0.039,0.2176 -0.1195,0.68 -0.1792,1.0276 -0.059,0.3475 -0.2328,0.8993 -0.3849,1.2261 -0.1956,0.4202 -0.2769,0.7871 -0.2777,1.2537 0,0.3628 -0.056,0.9898 -0.1232,1.3932 -0.1075,0.6457 -0.1785,0.7871 -0.5923,1.1795 -0.2586,0.2452 -0.6758,0.7468 -0.9269,1.1146 -0.2514,0.3678 -0.6132,0.7691 -0.8043,0.8917 -0.1912,0.1226 -0.4252,0.34 -0.5201,0.4831 -0.1577,0.2377 -0.1555,0.2791 0.025,0.4793 0.1903,0.2103 0.1897,0.2352 -0.015,0.6151 -0.2696,0.5006 -0.8356,0.9705 -1.3646,1.1329 -0.337,0.1034 -0.4577,0.094 -0.6782,-0.05 -0.2114,-0.1384 -0.3257,-0.1496 -0.5384,-0.053 -0.1486,0.068 -0.3639,0.1231 -0.4785,0.1231 -0.1146,0 -0.3029,0.1296 -0.4183,0.2881 -0.1191,0.1634 -0.3727,0.3215 -0.5861,0.3651 -0.207,0.042 -0.3974,0.1405 -0.4234,0.2183 -0.061,0.1832 0.4251,0.078 1.0216,-0.2212 0.5782,-0.2898 0.6787,-0.1674 0.6892,0.8391 0.01,0.4452 0.043,0.8659 0.086,0.9349 0.044,0.072 -0.1924,0.3889 -0.5576,0.7453 l -0.6349,0.62 h -0.7556 c -0.6159,0 -0.8292,0.05 -1.1538,0.2702 -0.2189,0.1486 -0.3591,0.2933 -0.3114,0.3217 0.048,0.028 0.3982,0.087 0.7791,0.1303 0.5433,0.062 0.707,0.1249 0.7602,0.2926 0.046,0.1439 0.1653,0.2108 0.3665,0.2051 0.9041,-0.025 1.8964,0.5256 1.7294,0.9607 -0.088,0.2303 0.3513,0.206 1.1321,-0.063 0.6521,-0.2244 2.2959,-0.4856 3.1216,-0.4962 0.4347,-0.01 0.4467,0.01 0.48,0.4062 0.03,0.3621 -0.01,0.4331 -0.3064,0.588 -0.1875,0.097 -0.3409,0.2031 -0.3409,0.236 0,0.033 0.1297,0.3338 0.2881,0.6686 0.2228,0.4711 0.2718,0.7048 0.2162,1.0334 -0.1453,0.8598 -0.3676,1.0586 -1.8132,1.621 -1.6965,0.6599 -1.9361,0.8883 -2.0257,1.9316 l -0.065,0.7545 h -0.50148 c -0.2758,0 -0.6404,-0.039 -0.81,-0.086 -0.2664,-0.074 -0.3807,-0.018 -0.836,0.4048 -0.5841,0.5426 -1.1126,0.8361 -2.0322,1.1286 -0.9204,0.2929 -1.4677,0.6555 -1.8391,1.2185 -0.2111,0.3201 -0.4166,0.5073 -0.5573,0.5078 -0.2402,0 -1.0631,-0.265 -1.4337,-0.4634 -0.3381,-0.1809 -2.2709,-0.5348 -2.9234,-0.5353 -0.3121,0 -0.8137,0.074 -1.1146,0.1657 -0.301,0.091 -0.7739,0.1665 -1.051,0.1671 -0.2771,0 -0.8658,0.1016 -1.3082,0.2242 -0.4425,0.1226 -0.9205,0.2229 -1.0623,0.2229 -0.31,0 -0.5252,0.1933 -0.5252,0.4717 0,0.2779 -0.3003,0.3727 -0.5336,0.1683 -0.5668,-0.4966 -1.2718,-0.6284 -2.643,-0.4938 -0.5757,0.057 -1.0528,-0.1492 -1.6916,-0.7294 -0.3079,-0.2797 -0.4584,-0.1888 -0.3957,0.2388 0.043,0.2921 0.01,0.3439 -0.2694,0.4116 -0.1751,0.042 -0.4173,0.1453 -0.5383,0.2281 -0.1209,0.083 -0.3139,0.1506 -0.429,0.1506 -0.1149,0 -0.3564,0.1576 -0.5364,0.3504 -0.2921,0.3127 -0.3576,0.3367 -0.6073,0.2229 -0.4158,-0.1894 -1.2654,-0.1644 -1.3437,0.04 -0.046,0.1203 -0.2344,0.1672 -0.6708,0.1672 -0.3337,0 -0.7539,0.076 -0.9339,0.1692 -0.3267,0.1689 -0.5294,0.6023 -0.3884,0.8303 0.041,0.066 0.04,0.2744 0,0.4625 -0.055,0.2503 -0.1771,0.3846 -0.4554,0.5009 -0.3544,0.1481 -0.4162,0.1398 -0.9075,-0.1218 -0.3777,-0.2011 -0.6996,-0.2806 -1.1345,-0.2806 -0.334,0 -0.8948,-0.059 -1.2465,-0.1321 -0.4987,-0.103 -0.6751,-0.1022 -0.8027,0.01 -0.304,0.2523 -0.2981,0.566 0.016,0.8574 0.2306,0.2138 0.2709,0.3152 0.1816,0.4567 -0.1757,0.2785 -0.2883,0.2407 -0.4264,-0.1427 -0.2683,-0.7452 -2.4675,-2.2856 -3.6058,-2.5255 -0.4911,-0.1035 -0.6435,-0.093 -0.979,0.067 -0.2185,0.1042 -0.4879,0.1895 -0.5987,0.1895 -0.1107,0 -0.5871,0.099 -1.0586,0.2193 -0.6572,0.1681 -0.9831,0.3253 -1.3961,0.6736 -0.2964,0.2499 -0.7118,0.5021 -0.9232,0.5605 -0.3216,0.089 -0.4352,0.2127 -0.6964,0.759 -0.2539,0.5313 -0.2889,0.6961 -0.1879,0.8848 0.194,0.3625 0.148,0.5749 -0.1545,0.7128 -0.3438,0.1566 -0.3592,0.4563 -0.035,0.6719 0.2251,0.1495 0.2326,0.19 0.096,0.5191 -0.081,0.1964 -0.3643,0.5124 -0.6286,0.7022 -0.4506,0.3236 -0.7151,0.7699 -0.7151,1.2068 0,0.3327 -0.3721,0.5587 -0.9005,0.5467 -0.8476,-0.019 -1.0349,-0.1169 -1.1971,-0.6249 -0.1841,-0.5764 -0.787,-0.8837 -1.3492,-0.6877 -0.2845,0.099 -0.4024,0.079 -0.7325,-0.1249 -0.2163,-0.1338 -0.4472,-0.3437 -0.513,-0.4666 -0.1191,-0.2227 -0.1204,-0.2226 -0.368,0.01 -0.3111,0.2923 -0.381,0.2912 -0.7021,-0.01 -0.3834,-0.3601 -1.4496,-0.4208 -1.951,-0.111 -0.2931,0.1812 -0.5534,0.2278 -1.2601,0.2254 -0.4899,0 -0.9484,-0.05 -1.0188,-0.1083 -0.2257,-0.1856 -0.7017,0.3525 -0.8509,0.9622 -0.1277,0.5214 -0.1591,0.5573 -0.4862,0.5573 -0.1923,0 -0.4469,0.088 -0.5657,0.1951 -0.1187,0.1072 -0.2985,0.195 -0.3993,0.195 -0.1009,0 -0.2596,0.1473 -0.3527,0.3274 -0.2424,0.4687 -0.3611,0.5012 -0.5477,0.1497 l -0.1645,-0.3098 -0.188,0.4449 c -0.1977,0.4683 -0.2485,1.0755 -0.1211,1.4499 0.1147,0.3371 -0.3038,0.9474 -0.6497,0.9474 -0.1956,0 -0.3285,0.099 -0.4504,0.3343 -0.2184,0.4225 -0.3409,0.4208 -0.6017,-0.01 z m 36.8882,-9.4545 c -0.1337,-0.2499 -1.4804,-1.0146 -1.7867,-1.0146 -0.5368,0 -0.229,-0.5802 0.4156,-0.7833 0.2297,-0.072 0.6046,-0.2518 0.8332,-0.3987 0.4665,-0.2997 1.0075,-0.3377 1.4236,-0.1 0.1532,0.088 0.4078,0.161 0.5656,0.1633 0.3165,0.01 0.7719,0.4174 0.7719,0.7001 0,0.099 -0.1439,0.2827 -0.3197,0.4079 -0.1758,0.1252 -0.3835,0.3818 -0.4615,0.5702 -0.246,0.5937 -1.2056,0.8965 -1.442,0.4549 z m -37.011,-16.6191 c 0,-0.061 0.053,-0.1114 0.1181,-0.1114 0.065,0 0.087,0.05 0.049,0.1114 -0.038,0.061 -0.091,0.1115 -0.1181,0.1115 -0.027,0 -0.049,-0.05 -0.049,-0.1115 z m -5.868,-34.3882 c -0.036,-0.093 -0.3397,-0.352 -0.6753,-0.5748 -0.7522,-0.4992 -1.5068,-0.5571 -1.8216,-0.1398 -0.1529,0.2028 -0.2612,0.2378 -0.5771,0.1865 -0.2768,-0.045 -0.4815,0 -0.7112,0.1495 -0.1773,0.1169 -0.4629,0.2129 -0.6347,0.2133 -0.4382,0 -0.7139,-0.6345 -0.5346,-1.2329 0.067,-0.2246 0.1224,-0.4867 0.1224,-0.5825 0,-0.2601 -0.3019,-0.5121 -0.5391,-0.4501 -0.149,0.039 -0.3565,-0.1146 -0.7264,-0.5374 -0.4219,-0.4822 -0.5179,-0.6707 -0.5179,-1.0164 0,-0.2334 -0.098,-0.6166 -0.218,-0.8517 -0.211,-0.4135 -0.8103,-1.0127 -1.0129,-1.0127 -0.055,0 -0.3445,0.2132 -0.6444,0.4737 -0.2997999,0.2606 -0.6520999,0.5606 -0.7830999,0.6669 l -0.2379,0.1933 0.2339,0.4487 c 0.3133,0.6011 0.222,0.9217 -0.3236,1.136 -0.3295,0.1294 -0.4518,0.2539 -0.5352,0.5444 -0.094,0.3283 -0.1696,0.3888 -0.5881,0.4716 -0.3883,0.077 -0.5202,0.059 -0.6904,-0.095 -0.1802,-0.1631 -0.2585,-0.1705 -0.5457,-0.052 -0.5861,0.2428 -1.091,0.06 -1.7139,-0.62 -0.4008,-0.4376 -0.6341,-0.6041 -0.8463,-0.6041 -0.4049,0 -0.7469,-0.2666 -0.8217,-0.6406 -0.072,-0.361 -0.8357,-1.3637 -1.24,-1.6286 -0.2432,-0.1593 -0.8444,-1.1641 -0.8444,-1.411 0,-0.052 0.2042,-0.2099 0.4536,-0.3501 0.3185,-0.1791 0.4727,-0.35 0.5175,-0.5742 l 0.064,-0.3192 0.7599,0.076 0.76,0.076 0.616,-0.5403 c 0.6212,-0.5448 0.8079,-0.8939 0.4107,-0.7679 -0.2821,0.09 -0.7856,-0.1146 -1.1572,-0.4691 -0.3848,-0.3671 -0.3884,-0.6173 -0.012,-0.8638 0.248,-0.1626 0.3608,-0.1731 0.7157,-0.067 0.3569,0.1069 0.5083,0.092 0.9915,-0.099 0.3136,-0.1236 0.7188,-0.2247 0.9005,-0.2247 0.2969,0 0.3302,-0.036 0.3302,-0.3551 0,-0.2104 0.098,-0.4595 0.2406,-0.6112 0.1324,-0.1408 0.3254,-0.4968 0.429,-0.7909 0.14,-0.3977 0.448,-0.7983 1.2012,-1.5623 1.053,-1.0681 1.231,-1.1564 1.8548999,-0.9192 0.1567,0.059 0.3607,0.079 0.4533,0.044 0.2711,-0.104 0.7948,-0.965 0.8704,-1.431 0.093,-0.5734 0.1995,-0.6554 0.5882,-0.4527 0.4955,0.2584 1.2521,0.2114 1.7745,-0.1104 0.2452,-0.151 0.6021,-0.2748 0.7931,-0.2751 0.191,-5.3e-4 0.4772,-0.103 0.6362,-0.228 0.241,-0.1895 0.3873,-0.2158 0.8789,-0.158 0.3244,0.038 0.7904,0.1466 1.0356,0.2411 0.2452,0.094 0.6798,0.1648 0.9658,0.1563 0.4397,-0.013 0.556,0.03 0.7525,0.28 0.3627,0.4611 0.5079,1.0683 0.3583,1.4976 -0.173,0.4962 -0.167,0.519 0.1805,0.6873 0.261,0.1264 0.3065,0.2169 0.3065,0.6091 0,0.3135 0.076,0.5439 0.2369,0.7215 0.1303,0.1434 0.3016,0.3862 0.3806,0.5394 0.2483,0.4813 0.9266,1.2261 1.1165,1.2261 0.5007,0 0.8136,0.9914 0.4873,1.5439 -0.1972,0.3337 -0.3432,0.4318 -1.026,0.6888 -0.4158,0.1565 -0.8568,0.7042 -0.7633,0.9478 0.09,0.2342 0.2273,0.2039 0.6365,-0.1405 0.2895,-0.2436 0.518,-0.3185 1.1511,-0.3774 1.0632,-0.099 1.5127,0.1308 1.515,0.7739 4e-4,0.1023 0.071,0.3198 0.1559,0.4834 0.085,0.1636 0.1917,0.5136 0.2363,0.7778 0.044,0.2642 0.1533,0.5904 0.2414,0.7248 0.1297,0.198 0.1362,0.3364 0.034,0.727 -0.2599,0.9972 -0.3669,1.2702 -0.6044,1.5413 -0.1343,0.1532 -0.3644,0.462 -0.5114,0.6861 -0.3801,0.5797 -0.727,0.7543 -1.3574,0.683 -1.0183,-0.1151 -1.4278,0.1508 -1.4278,0.9274 0,0.7021 -0.2228,1.153 -0.8364,1.6932 -0.5648,0.4971 -0.8017,0.5751 -0.9076,0.2989 z m 12.1678,0.044 c -0.1827,-0.05 -0.5257,-0.061 -0.7622,-0.023 l -0.4302,0.069 0.304,-0.5999 c 0.1672,-0.3299 0.3347,-0.8507 0.3722,-1.1573 0.059,-0.4867 0.1199,-0.591 0.4765,-0.8216 0.3694,-0.2391 0.7181,-0.8229 1.018,-1.7044 0.1393,-0.4095 1.4463,-1.1127 1.6638,-0.8952 0.052,0.052 0.043,0.2315 -0.021,0.3988 -0.1809,0.4758 -0.1433,0.6098 0.2799,0.9976 l 0.3955,0.3622 -0.2444,0.2172 c -0.1344,0.1195 -0.3567,0.4681 -0.494,0.7745 -0.1372,0.3066 -0.3556,0.6529 -0.4854,0.7696 -0.1298,0.1168 -0.2359,0.2795 -0.2359,0.3614 0,0.082 -0.1871,0.2372 -0.4158,0.345 -0.2287,0.1078 -0.5171,0.3564 -0.6409,0.5526 -0.2737,0.4333 -0.3557,0.4705 -0.7802,0.3535 z m -4.9944,-20.6072 c -0.1575,-0.1239 -0.3579,-0.4608 -0.4476,-0.7524 -0.6115,-1.9884 -0.6235,-2.1795 -0.1727,-2.7526 0.3457,-0.4395 0.8975,-0.6536 1.2595,-0.4887 0.4082,0.186 0.7728,1.0008 0.6978,1.5595 -0.048,0.3547 -0.01,0.5303 0.2132,0.8495 0.166,0.2447 0.2423,0.4705 0.1946,0.5762 -0.043,0.096 -0.082,0.3291 -0.087,0.5187 -0.014,0.5274 -0.2343,0.7141 -0.8436,0.7141 -0.361,0 -0.6191,-0.071 -0.8138,-0.2243 z m -8.542,-2.3015 c -0.3186,-0.2231 -0.2364,-0.6579 0.1914,-1.0123 0.2855,-0.2365 0.2928,-0.2658 0.1347,-0.5397 -0.092,-0.1594 -0.2926,-0.3643 -0.4459,-0.4554 -0.2661,-0.1583 -0.3006,-0.1453 -0.7708,0.289 -0.783,0.723 -1.1444,0.5194 -0.6315,-0.3558 0.1583,-0.2701 0.2878,-0.6512 0.2878,-0.8471 0,-0.7729 0.7463,-1.7795 1.2262,-1.654 0.1533,0.04 0.4661,-0.075 0.8928,-0.3296 0.6993,-0.4166 0.8904,-0.4112 0.8904,0.025 0,0.3707 0.181,0.3422 0.3895,-0.061 0.095,-0.1833 0.2968,-0.4148 0.4487,-0.5143 0.1833,-0.1201 0.2764,-0.2844 0.2764,-0.4876 0,-0.4333 0.3049,-0.7714 1.4048,-1.5583 1.4353,-1.0266 1.6618,-0.761 0.6713,0.7871 -0.3294,0.5149 -0.7148,1.2665 -0.8563,1.6703 -0.1864,0.5318 -0.3419,0.7826 -0.5641,0.9102 -0.2365,0.1357 -0.3148,0.2739 -0.3419,0.6033 -0.035,0.4228 -0.04,0.4274 -0.5075,0.4274 -0.5336,0 -0.5417,0.021 -0.2968,0.7577 0.098,0.2942 0.149,0.6453 0.1141,0.7803 -0.093,0.3578 -1.0392,1.0813 -1.4148,1.0813 -0.2137,0 -0.3337,0.07 -0.3823,0.2231 -0.1113,0.3504 -0.425,0.4646 -0.7162,0.2606 z m 4.4501,-1.1184 c 0,-0.317 0.4901,-0.9257 0.7454,-0.9257 0.1977,0 0.1854,0.1063 -0.082,0.7103 -0.159,0.3595 -0.2941,0.5158 -0.4458,0.5158 -0.1621,0 -0.2178,-0.077 -0.2178,-0.3004 z m -3.7673,-5.2949 c -0.2572,-0.2572 -0.149,-0.7404 0.2693,-1.2035 0.4084,-0.452 0.7115,-0.5753 0.7115,-0.2894 0,0.2342 -0.6448,1.6266 -0.7532,1.6266 -0.052,0 -0.1541,-0.06 -0.2276,-0.1337 z m -5.2801,-6.558 c -0.1025,-0.06 -0.2201,-0.2622 -0.2613,-0.4499 -0.1016,-0.4628 0.1817,-0.7705 0.7157,-0.777 0.2204,-0.01 0.6014,-0.077 0.8465,-0.1655 0.5729,-0.2064 0.613,-0.204 0.613,0.036 0,0.2468 -0.2086,0.4682 -0.4413,0.4682 -0.095,0 -0.2364,0.1003 -0.313,0.2229 -0.077,0.1226 -0.2403,0.2229 -0.3639,0.2229 -0.1372,0 -0.2661,0.1086 -0.3307,0.2787 -0.1155,0.3037 -0.1833,0.3275 -0.465,0.1631 z m 2.1369,-1.7212 c 0,-0.1728 1.0587,-1.279 1.4002,-1.4629 0.4339,-0.2337 0.5507,-0.1715 0.4479,0.2383 -0.1274,0.5077 -0.8391,1.1417 -1.3744,1.2244 -0.2605,0.04 -0.4737,0.04 -0.4737,2e-4 z m -7.3886999,-3.6248 c 0.032,-0.1226 0.077,-0.223 0.101,-0.223 0.023,0 0.043,0.1004 0.043,0.223 0,0.1226 -0.046,0.2229 -0.101,0.2229 -0.055,0 -0.075,-0.1003 -0.043,-0.2229 z m 11.0218999,0.018 c -0.038,-0.063 -0.016,-0.147 0.051,-0.1881 0.1713,-0.1059 0.2819,0.039 0.1389,0.1823 -0.08,0.08 -0.1425,0.082 -0.1895,0.01 z m 0.5131,-0.7085 c -0.2055,-0.2055 -0.1631,-0.3537 0.2014,-0.7029 0.4527,-0.4337 0.6543,-0.2637 0.4594,0.3873 -0.1393,0.4646 -0.3913,0.585 -0.6608,0.3156 z m -10.8577999,-0.6872 c -0.3659,-0.278 0.01,-1.4197 0.6641,-2.0491 0.3425,-0.3267 0.42,-0.3167 0.5825,0.075 0.1824,0.4406 0.074,0.7139 -0.4485,1.1276 -0.332,0.2628 -0.4399,0.4281 -0.4399,0.6733 0,0.3571 -0.071,0.3912 -0.3582,0.1728 z m 9.4411999,-0.4781 c -0.1067,-0.1628 -0.3256,-0.4143 -0.4865,-0.5589 l -0.2927,-0.2628 0.4366,-0.3886 c 0.2401,-0.2137 0.5507,-0.3886 0.6903,-0.3886 0.546,0 0.7884,0.9298 0.4096,1.5712 -0.2381,0.403 -0.505,0.4127 -0.7573,0.028 z m -1.1191,-1.4965 c -0.041,-0.066 -0.1944,-0.09 -0.341,-0.053 -0.1923,0.048 -0.2665,0.02 -0.2665,-0.1003 0,-0.224 0.5156,-0.3449 0.726,-0.1703 0.1842,0.1529 0.2241,0.4447 0.061,0.4447 -0.057,0 -0.1383,-0.054 -0.1793,-0.1205 z m -6.2919,-0.59739 c 0,-0.088 0.05,-0.1916 0.1114,-0.2295 0.061,-0.038 0.1114,0.035 0.1114,0.1606 0,0.1263 -0.05,0.2295 -0.1114,0.2295 -0.061,0 -0.1114,-0.072 -0.1114,-0.1606 z m -0.045,-0.496 c -0.3767999,-0.059 -0.4538999,-0.122 -0.5742999,-0.4713 -0.2572,-0.7463 -0.3103,-1.9984 -0.1052,-2.4828 0.1327,-0.3133 0.1631,-0.5847 0.1094,-0.9753 -0.063,-0.4557 -0.046,-0.5411 0.1067,-0.5411 0.2718,0 0.3261,-0.2806 0.1162,-0.6008 -0.1766,-0.2696 -0.1745,-0.2994 0.041,-0.5734 0.3170999,-0.4031 0.1009,-0.9107 -0.6888,-1.6172 -0.4844,-0.4334 -0.4767,-0.5858 0.055,-1.0681 0.3399,-0.3086 1.2804999,-0.4266 1.4194999,-0.1782 0.1507,0.2692 0.4565,0.074 0.6482,-0.4143 0.095,-0.2417 0.2433,-0.4666 0.3297,-0.4998 0.1947,-0.075 0.3319,0.2431 0.1734,0.4016 -0.1757,0.1756 0.06,0.7373 0.3467,0.8267 0.1328,0.041 0.2742,0.1263 0.3142,0.1885 0.075,0.1172 -0.167,0.9154 -0.3424,1.1289 -0.055,0.067 -0.1355,0.3622 -0.1793,0.6569 -0.058,0.3883 -0.1533,0.584 -0.3469,0.7107 -0.2427,0.1592 -0.2602,0.2258 -0.1926,0.7354 l 0.074,0.5605 -0.351,-0.07 c -0.2927,-0.059 -0.3511,-0.036 -0.3511,0.1362 0,0.1136 0.069,0.2636 0.1528,0.3334 0.2829,0.2347 0.2963,0.9748 0.027,1.4914 -0.2651,0.5089 -0.3093,1.5258 -0.085,1.9456 0.1101,0.2055 -0.021,0.5065 -0.2012,0.4602 -0.034,-0.01 -0.2571,-0.046 -0.4965,-0.083 z m -2.4631999,-6.5891 c -0.084,-0.1361 0.2217,-0.2708 0.3853,-0.1697 0.064,0.04 0.1168,0.1194 0.1168,0.1771 0,0.1405 -0.4144,0.1345 -0.5021,-0.01 z m 5.3403999,-2.9529 c -0.1005,-0.1533 -0.2521,-0.2787 -0.337,-0.2787 -0.085,0 -0.1544,-0.097 -0.1544,-0.2163 0,-0.119 -0.05,-0.2473 -0.1115,-0.2852 -0.061,-0.038 -0.1114,-0.147 -0.1114,-0.2425 0,-0.1218 0.07,-0.1552 0.2352,-0.1121 0.164,0.043 0.3183,-0.029 0.5095,-0.2378 0.6095,-0.6653 0.7615,-0.8009 0.897,-0.8009 0.2282,0 0.1629,-0.3069 -0.1053,-0.4947 -0.1358,-0.095 -0.4046,-0.2025 -0.5973,-0.2387 -0.2299,-0.043 -0.49,-0.2327 -0.7562,-0.5512 -0.5807,-0.6947 -0.5313,-0.8478 0.1793,-0.5552 0.2895,0.1192 0.2555,-0.3244 -0.046,-0.6057 -0.2797,-0.2606 -0.3174,-0.7893 -0.097,-1.3598 0.4874,-1.2605 0.4655,-1.2322 0.8925,-1.1524 0.4765,0.089 0.6846,0.2458 0.6454,0.4863 -0.023,0.1459 0.064,0.1758 0.4616,0.1574 0.6507,-0.031 0.7787,-0.1691 0.5356,-0.5807 -0.2919,-0.4941 -0.2487,-0.8811 0.116,-1.0375 0.1685,-0.072 0.4318,-0.2144 0.5851,-0.3158 0.1533,-0.1012 0.4186,-0.218 0.5897,-0.2594 0.171,-0.041 0.5974,-0.3378 0.9474,-0.6588 0.35,-0.321 0.8119,-0.7038 1.0265,-0.8506 0.2146,-0.1469 0.5272,-0.393 0.6947,-0.5469 0.2953,-0.2712 0.3114,-0.2735 0.5273,-0.078 0.2987,0.2705 0.4006,0.8917 0.2428,1.4817 -0.086,0.3209 -0.093,0.5514 -0.021,0.6856 0.084,0.1577 0.044,0.2605 -0.1813,0.4683 -0.3834,0.3526 -0.928,1.1002 -0.928,1.2741 0,0.2858 0.373,0.2774 0.7996,-0.018 0.4982,-0.3453 0.624,-0.296 0.4313,0.1689 -0.2225,0.5372 -0.5111,0.7395 -0.8408,0.5893 -0.3899,-0.1777 -0.8359,0.01 -0.8359,0.3422 0,0.1412 -0.078,0.3673 -0.1722,0.5025 -0.1184,0.169 -0.1402,0.3072 -0.07,0.4427 0.056,0.1084 0.1359,0.4302 0.1772,0.7152 0.071,0.4877 0.055,0.5324 -0.2644,0.7599 -0.1867,0.133 -0.3395,0.3159 -0.3395,0.4065 0,0.2675 -0.4989,0.6875 -0.9659,0.8133 -0.666,0.1793 -0.8729,0.367 -0.7198,0.653 0.2255,0.4212 -0.1032,0.4385 -0.4495,0.023 -0.3526,-0.4224 -0.535,-0.3763 -0.326,0.082 0.1233,0.2706 0.1117,0.3261 -0.1057,0.5021 -0.1343,0.1088 -0.3333,0.1978 -0.442,0.1978 -0.1088,0 -0.2875,0.1369 -0.3972,0.3044 -0.2405,0.3669 -0.6118,0.69 -0.7989,0.695 -0.075,0 -0.2189,-0.1216 -0.3194,-0.2749 z m -1.8851,-0.3909 c -0.039,-0.062 0.011,-0.1432 0.1097,-0.181 0.2134,-0.082 0.3323,0.01 0.2297,0.1744 -0.093,0.1497 -0.2491,0.1528 -0.3394,0.01 z M -5.0857641e-5,178.75857 c 0,-0.061 0.04999999764,-0.1114 0.111399997641,-0.1114 0.061,0 0.1115,0.05 0.1115,0.1114 0,0.061 -0.05,0.1115 -0.1115,0.1115 -0.061,0 -0.111399997641,-0.05 -0.111399997641,-0.1115 z M 12.706449,178.63177 l -0.2787,-0.1121 0.2676,-0.2186 c 0.3272,-0.2671 0.5126,-0.2226 0.5126,0.1232 0,0.3081 -0.1237,0.3593 -0.5015,0.2075 z m 31.7918,-12.1528 c -0.076,-0.075 -0.1371,-0.2359 -0.1371,-0.3567 0,-0.1209 -0.087,-0.3163 -0.1941,-0.4343 -0.1857,-0.2051 -0.1821,-0.2235 0.084,-0.4255 0.1527,-0.1162 0.3863,-0.319 0.5191,-0.4508 0.1415,-0.1404 0.3145,-0.2115 0.418,-0.1718 0.2263,0.087 0.2225,0.2247 -0.018,0.6655 -0.1073,0.1962 -0.195,0.5561 -0.195,0.7998 0,0.4697 -0.213,0.6369 -0.4761,0.3738 z m -2.5613,-0.6625 c -0.077,-0.079 -0.1398,-0.1959 -0.1404,-0.2603 0,-0.065 -0.1762,-0.3373 -0.3902,-0.6065 -0.214,-0.2691 -0.389,-0.5575 -0.389,-0.6408 0,-0.2003 0.4032,-0.5974 0.6064,-0.5974 0.2877,0 0.3141,-0.2336 0.057,-0.5069 -0.2351,-0.2502 -0.247,-0.3341 -0.1846,-1.3014 0.06,-0.9341 0.095,-1.0581 0.3573,-1.2848 0.335,-0.289 0.8192,-0.3225 1.2727,-0.088 0.383,0.1981 0.4798,0.1264 0.3158,-0.2337 -0.097,-0.2136 -0.089,-0.3064 0.038,-0.4341 0.1423,-0.1422 0.2379,-0.1348 0.7706,0.06 0.3345,0.1223 0.6247,0.2223 0.645,0.2223 0.02,0 0.021,0.1379 0,0.3065 -0.026,0.2191 -0.1379,0.3542 -0.3951,0.4737 -0.3714,0.1726 -0.4925,0.4458 -0.1975,0.4458 0.2001,0 0.2027,0.024 0.043,0.3727 -0.068,0.1494 -0.2435,0.3358 -0.39,0.4142 -0.1465,0.078 -0.2664,0.1778 -0.2664,0.2209 0,0.1108 0.8386,0.2317 1.0485,0.1511 0.1189,-0.046 0.2093,0.025 0.284,0.221 0.094,0.2475 0.1569,0.2784 0.4473,0.2203 0.2161,-0.043 0.3379,-0.022 0.3379,0.058 0,0.069 0.1755,0.1254 0.3902,0.1254 0.3383,0 0.3901,0.036 0.3901,0.2696 0,0.1878 -0.1183,0.3426 -0.3901,0.5107 -0.2146,0.1325 -0.3902,0.2817 -0.3902,0.3315 0,0.3459 -1.0462,0.059 -1.1665,-0.3195 -0.1359,-0.4281 -0.3426,-0.4886 -0.8267,-0.2416 -0.7405,0.3777 -1.3505,0.2657 -1.3505,-0.2479 0,-0.1184 -0.061,-0.1896 -0.1394,-0.1634 -0.2037,0.068 -0.106,0.7754 0.1348,0.9752 0.1108,0.092 0.2592,0.2801 0.3298,0.418 0.096,0.1871 0.2265,0.2508 0.5147,0.2508 0.4633,0 0.4876,0.1552 0.094,0.6024 -0.2187,0.2488 -0.4052,0.3349 -0.8046,0.3718 -0.3342,0.031 -0.5697,-0.01 -0.6593,-0.095 z m 2.9933,-3.707 c -0.1445,-0.174 -0.052,-0.515 0.1394,-0.5173 0.07,0 0.2403,-0.031 0.3783,-0.069 0.2262,-0.061 0.2508,-0.028 0.2508,0.3359 0,0.3698 -0.027,0.4031 -0.3208,0.4031 -0.1763,0 -0.3779,-0.069 -0.4477,-0.153 z m 2.2745,-0.6958 c -0.1421,-0.1038 -0.2493,-0.1182 -0.3242,-0.044 -0.061,0.061 -0.152,0.1118 -0.201,0.1118 -0.1473,0 -0.1004,-0.4091 0.063,-0.5443 0.089,-0.074 0.1287,-0.2458 0.096,-0.4148 -0.08,-0.418 0.2844,-0.3177 0.6119,0.1683 0.4124,0.6119 0.2514,1.0857 -0.2455,0.7223 z m -1.5758,-1.219 c -0.1403,-0.214 -0.1547,-0.316 -0.058,-0.4123 0.07,-0.07 0.128,-0.2405 0.128,-0.3778 0,-0.2533 0.1827,-0.4518 0.3041,-0.3304 0.037,0.037 0.079,0.3675 0.094,0.7356 0.031,0.7504 -0.1377,0.8895 -0.4682,0.3849 z m 0.7386,-0.5919 c 0,-0.1141 0.1504,-0.397 0.3343,-0.6284 0.1839,-0.2314 0.3344,-0.4857 0.3344,-0.5651 0,-0.188 0.4772,-0.3437 0.5338,-0.1741 0.059,0.1782 0.2509,0.1566 0.4843,-0.055 0.1098,-0.099 0.2768,-0.1511 0.3709,-0.115 0.2488,0.095 0.2115,0.4072 -0.049,0.4072 -0.1316,0 -0.2893,0.1339 -0.3922,0.3328 -0.1545,0.2988 -0.506,0.4955 -0.7882,0.4411 -0.2408,-0.046 -0.3542,0.021 -0.4741,0.285 -0.1491,0.3271 -0.3546,0.3683 -0.3546,0.071 z m -1.5062,-0.712 c -0.082,-0.187 -0.1864,-0.2418 -0.4107,-0.2157 -0.2523,0.029 -0.3363,-0.035 -0.5237,-0.4025 l -0.2233,-0.4376 0.3197,-0.3063 c 0.3427,-0.3284 0.618,-0.2899 0.523,0.073 -0.035,0.1354 0.028,0.2897 0.1662,0.4054 0.2616,0.2188 0.5403,0.7149 0.5403,0.9616 0,0.2603 -0.2664,0.2072 -0.3915,-0.078 z m -0.1107,-1.3106 c -0.09,-0.1452 0.04,-0.5563 0.1753,-0.5563 0.057,0 0.104,0.1504 0.104,0.3343 0,0.329 -0.143,0.4426 -0.2793,0.222 z m 3.5116,-0.5497 c 0,-0.2584 0.2001,-0.4084 0.3478,-0.2608 0.1399,0.14 0.01,0.4771 -0.1925,0.4771 -0.085,0 -0.1553,-0.097 -0.1553,-0.2163 z m 5.8613,-2.2204 c -0.099,-0.1601 0.048,-0.4613 0.2252,-0.4613 0.085,0 0.1553,0.069 0.1553,0.1536 0,0.207 -0.2952,0.4458 -0.3805,0.3077 z"
       id="path38057"
       inkscape:connector-curvature="0" />
  </g>
</svg>
