<?xml version="1.0" encoding="UTF-8" standalone="no"?>
<!-- Created with Inkscape (http://www.inkscape.org/) -->

<svg
   xmlns:dc="http://purl.org/dc/elements/1.1/"
   xmlns:cc="http://creativecommons.org/ns#"
   xmlns:rdf="http://www.w3.org/1999/02/22-rdf-syntax-ns#"
   xmlns:svg="http://www.w3.org/2000/svg"
   xmlns="http://www.w3.org/2000/svg"
   xmlns:sodipodi="http://sodipodi.sourceforge.net/DTD/sodipodi-0.dtd"
   xmlns:inkscape="http://www.inkscape.org/namespaces/inkscape"
   width="18.150999mm"
   height="26.864mm"
   viewBox="0 0 18.150999 26.864"
   version="1.1"
   id="svg34144"
   inkscape:version="0.92.2 (5c3e80d, 2017-08-06)"
   sodipodi:docname="hot-air-balloon.svg">
  <defs
     id="defs34138" />
  <sodipodi:namedview
     id="base"
     pagecolor="#ffffff"
     bordercolor="#666666"
     borderopacity="1.0"
     inkscape:pageopacity="0.0"
     inkscape:pageshadow="2"
     inkscape:zoom="0.49497475"
     inkscape:cx="-244.99129"
     inkscape:cy="462.08998"
     inkscape:document-units="mm"
     inkscape:current-layer="layer1"
     showgrid="false"
     inkscape:window-width="1680"
     inkscape:window-height="987"
     inkscape:window-x="-8"
     inkscape:window-y="-8"
     inkscape:window-maximized="1" />
  <metadata
     id="metadata34141">
    <rdf:RDF>
      <cc:Work
         rdf:about="">
        <dc:format>image/svg+xml</dc:format>
        <dc:type
           rdf:resource="http://purl.org/dc/dcmitype/StillImage" />
        <dc:title></dc:title>
      </cc:Work>
    </rdf:RDF>
  </metadata>
  <g
     inkscape:label="Layer 1"
     inkscape:groupmode="layer"
     id="layer1"
     transform="translate(0,-270.136)">
    <g
       style="fill:#cccccc;fill-opacity:1;stroke-width:5.38464212"
       transform="matrix(0.06225127,0,0,0.06225127,-4.2453602,270.24714)"
       id="g34059">
      <path
         sodipodi:type="inkscape:offset"
         inkscape:radius="1.7848113"
         inkscape:original="M 214.9668 0 C 214.9668 0 212.75319 0.012671875 212.74219 0.013671875 C 174.97319 0.34067188 139.36642 15.327359 112.35742 42.318359 C 85.033422 69.623359 69.984375 105.73305 69.984375 143.99805 C 69.984375 185.51305 87.916687 225.02072 119.17969 252.38672 C 146.24469 276.07772 166.98144 307.28472 179.14844 342.63672 L 180.4082 346.29883 C 180.9462 347.86283 182.3912 348.91937 184.0332 348.98438 L 193.77539 388.16797 L 187.28125 388.16797 C 185.07225 388.16797 183.28125 389.95897 183.28125 392.16797 L 183.28125 423.9707 C 183.28125 426.1797 185.07225 427.9707 187.28125 427.9707 L 240.68945 427.9707 C 242.89845 427.9707 244.68945 426.1797 244.68945 423.9707 L 244.68945 392.16797 C 244.68945 389.95897 242.89845 388.16797 240.68945 388.16797 L 234.19531 388.16797 L 243.9375 348.98438 C 245.5795 348.91938 247.0245 347.86478 247.5625 346.30078 L 248.82227 342.64062 C 260.68727 308.16663 281.88881 276.54527 310.13281 251.19727 C 340.54381 223.90427 357.98633 184.83109 357.98633 143.99609 C 357.98533 105.70309 343.11991 69.656094 316.12891 42.496094 C 289.15091 15.347094 253.2238 0.255 214.9668 0 z M 213.98438 8 L 214.11719 8 C 215.28119 8.059 218.32166 9.0914531 222.34766 17.064453 C 225.73066 23.764453 228.92122 33.823297 231.57422 46.154297 C 237.19822 72.294297 240.29688 107.043 240.29688 144 C 240.29688 183.39 236.66689 221.0352 230.33789 247.2832 C 225.69989 266.5292 221.96933 288.82008 219.23633 313.58008 L 208.75 313.58008 C 206.026 288.41408 202.3832 266.50288 197.9082 248.42188 C 191.4052 222.09088 187.67578 184.03 187.67578 144 C 187.67578 107.083 190.80805 72.283766 196.49805 46.009766 C 202.99405 16.014766 210.54937 8.004 213.98438 8 z M 227.35742 9.6835938 C 267.88642 20.003594 299.03516 76.455 299.03516 144 C 299.03516 182.884 288.51864 220.0282 270.18164 245.9082 C 256.29164 265.5092 245.1635 288.26808 237.0625 313.58008 L 227.2832 313.58008 C 229.9702 289.50608 233.60928 267.8512 238.11328 249.1582 C 244.58428 222.3232 248.29492 183.994 248.29492 144 C 248.29492 106.494 245.13448 71.146703 239.39648 44.470703 C 236.00248 28.692703 231.97542 17.081594 227.35742 9.6835938 z M 200.67188 9.6992188 C 196.08787 17.073219 192.07864 28.630406 188.68164 44.316406 C 182.87464 71.129406 179.67578 106.53295 179.67578 144.00195 C 179.67578 184.65095 183.49058 223.4088 190.14258 250.3418 C 194.48158 267.8738 198.03008 289.13303 200.70508 313.58203 L 190.97461 313.58203 L 190.97461 313.58008 C 182.89061 287.87708 172.0098 265.4923 158.5918 247.0293 C 139.7448 221.0883 128.93555 183.536 128.93555 144 C 128.93555 107.86 137.88948 73.722 154.14648 47.875 C 167.04848 27.363 183.23788 14.173219 200.67188 9.6992188 z M 174.16211 13.978516 C 142.76011 37.223516 120.93359 86.956 120.93359 144 C 120.93359 185.188 132.30014 224.45442 152.11914 251.73242 C 164.61114 268.92342 174.84698 289.71103 182.58398 313.58203 L 175.70312 313.58203 C 162.99812 287.77003 145.58427 264.86723 124.44727 246.36523 C 94.919266 220.51723 77.984375 183.20705 77.984375 143.99805 C 77.984375 107.87105 92.200719 73.770562 118.01172 47.976562 C 134.03272 31.967562 153.25111 20.428516 174.16211 13.978516 z M 254.30664 14.044922 C 275.30664 20.532922 294.53108 32.109766 310.45508 48.134766 C 335.94608 73.786766 349.98438 107.83009 349.98438 143.99609 C 349.98438 182.56209 333.51011 219.46519 304.78711 245.24219 C 282.91811 264.86919 265.12558 288.14308 252.39258 313.58008 L 245.46484 313.58008 C 253.24284 290.02608 263.73798 268.8372 276.70898 250.5332 C 295.98198 223.3322 307.03516 184.503 307.03516 144 C 307.03516 106.02 297.6222 70.212781 280.5332 43.175781 C 272.8332 30.993781 263.96864 21.204922 254.30664 14.044922 z M 179.42773 321.58008 L 248.60156 321.58008 C 245.87356 327.63108 243.40981 333.78416 241.25781 340.03516 L 240.92578 340.99609 L 187.04297 340.99609 L 186.71094 340.03125 C 184.54794 333.74525 182.10273 327.59708 179.42773 321.58008 z M 192.2793 348.99609 L 209.98438 348.99609 L 209.98438 388.16797 L 202.01758 388.16797 L 192.2793 348.99609 z M 217.98438 348.99609 L 235.68945 348.99609 L 225.95117 388.16797 L 217.98438 388.16797 L 217.98438 348.99609 z M 191.28125 396.16602 L 236.6875 396.16602 L 236.6875 419.96875 L 191.28125 419.96875 L 191.28125 396.16602 z "
         style="fill:#cccccc;fill-opacity:1;stroke-width:5.38464212"
         id="path34027"
         d="m 214.95703,-1.7851562 c 0,0 -2.33131,0.020304 -2.36523,0.021484 C 174.41083,-1.3979204 138.39345,13.777081 111.0957,41.056641 83.446953,68.686167 68.199219,105.26509 68.199219,143.99805 c 0,42.02896 18.155611,82.02847 49.804691,109.73242 26.82048,23.47696 47.38792,54.41877 59.45703,89.48633 l 1.25976,3.66211 c 0.6188,1.79889 2.08819,3.10227 3.84961,3.62109 l 8.92188,35.88281 h -4.21094 c -3.17372,0 -5.78516,2.61144 -5.78516,5.78516 v 31.80273 c 0,3.17372 2.61144,5.78516 5.78516,5.78516 h 53.4082 c 3.17372,0 5.78516,-2.61144 5.78516,-5.78516 v -31.80273 c 0,-3.17372 -2.61144,-5.78516 -5.78516,-5.78516 h -4.21093 L 245.40039,350.5 c 1.76105,-0.5182 3.23069,-1.8199 3.84961,-3.61914 l 1.25977,-3.66016 c 11.76137,-34.1729 32.78915,-65.54359 60.81445,-90.69531 30.78871,-27.63198 48.44726,-67.18605 48.44726,-108.5293 C 359.77047,105.24121 344.71115,68.725935 317.39453,41.238281 290.0912,13.761883 253.69743,-1.5270774 214.97852,-1.7851562 a 1.7849897,1.7849897 0 0 0 -0.0215,0 z m -0.97265,11.5703124 c 0.0163,0 0.0651,0 0.0488,0 0.27991,0.015361 2.83905,0.3968468 6.72071,8.0839848 3.26255,6.461448 6.44308,16.4217 9.07617,28.660156 5.58394,25.953815 8.68164,60.613473 8.68164,97.470703 0,39.28035 -3.63391,76.84409 -9.9082,102.86523 -4.55556,18.9039 -8.19993,40.777 -10.92188,64.92969 h -7.34961 C 207.62196,287.2582 204.04395,265.786 199.64062,247.99414 v -0.002 C 193.19579,221.89571 189.46094,183.91828 189.46094,144 c 0,-36.81604 3.13157,-71.525474 8.78125,-97.613281 3.22466,-14.889725 6.71105,-24.255144 9.71484,-29.775391 1.5019,-2.760123 2.88697,-4.554071 3.98438,-5.589844 1.09664,-1.0350481 1.87643,-1.2358554 2.04297,-1.2363278 z m -16.92969,2.9492188 c -3.8572,7.554414 -7.21861,17.8206 -10.11719,31.205078 -5.84709,26.998127 -9.04687,62.491917 -9.04688,100.062497 0,40.76067 3.81005,79.60183 10.51954,106.76758 a 1.7849897,1.7849897 0 0 0 0,0.002 c 4.18761,16.92033 7.61176,37.52289 10.25195,61.0254 h -6.42578 C 184.1467,286.47754 173.36137,264.31717 160.03516,245.98047 141.47885,220.43958 130.7207,183.21069 130.7207,144 c 0,-35.8452 8.90034,-69.676353 24.9375,-95.173828 11.69792,-18.597714 26.05146,-30.854298 41.39649,-36.091797 z m 33.94922,0.02734 c 17.95834,6.101588 34.02392,21.581668 45.82031,43.466797 C 289.51385,79.770837 297.25,110.50186 297.25,144 c 0,38.56219 -10.46802,75.39161 -28.52539,100.87695 -13.77349,19.43659 -24.80085,41.95757 -32.91602,66.91797 h -6.47851 c 2.65598,-23.17992 6.16597,-44.15824 10.51758,-62.21875 C 246.373,222.51582 250.08008,184.1044 250.08008,144 c 0,-37.60626 -3.16163,-73.043128 -8.93946,-99.904297 -2.89198,-13.444252 -6.26066,-23.751989 -10.13671,-31.333984 z m -65.89258,6.53125 C 137.47387,45.016517 119.14844,91.433363 119.14844,144 c 0,41.51637 11.42033,81.10685 31.52734,108.78125 11.94262,16.43497 21.77607,36.30422 29.36524,59.01563 h -3.25586 c -12.76108,-25.6047 -30.1174,-48.35418 -51.16211,-66.7754 -29.142007,-25.5101 -45.853519,-62.32836 -45.853519,-101.02343 0,-35.65878 14.017463,-69.290112 39.503909,-94.759769 13.31746,-13.307489 28.94434,-23.263731 45.83789,-29.945312 z m 98.27148,0.08203 c 16.94776,6.712695 32.57086,16.697847 45.80664,30.017578 25.16542,25.324359 39.00977,58.899382 39.00977,94.603512 0,38.05772 -16.25824,74.47995 -44.60352,99.91797 -21.74724,19.51773 -39.47575,42.62713 -52.27539,67.88086 h -3.29687 c 7.64101,-22.44227 17.7256,-42.70828 30.14258,-60.23047 19.55011,-27.59211 30.65429,-66.73674 30.65429,-107.56445 0,-38.2749 -9.46819,-74.388951 -26.77929,-101.777344 -5.62887,-8.9053 -11.90274,-16.522223 -18.65821,-22.847656 z m -81.33398,303.99023 h 63.92383 c -2.31376,5.29612 -4.52529,10.63569 -6.40235,16.08789 l 0.084,-0.24218 h -51.33789 l 0.082,0.24023 c -1.88679,-5.48329 -4.07341,-10.81156 -6.34961,-16.08594 z m 12.51367,27.41602 h 13.63672 v 35.60156 h -4.78711 z m 25.20703,0 h 13.63672 l -8.84961,35.60156 h -4.78711 z m -26.70312,47.16992 h 41.83593 v 20.23242 h -41.83593 z" />
      <g
         style="fill:#cccccc;fill-opacity:1;stroke-width:5.38464212"
         id="g34029" />
      <g
         style="fill:#cccccc;fill-opacity:1;stroke-width:5.38464212"
         id="g34031" />
      <g
         style="fill:#cccccc;fill-opacity:1;stroke-width:5.38464212"
         id="g34033" />
      <g
         style="fill:#cccccc;fill-opacity:1;stroke-width:5.38464212"
         id="g34035" />
      <g
         style="fill:#cccccc;fill-opacity:1;stroke-width:5.38464212"
         id="g34037" />
      <g
         style="fill:#cccccc;fill-opacity:1;stroke-width:5.38464212"
         id="g34039" />
      <g
         style="fill:#cccccc;fill-opacity:1;stroke-width:5.38464212"
         id="g34041" />
      <g
         style="fill:#cccccc;fill-opacity:1;stroke-width:5.38464212"
         id="g34043" />
      <g
         style="fill:#cccccc;fill-opacity:1;stroke-width:5.38464212"
         id="g34045" />
      <g
         style="fill:#cccccc;fill-opacity:1;stroke-width:5.38464212"
         id="g34047" />
      <g
         style="fill:#cccccc;fill-opacity:1;stroke-width:5.38464212"
         id="g34049" />
      <g
         style="fill:#cccccc;fill-opacity:1;stroke-width:5.38464212"
         id="g34051" />
      <g
         style="fill:#cccccc;fill-opacity:1;stroke-width:5.38464212"
         id="g34053" />
      <g
         style="fill:#cccccc;fill-opacity:1;stroke-width:5.38464212"
         id="g34055" />
      <g
         style="fill:#cccccc;fill-opacity:1;stroke-width:5.38464212"
         id="g34057" />
    </g>
  </g>
</svg>
