<?xml version="1.0" encoding="UTF-8" standalone="no"?>
<!-- Created with Inkscape (http://www.inkscape.org/) -->

<svg
   xmlns:dc="http://purl.org/dc/elements/1.1/"
   xmlns:cc="http://creativecommons.org/ns#"
   xmlns:rdf="http://www.w3.org/1999/02/22-rdf-syntax-ns#"
   xmlns:svg="http://www.w3.org/2000/svg"
   xmlns="http://www.w3.org/2000/svg"
   xmlns:sodipodi="http://sodipodi.sourceforge.net/DTD/sodipodi-0.dtd"
   xmlns:inkscape="http://www.inkscape.org/namespaces/inkscape"
   width="10.182mm"
   height="9.9320002mm"
   viewBox="0 0 10.182 9.9320002"
   version="1.1"
   id="svg6699"
   inkscape:version="0.92.2 (5c3e80d, 2017-08-06)"
   sodipodi:docname="logo.svg">
  <defs
     id="defs6693" />
  <sodipodi:namedview
     id="base"
     pagecolor="#ffffff"
     bordercolor="#666666"
     borderopacity="1.0"
     inkscape:pageopacity="0.0"
     inkscape:pageshadow="2"
     inkscape:zoom="5.6568543"
     inkscape:cx="-9.4636198"
     inkscape:cy="12.375201"
     inkscape:document-units="mm"
     inkscape:current-layer="layer1"
     showgrid="false"
     inkscape:window-width="1680"
     inkscape:window-height="987"
     inkscape:window-x="-8"
     inkscape:window-y="-8"
     inkscape:window-maximized="1" />
  <metadata
     id="metadata6696">
    <rdf:RDF>
      <cc:Work
         rdf:about="">
        <dc:format>image/svg+xml</dc:format>
        <dc:type
           rdf:resource="http://purl.org/dc/dcmitype/StillImage" />
        <dc:title></dc:title>
      </cc:Work>
    </rdf:RDF>
  </metadata>
  <g
     inkscape:label="Layer 1"
     inkscape:groupmode="layer"
     id="layer1"
     transform="translate(0,-287.068)">
    <g
       id="g11186"
       transform="translate(-10.784028,163.61158)">
      <ellipse
         ry="0.3183268"
         rx="0.52916664"
         cy="133.07001"
         cx="11.313002"
         id="path6436"
         style="opacity:1;fill:#cdd5ed;fill-opacity:1;fill-rule:nonzero;stroke:none;stroke-width:0.36065611;stroke-linecap:round;stroke-linejoin:round;stroke-miterlimit:4;stroke-dasharray:none;stroke-dashoffset:0;stroke-opacity:1" />
      <path
         id="path6434"
         d="m 13.787693,123.45988 c -0.09181,0.013 -0.171979,0.0794 -0.197379,0.17415 l -0.135466,0.50332 v 0.006 0.006 l -1.299105,4.84827 -0.04789,0.18034 -0.96229,3.58998 a 0.52916664,0.3183268 0 0 0 -0.0026,0 l -0.148166,0.55448 a 0.52916664,0.3183268 0 0 0 0.318823,0.0651 0.52916664,0.3183268 0 0 0 0.162189,-0.0161 l 0.149754,-0.55914 a 0.52916664,0.3183268 0 0 0 -0.01058,-0.005 c 0.0053,0.003 0.01058,0.003 0.01588,0.005 l 0.862012,-3.21686 c 0.378355,0.20656 1.108869,0.57573 1.939926,0.79841 0.602191,0.16137 1.2446,0.24127 1.815835,0.11006 0.711994,-0.16375 1.456002,0.0336 2.024327,0.277 0.568325,0.24339 0.9652,0.53496 0.964142,0.53432 0.06324,0.0472 0.147108,0.0624 0.222779,0.0357 0.07461,-0.0259 0.130175,-0.0875 0.150812,-0.16383 l 1.347788,-5.02812 c 0.02381,-0.0939 -0.0079,-0.19476 -0.08731,-0.2532 -0.03836,-0.029 -0.468049,-0.34454 -1.09564,-0.60876 -0.627856,-0.26418 -1.455209,-0.47773 -2.286529,-0.28681 -0.621507,0.14301 -1.397794,-0.0217 -2.075921,-0.26042 -0.651934,-0.22953 -1.196975,-0.51772 -1.446477,-0.65683 l 0.09102,-0.33639 c 0.03413,-0.12687 -0.04392,-0.25816 -0.170127,-0.292 -0.03175,-0.008 -0.06324,-0.0101 -0.09393,-0.006 z m 0.04657,1.10795 c 0.655109,0.358 2.398713,1.22049 3.75629,0.90844 0.458258,-0.10522 0.93001,-0.0614 1.359694,0.0486 0.143139,0.0367 0.282045,0.0816 0.413808,0.12973 0.502708,0.18356 0.89191,0.42084 1.082675,0.5462 l -1.217877,4.54703 c -0.544248,-0.33946 -1.80393,-1.00449 -3.09298,-0.70798 -0.621241,0.14296 -1.397793,-0.022 -2.07592,-0.26045 -0.651934,-0.22948 -1.195917,-0.51758 -1.445684,-0.6568 z m -2.367227,8.19846 c 0.0079,0.003 0.01587,0.003 0.02381,0.005 a 0.52916664,0.3183268 0 0 0 -0.02381,-0.005 z"
         style="fill:#057adc;fill-opacity:1;stroke:none;stroke-width:0.17353041"
         inkscape:connector-curvature="0" />
    </g>
  </g>
</svg>
