<?xml version="1.0" encoding="UTF-8" standalone="no"?>
<!-- Created with Inkscape (http://www.inkscape.org/) -->

<svg
   xmlns:dc="http://purl.org/dc/elements/1.1/"
   xmlns:cc="http://creativecommons.org/ns#"
   xmlns:rdf="http://www.w3.org/1999/02/22-rdf-syntax-ns#"
   xmlns:svg="http://www.w3.org/2000/svg"
   xmlns="http://www.w3.org/2000/svg"
   xmlns:sodipodi="http://sodipodi.sourceforge.net/DTD/sodipodi-0.dtd"
   xmlns:inkscape="http://www.inkscape.org/namespaces/inkscape"
   width="29.271999mm"
   height="29.271999mm"
   viewBox="0 0 29.271999 29.271999"
   version="1.1"
   id="svg6283"
   inkscape:version="0.92.2 (5c3e80d, 2017-08-06)"
   sodipodi:docname="pie-chart-1.svg">
  <defs
     id="defs6277" />
  <sodipodi:namedview
     id="base"
     pagecolor="#ffffff"
     bordercolor="#666666"
     borderopacity="1.0"
     inkscape:pageopacity="0.0"
     inkscape:pageshadow="2"
     inkscape:zoom="1.979899"
     inkscape:cx="-62.774889"
     inkscape:cy="63.479555"
     inkscape:document-units="mm"
     inkscape:current-layer="layer1"
     showgrid="false"
     inkscape:window-width="1680"
     inkscape:window-height="987"
     inkscape:window-x="-8"
     inkscape:window-y="-8"
     inkscape:window-maximized="1" />
  <metadata
     id="metadata6280">
    <rdf:RDF>
      <cc:Work
         rdf:about="">
        <dc:format>image/svg+xml</dc:format>
        <dc:type
           rdf:resource="http://purl.org/dc/dcmitype/StillImage" />
        <dc:title />
      </cc:Work>
    </rdf:RDF>
  </metadata>
  <g
     inkscape:label="Layer 1"
     inkscape:groupmode="layer"
     id="layer1"
     transform="translate(0,-267.728)">
    <g
       id="g122850"
       transform="matrix(0.752211,0,0,0.752211,2792.0862,-954.86241)"
       style="stroke-width:1.32941425">
      <path
         id="path122764-3"
         transform="matrix(0.26458333,0,0,0.26458333,0,11.249939)"
         d="m -13955.459,6100.457 a 73.539107,73.539107 0 0 0 -6.32,0.3203 73.539106,73.539106 0 0 1 6.32,-0.3203 z m 6.271,0.3145 a 73.539106,73.539106 0 0 1 3.635,0.4414 73.539107,73.539107 0 0 0 -3.635,-0.4414 z m -15.943,0.4121 a 73.539107,73.539107 0 0 0 -4.031,0.6133 73.539106,73.539106 0 0 1 4.031,-0.6133 z m 23.231,0.582 a 73.539106,73.539106 0 0 1 3.539,0.793 73.539107,73.539107 0 0 0 -3.539,-0.793 z m -30.233,0.6992 a 73.539107,73.539107 0 0 0 -4.262,1.0938 73.539106,73.539106 0 0 1 4.262,-1.0938 z m 37.377,1.0157 a 73.539106,73.539106 0 0 1 3.44,1.1425 73.539107,73.539107 0 0 0 -3.44,-1.1425 z m -44.215,0.9336 a 73.539107,73.539107 0 0 0 -4.424,1.6171 73.539106,73.539106 0 0 1 4.424,-1.6171 z m 51.162,1.4902 a 73.539106,73.539106 0 0 1 3.266,1.459 73.539107,73.539107 0 0 0 -3.266,-1.459 z m -57.843,1.1387 a 73.539107,73.539107 0 0 0 -4.461,2.1601 73.539106,73.539106 0 0 1 4.461,-2.1601 z m 64.507,1.9629 a 73.539106,73.539106 0 0 1 3.127,1.7949 73.539107,73.539107 0 0 0 -3.127,-1.7949 z m -70.855,1.2793 a 73.539107,73.539107 0 0 0 -4.494,2.7617 73.539106,73.539106 0 0 1 4.494,-2.7617 z m 77.152,2.4589 a 73.539106,73.539106 0 0 1 2.955,2.1114 73.539107,73.539107 0 0 0 -2.955,-2.1114 z m -83.158,1.3848 a 73.539107,73.539107 0 0 0 -4.418,3.3633 73.539106,73.539106 0 0 1 4.418,-3.3633 z m 89.084,2.9863 a 73.539106,73.539106 0 0 1 2.719,2.3887 73.539107,73.539107 0 0 0 -2.719,-2.3887 z m -95.033,1.7227 a 73.539107,73.539107 0 0 0 -3.467,3.1875 73.539106,73.539106 0 0 1 3.467,-3.1875 z m -3.471,3.1914 a 73.539107,73.539107 0 0 0 -21.572,51.9668 73.539107,73.539107 0 0 0 73.539,73.5391 73.539107,73.539107 0 0 0 72.473,-61.5625 l -72.473,-11.9766 z m 103.936,0 a 73.539106,73.539106 0 0 1 2.492,2.6739 73.539107,73.539107 0 0 0 -2.492,-2.6739 z m 4.935,5.4571 a 73.539106,73.539106 0 0 1 2.19,2.8789 73.539107,73.539107 0 0 0 -2.19,-2.8789 z m 4.364,5.916 a 73.539106,73.539106 0 0 1 1.894,3.0918 73.539107,73.539107 0 0 0 -1.894,-3.0918 z m 3.74,6.3086 a 73.539106,73.539106 0 0 1 1.588,3.2891 73.539107,73.539107 0 0 0 -1.588,-3.2891 z m 3.097,6.6621 a 73.539106,73.539106 0 0 1 1.254,3.4375 73.539107,73.539107 0 0 0 -1.254,-3.4375 z m 2.415,6.9297 a 73.539106,73.539106 0 0 1 0.904,3.5371 73.539107,73.539107 0 0 0 -0.904,-3.5371 z m 1.718,7.1621 a 73.539106,73.539106 0 0 1 0.541,3.5937 73.539107,73.539107 0 0 0 -0.541,-3.5937 z m 0.987,7.2578 a 73.539106,73.539106 0 0 1 0.314,6.2715 73.539107,73.539107 0 0 0 -0.314,-6.2715 z m 0.04,11.6875 a 73.539106,73.539106 0 0 1 -0.793,6.541 73.539107,73.539107 0 0 0 0.793,-6.541 z"
         style="opacity:1;fill:#057adc;fill-opacity:1;fill-rule:nonzero;stroke:none;stroke-width:1.32648325;stroke-linecap:round;stroke-linejoin:round;stroke-miterlimit:4;stroke-dasharray:none;stroke-dashoffset:0;stroke-opacity:1"
         inkscape:connector-curvature="0" />
      <path
         transform="matrix(0.26458333,0,0,0.26458333,0,11.249939)"
         id="path122766"
         d="m -13955.459,6100.457 a 73.539107,73.539107 0 0 0 -51.967,21.5723 l 51.967,51.9668 72.473,11.9766 a 73.539107,73.539107 0 0 0 1.066,-11.9766 73.539107,73.539107 0 0 0 -73.539,-73.5391 z"
         style="fill:#e2e8f3;fill-opacity:1;stroke:none;stroke-width:1.32941413px;stroke-linecap:butt;stroke-linejoin:miter;stroke-opacity:1"
         inkscape:connector-curvature="0" />
    </g>
  </g>
</svg>
