<?xml version="1.0" encoding="UTF-8" standalone="no"?>
<!-- Created with Inkscape (http://www.inkscape.org/) -->

<svg
   xmlns:dc="http://purl.org/dc/elements/1.1/"
   xmlns:cc="http://creativecommons.org/ns#"
   xmlns:rdf="http://www.w3.org/1999/02/22-rdf-syntax-ns#"
   xmlns:svg="http://www.w3.org/2000/svg"
   xmlns="http://www.w3.org/2000/svg"
   xmlns:sodipodi="http://sodipodi.sourceforge.net/DTD/sodipodi-0.dtd"
   xmlns:inkscape="http://www.inkscape.org/namespaces/inkscape"
   width="29.271999mm"
   height="29.271999mm"
   viewBox="0 0 29.271999 29.271999"
   version="1.1"
   id="svg6283"
   inkscape:version="0.92.2 (5c3e80d, 2017-08-06)"
   sodipodi:docname="pie-chart-2.svg">
  <defs
     id="defs6277" />
  <sodipodi:namedview
     id="base"
     pagecolor="#ffffff"
     bordercolor="#666666"
     borderopacity="1.0"
     inkscape:pageopacity="0.0"
     inkscape:pageshadow="2"
     inkscape:zoom="3.959798"
     inkscape:cx="18.256232"
     inkscape:cy="60.96405"
     inkscape:document-units="mm"
     inkscape:current-layer="layer1"
     showgrid="false"
     inkscape:window-width="1680"
     inkscape:window-height="987"
     inkscape:window-x="-8"
     inkscape:window-y="-8"
     inkscape:window-maximized="1" />
  <metadata
     id="metadata6280">
    <rdf:RDF>
      <cc:Work
         rdf:about="">
        <dc:format>image/svg+xml</dc:format>
        <dc:type
           rdf:resource="http://purl.org/dc/dcmitype/StillImage" />
        <dc:title></dc:title>
      </cc:Work>
    </rdf:RDF>
  </metadata>
  <g
     inkscape:label="Layer 1"
     inkscape:groupmode="layer"
     id="layer1"
     transform="translate(0,-267.728)">
    <path
       style="fill:#e2e8f3;fill-opacity:1;stroke:none;stroke-width:0.99999994px;stroke-linecap:butt;stroke-linejoin:miter;stroke-opacity:1"
       d="M 55.316406 0 A 55.316821 55.316821 0 0 0 0 55.316406 L 24.964844 55.316406 A 30.350824 30.350824 0 0 1 55.316406 24.966797 A 30.350824 30.350824 0 0 1 76.466797 33.59375 L 93.865234 15.722656 A 55.316821 55.316821 0 0 0 55.316406 0 z "
       id="path122789"
       transform="matrix(0.26458333,0,0,0.26458333,0,267.728)" />
    <g
       id="g6881">
      <path
         style="fill:#e2e8f3;fill-opacity:1;stroke:none;stroke-width:0.99999994px;stroke-linecap:butt;stroke-linejoin:miter;stroke-opacity:1"
         d="M 55.316406 0 A 55.316821 55.316821 0 0 0 0 55.316406 L 24.964844 55.316406 A 30.350824 30.350824 0 0 1 55.316406 24.966797 A 30.350824 30.350824 0 0 1 76.466797 33.59375 L 93.865234 15.722656 A 55.316821 55.316821 0 0 0 55.316406 0 z "
         id="path6874"
         transform="matrix(0.26458333,0,0,0.26458333,0,267.728)" />
      <path
         transform="matrix(0.26458333,0,0,0.26458333,0,267.728)"
         id="path6871"
         d="M 93.914062 15.697266 L 93.865234 15.722656 L 76.466797 33.59375 A 30.350824 30.350824 0 0 1 85.666016 55.318359 A 30.350824 30.350824 0 0 1 55.316406 85.667969 A 30.350824 30.350824 0 0 1 24.964844 55.318359 A 30.350824 30.350824 0 0 1 24.964844 55.316406 L 0 55.316406 A 55.317163 55.317152 0 0 0 55.316406 110.63477 A 55.317163 55.317152 0 0 0 110.63477 55.316406 A 55.317163 55.317152 0 0 0 93.914062 15.697266 z "
         style="opacity:1;fill:#057adc;fill-opacity:1;fill-rule:nonzero;stroke:none;stroke-width:0;stroke-linecap:round;stroke-linejoin:round;stroke-miterlimit:4;stroke-dasharray:none;stroke-dashoffset:0;stroke-opacity:1" />
    </g>
  </g>
</svg>
