<?xml version="1.0" encoding="UTF-8" standalone="no"?>
<!-- Created with Inkscape (http://www.inkscape.org/) -->

<svg
   xmlns:dc="http://purl.org/dc/elements/1.1/"
   xmlns:cc="http://creativecommons.org/ns#"
   xmlns:rdf="http://www.w3.org/1999/02/22-rdf-syntax-ns#"
   xmlns:svg="http://www.w3.org/2000/svg"
   xmlns="http://www.w3.org/2000/svg"
   xmlns:sodipodi="http://sodipodi.sourceforge.net/DTD/sodipodi-0.dtd"
   xmlns:inkscape="http://www.inkscape.org/namespaces/inkscape"
   width="164.489mm"
   height="80.972mm"
   viewBox="0 0 164.489 80.972"
   version="1.1"
   id="svg11017"
   sodipodi:docname="population-chart.svg"
   inkscape:version="0.92.2 (5c3e80d, 2017-08-06)">
  <defs
     id="defs11011" />
  <sodipodi:namedview
     id="base"
     pagecolor="#ffffff"
     bordercolor="#666666"
     borderopacity="1.0"
     inkscape:pageopacity="0.0"
     inkscape:pageshadow="2"
     inkscape:zoom="0.49497475"
     inkscape:cx="397.37263"
     inkscape:cy="255.42281"
     inkscape:document-units="mm"
     inkscape:current-layer="g15524"
     showgrid="false"
     inkscape:window-width="1680"
     inkscape:window-height="987"
     inkscape:window-x="-8"
     inkscape:window-y="-8"
     inkscape:window-maximized="1"
     inkscape:measure-start="0,0"
     inkscape:measure-end="0,0" />
  <metadata
     id="metadata11014">
    <rdf:RDF>
      <cc:Work
         rdf:about="">
        <dc:format>image/svg+xml</dc:format>
        <dc:type
           rdf:resource="http://purl.org/dc/dcmitype/StillImage" />
        <dc:title></dc:title>
      </cc:Work>
    </rdf:RDF>
  </metadata>
  <g
     inkscape:label="Layer 1"
     inkscape:groupmode="layer"
     id="layer1"
     transform="translate(0,-216.028)">
    <g
       id="g15516"
       transform="matrix(1.2519868,0,0,1.2539428,-65.425134,223.28294)"
       style="stroke-width:0.79810721">
      <g
         id="g15524"
         transform="translate(16.651136,-8.1837831)">
        <g
           id="g16249"
           transform="translate(-0.51288341)">
          <rect
             style="opacity:1;fill:#dc2a34;fill-opacity:0.98039216;fill-rule:nonzero;stroke:none;stroke-width:0.7729578;stroke-linecap:butt;stroke-linejoin:miter;stroke-miterlimit:4;stroke-dasharray:none;stroke-dashoffset:0;stroke-opacity:0.98039216"
             id="rect7203"
             width="23.557629"
             height="47.970314"
             x="41.386936"
             y="18.443947" />
          <rect
             y="58.796173"
             x="73.816216"
             height="7.7896514"
             width="23.557629"
             id="rect7207"
             style="opacity:0.98000004;fill:#31448c;fill-opacity:1;fill-rule:nonzero;stroke:none;stroke-width:0.38547388;stroke-linecap:round;stroke-linejoin:round;stroke-miterlimit:4;stroke-dasharray:none;stroke-dashoffset:0;stroke-opacity:1" />
          <rect
             style="opacity:0.98000004;fill:#53ba9c;fill-opacity:1;fill-rule:nonzero;stroke:none;stroke-width:0.7729578;stroke-linecap:butt;stroke-linejoin:miter;stroke-miterlimit:4;stroke-dasharray:none;stroke-dashoffset:0;stroke-opacity:1"
             id="rect7209"
             width="24.275909"
             height="2.9499187"
             x="105.88673"
             y="63.333012" />
          <rect
             y="64.466904"
             x="138.6754"
             height="2.1189251"
             width="23.557629"
             id="rect7211"
             style="opacity:0.98000004;fill:#f7ce35;fill-opacity:1;fill-rule:nonzero;stroke:none;stroke-width:0.20104522;stroke-linecap:round;stroke-linejoin:round;stroke-miterlimit:4;stroke-dasharray:none;stroke-dashoffset:0;stroke-opacity:1" />
        </g>
        <path
           inkscape:connector-curvature="0"
           id="path7205"
           d="M 35.992382,2.7899364 V 66.585609 H 166.59635"
           style="fill:none;stroke:#333333;stroke-width:0.7729578;stroke-linecap:round;stroke-linejoin:round;stroke-miterlimit:4;stroke-dasharray:none;stroke-opacity:1" />
        <path
           style="fill:#057adc;fill-opacity:1;stroke-width:0.08895741"
           d="m -36.011512,103.22914 c -0.07828,-0.20464 -0.07508,-0.21134 0.168612,-0.30376 0.129714,-0.0494 0.222526,-0.15504 0.222526,-0.2536 0,-0.17768 0.203756,-0.40226 0.288342,-0.3178 0.08834,0.0882 -0.05991,0.44627 -0.304795,0.73424 -0.274125,0.32282 -0.300882,0.33287 -0.374685,0.14092 z m 8.056475,-0.57698 c -0.09154,-0.15033 -0.191616,-0.4304 -0.222367,-0.62252 -0.04393,-0.27625 -0.132909,-0.4048 -0.424285,-0.61566 -0.202638,-0.1465 -0.456315,-0.26636 -0.563744,-0.26636 -0.107509,0 -0.269492,-0.0818 -0.360068,-0.18166 -0.242335,-0.26732 -0.511507,-0.18965 -0.629639,0.18166 -0.07109,0.22258 -0.204795,0.37043 -0.471092,0.51972 -0.677722,0.38017 -1.003764,0.11317 -0.911191,-0.74604 0.05112,-0.47514 0.08323,-0.53942 0.323885,-0.65083 0.146887,-0.0678 0.348326,-0.19714 0.447688,-0.286926 0.09936,-0.0898 0.359749,-0.22649 0.578681,-0.30369 0.382032,-0.13477 0.404077,-0.13302 0.545852,0.0415 0.19481,0.23957 0.306553,0.22936 0.486347,-0.0447 0.08179,-0.12448 0.279476,-0.28095 0.439462,-0.3477 0.159826,-0.067 0.451442,-0.28175 0.64793,-0.47793 0.196408,-0.1961 0.435228,-0.39827 0.530596,-0.44931 0.09984,-0.0534 0.216297,-0.26237 0.274284,-0.49212 0.08459,-0.33542 0.164858,-0.43695 0.501443,-0.63384 0.357831,-0.20942 0.531317,-0.46462 0.483632,-0.7116 -0.0088,-0.0455 -0.01118,-0.24857 -0.008,-0.45082 0.01038,-0.36556 0.01279,-0.36812 0.410947,-0.42769 0.25152,-0.0375 0.432673,-0.1201 0.487145,-0.22178 0.05431,-0.10128 0.235068,-0.18414 0.482593,-0.22122 0.448807,-0.067 0.54178,-0.15081 0.631078,-0.56757 0.04872,-0.22696 0.1639,-0.35671 0.499926,-0.56326 0.240178,-0.14754 0.436745,-0.31015 0.436745,-0.36127 0,-0.051 0.150241,-0.23454 0.333869,-0.40735 0.316453,-0.29802 0.332673,-0.34029 0.311343,-0.81056 -0.0128,-0.27282 0.0224,-0.71606 0.0767,-0.98498 0.0543,-0.26883 0.12484,-0.64891 0.15599,-0.84445 0.0511,-0.32386 0.0828,-0.35799 0.35145,-0.38375 0.17564,-0.0168 0.44034,0.047 0.65432,0.1587 0.44521,0.23175 0.61398,0.18238 0.91159,-0.2666 0.12859,-0.19403 0.27332,-0.35273 0.32156,-0.35273 0.12093,0 0.11023,-0.38686 -0.0192,-0.66901 -0.0824,-0.18063 -0.0824,-0.27122 0,-0.40305 0.0583,-0.0935 0.10639,-0.26779 0.10639,-0.38741 0,-0.25815 0.0908,-0.29396 1.03572,-0.4088 0.38515,-0.047 0.86055,-0.12863 1.0564,-0.1819 0.79473,-0.21644 1.27469,-0.24842 1.71136,-0.11404 0.29785,0.0916 0.61231,0.1142 1.04961,0.075 0.60056,-0.0534 0.63922,-0.0447 1.01543,0.22736 0.38027,0.27506 0.40998,0.28136 1.06718,0.22824 1.11111,-0.0899 1.8866,-0.20639 1.97758,-0.29714 0.0543,-0.055 0.0495,-0.24275 -0.0128,-0.52187 -0.0899,-0.39946 -0.0783,-0.47833 0.13858,-0.9313 0.16997,-0.35544 0.3095,-0.52228 0.49513,-0.5923 0.14217,-0.0534 0.25855,-0.16228 0.25855,-0.24155 0,-0.26684 0.28371,-0.57962 0.8218098,-0.90595 0.43395,-0.26325 0.57493,-0.4099 0.74809,-0.77818 0.11734,-0.24961 0.35296,-0.6269 0.52357,-0.83848 0.17061,-0.21157 0.31023,-0.42035 0.31023,-0.46389 0,-0.16508 -0.26111,0.0311 -0.47876,0.35918 -0.29002,0.43758 -0.66502,0.72029 -1.42845,1.07701 -0.5369098,0.2508 -0.6446598,0.27345 -0.8798798,0.18485 -0.24441,-0.0921 -0.29713,-0.0758 -0.59697,0.1855 -0.18092,0.15758 -0.47509,0.39818 -0.6536,0.53471 -0.19873,0.15192 -0.32517,0.32434 -0.32605,0.44444 -0.008,0.33718 -0.12963,0.42482 -0.7635,0.52586 -0.65137,0.10383 -0.78771,0.10559 -1.52382,0.0191 -0.42588,-0.0502 -0.49777,-0.0941 -0.88052,-0.54141 -0.34226,-0.40002 -0.45384,-0.47785 -0.62413,-0.43511 -0.16861,0.0423 -0.23507,-0.008 -0.35647,-0.23797 -0.26958,-0.52387 -0.82429,-1.28873 -0.97693,-1.34719 -0.0824,-0.0319 -0.29018,-0.0311 -0.46175,0 -0.23514,0.0439 -0.33562,0.12114 -0.40815,0.31294 -0.0988,0.26141 -0.26342,0.3103 -0.88148,0.26197 -0.1385,-0.0112 -0.34768,0.0606 -0.47948,0.16444 -0.30303,0.23797 -0.40599,0.23151 -0.73698,-0.047 -0.20256,-0.17018 -0.27389,-0.30544 -0.27389,-0.51948 0,-0.34954 0.29825,-0.67691 0.46494,-0.51047 0.13435,0.13406 0.62581,0.13549 0.75928,0.008 0.16397,-0.16365 -0.42453,-0.4308 -0.90321,-0.41007 -0.46414,0.0207 -0.70464,-0.14952 -0.87389,-0.61653 -0.0891,-0.24603 -0.14409,-0.29292 -0.29042,-0.24722 -0.47165,0.14721 -0.98867,0.2146 -1.2842,0.16747 -0.469731,-0.075 -0.721889,0.15304 -0.746809,0.67547 l -0.01917,0.40002 h -0.638265 c -0.539384,0 -0.671335,0.0311 -0.851528,0.20001 -0.253755,0.23805 -0.227717,0.23613 -0.833474,0.0606 -0.299365,-0.0868 -0.481075,-0.18877 -0.481075,-0.26971 0,-0.0718 -0.06789,-0.23367 -0.150802,-0.36007 -0.141854,-0.2162 -0.141854,-0.23645 0,-0.34076 0.133069,-0.0971 0.135546,-0.12433 0.01997,-0.22003 -0.10663,-0.0883 -0.176759,-0.0742 -0.367096,0.0758 l -0.235386,0.18478 -0.252159,-0.19842 c -0.13858,-0.10909 -0.254236,-0.23039 -0.256952,-0.26939 -0.008,-0.0915 0.457193,-0.49994 0.573728,-0.50536 0.236744,-0.0112 0.347688,-0.18366 0.326202,-0.50704 -0.03435,-0.52116 -0.177398,-0.60673 -0.997295,-0.59772 -0.389861,0.008 -0.708873,-0.008 -0.708873,-0.0263 0,-0.10383 0.406953,-0.55975 0.499605,-0.55975 0.0607,0 0.223565,-0.0954 0.362384,-0.21205 0.13882,-0.11659 0.403679,-0.27513 0.588745,-0.35233 0.237462,-0.0991 0.374844,-0.23255 0.467816,-0.45457 0.115016,-0.27497 0.170529,-0.31429 0.443055,-0.31429 0.171408,0 0.392496,0.0494 0.491141,0.11101 0.146406,0.0906 0.193932,0.0882 0.25687,-0.0128 0.04473,-0.0726 0.154475,-0.10359 0.262623,-0.0758 0.221249,0.0574 0.803444,-0.44444 1.024132,-0.88329 0.164618,-0.32753 0.23291,-0.35425 1.109358,-0.43639 0.480595,-0.0455 0.708715,-0.11093 0.861195,-0.24889 0.11413,-0.1032 0.32628,-0.29579 0.47141,-0.42793 0.14521,-0.13223 0.37868,-0.26788 0.51877,-0.30153 0.48563,-0.11675 0.87996,-0.37721 1.28644,-0.84988 0.32756,-0.38088 0.46422,-0.65107 0.69018,-1.36386 0.34689,-1.09463 0.34841,-1.31848 0.0128,-1.8134 -0.33203,-0.48918 -0.34545,-0.87803 -0.0423,-1.23706 0.29297,-0.347621 0.28211,-0.472825 -0.0951,-1.092791 -0.29944,-0.492126 -0.31119,-0.539736 -0.2048,-0.833291 0.10072,-0.278241 0.0933,-0.337495 -0.0703,-0.556324 -0.15735,-0.211016 -0.25463,-0.248656 -0.704,-0.272103 -0.89729,-0.04705 -1.73061,0.40911 -1.73061,0.946853 0,0.353765 -0.2214,0.423066 -0.4635,0.145143 -0.23019,-0.264367 -0.26007,-0.26612 -0.909195,-0.05184 -0.403598,0.132861 -0.519174,0.143867 -0.554399,0.05263 -0.122206,-0.318038 0.974374,-1.572401 1.459364,-1.669295 0.16565,-0.0327 0.50168,-0.273696 0.85951,-0.615419 0.57684,-0.551063 0.58747,-0.569644 0.58747,-1.02421 0,-0.408869 -0.0287,-0.480724 -0.24481,-0.615338 -0.35784,-0.222737 -0.73659,-0.613823 -0.91215,-0.941989 -0.0906,-0.169147 -0.23731,-0.299774 -0.35664,-0.317559 -0.28011,-0.04147 -0.823808,-0.585672 -0.785709,-0.786319 0.01917,-0.100006 0.174284,-0.206867 0.408309,-0.280954 0.23515,-0.07417 0.38092,-0.174969 0.38635,-0.2666 0.008,-0.08094 0.0144,-0.239963 0.0224,-0.353524 0.0112,-0.16484 0.10863,-0.239963 0.48602,-0.372985 0.4449,-0.156784 0.50616,-0.158299 1.04402,-0.02632 0.43531,0.107263 0.58492,0.185496 0.62821,0.328485 0.0311,0.103274 0.12715,0.267794 0.21302,0.365566 0.0859,0.09777 0.18267,0.289567 0.2151,0.426256 0.0583,0.24682 0.0623,0.248177 0.59034,0.188525 0.63395,-0.07177 0.6909,0.04227 0.2643,0.527138 -0.14689,0.167072 -0.2671,0.333746 -0.2671,0.370351 0,0.167233 0.74226,-0.06061 1.32062,-0.404723 0.35097,-0.208942 0.63803,-0.394197 0.63803,-0.411662 0,-0.01753 -0.0487,-0.109256 -0.10791,-0.204156 -0.0591,-0.0949 -0.0867,-0.193709 -0.0607,-0.219468 0.0607,-0.06061 0.53635,0.09658 1.11407,0.367642 0.52924,0.248335 0.6675,0.230073 1.58947,-0.210219 0.91663,-0.437738 1.09666,-0.410863 1.88852,0.281434 0.68507,0.598909 0.86047,0.678499 0.9548,0.433113 0.0599,-0.156466 0.01,-0.23821 -0.50136,-0.808968 -0.18498,-0.206629 -0.33634,-0.455125 -0.33634,-0.552019 0,-0.22234 0.30303,-0.508158 0.68499,-0.646043 0.36654,-0.132382 0.38307,-0.357033 0.0719,-0.97604 -0.12245,-0.243314 -0.22261,-0.513183 -0.22261,-0.59963 0,-0.294829 0.45743,-1.027159 0.96231,-1.54074 l 0.50392,-0.512463 -0.43116,0.02313 c -0.37021,0.01994 -0.45503,-0.008 -0.60016,-0.198575 -0.14904,-0.195862 -0.16222,-0.319074 -0.11111,-1.037288 l 0.0583,-0.81495 0.41007,-0.145781 c 0.22548,-0.08007 0.47005,-0.177439 0.54354,-0.216117 0.20879,-0.110052 0.21102,-0.483993 0.008,-0.670923 -0.25911,-0.234141 -0.22612,-0.576742 0.0927,-0.962884 0.27077,-0.328004 0.27316,-0.339727 0.16126,-0.775873 -0.0623,-0.243552 -0.13922,-0.442762 -0.17037,-0.442762 -0.0311,0 -0.1508,0.100004 -0.26581,0.22218 -0.25224,0.268112 -0.36742,0.277443 -0.57677,0.04705 -0.20535,-0.226567 -0.27596,-0.174888 -0.54984,0.402649 -0.28283,0.596359 -0.40472,0.706172 -0.64274,0.578894 -0.24841,-0.1327 -0.34106,0.04386 -0.13962,0.26636 0.0859,0.09474 0.11526,0.172177 0.0655,0.172177 -0.0495,0 -0.20096,-0.158859 -0.33579,-0.353126 -0.24457,-0.352329 -0.25807,-0.511268 -0.0891,-1.045263 0.0511,-0.163404 0.0176,-0.215481 -0.19201,-0.29483 -0.53595,-0.202721 -0.92246,-0.740943 -0.92246,-1.284349 0,-0.22832 -0.0647,-0.379604 -0.22628,-0.529132 -0.3627,-0.33566 -1.28723,-1.660522 -1.28723,-1.84466 0,-0.09275 0.0559,-0.277047 0.125,-0.409747 0.0687,-0.132623 0.1532,-0.440691 0.18786,-0.684402 0.0833,-0.586391 0.30176,-1.070543 0.69242,-1.53452 0.22916,-0.272181 0.33587,-0.499146 0.37596,-0.799958 0.11518,-0.862319 0.41382,-1.278447 0.79354,-1.105631 0.28587,0.130069 0.49729,-0.07656 0.30951,-0.302168 -0.0655,-0.07895 -0.12053,-0.229038 -0.12213,-0.333348 -0.008,-0.264208 -0.74777,-0.462302 -1.2048,-0.320988 -0.17141,0.05263 -0.41167,0.08414 -0.53411,0.06938 -0.21302,-0.02632 -0.22133,-0.0096 -0.19298,0.387818 0.0335,0.469001 -0.18338,0.784007 -0.54154,0.78648 -0.32843,0.008 -0.93659,0.213326 -1.10831,0.384705 -0.14689,0.146578 -0.479,0.375217 -0.95433,0.657047 -0.47684,0.28271 -1.25648,0.04626 -1.66439,-0.504489 -0.14992,-0.2024 -0.27245,-0.271942 -0.47956,-0.271942 -0.19289,0 -0.35663,-0.08174 -0.53403,-0.266678 -0.32604,-0.339729 -0.4008,-0.335503 -0.40008,0.02233 0,0.224731 0.0575,0.321068 0.25599,0.433911 0.25232,0.143308 0.2548,0.152799 0.21063,0.799956 -0.0248,0.360225 -0.0846,0.704976 -0.13331,0.766143 -0.26095,0.32713 -1.17038,-0.146817 -1.54682,-0.806256 -0.23395,-0.409828 -0.32022,-0.480802 -0.784119,-0.645883 -0.286664,-0.101918 -0.573488,-0.256791 -0.637466,-0.344113 -0.135066,-0.18438 -0.407672,-0.140757 -0.741063,0.118584 -0.276839,0.215401 -0.268612,0.586391 0.03115,1.380047 0.235467,0.624751 0.224125,0.853149 -0.04233,0.853149 -0.241056,0 -0.440339,-0.334625 -0.379637,-0.637588 0.03355,-0.167234 0.008,-0.309345 -0.08698,-0.409269 -0.07588,-0.08429 -0.165817,-0.263808 -0.199682,-0.399142 -0.03355,-0.135332 -0.240658,-0.415328 -0.45959,-0.622276 -0.526604,-0.497551 -0.651524,-0.758726 -0.712947,-1.490101 -0.05032,-0.600028 -0.04712,-0.613823 0.190417,-0.721723 0.1889,-0.08597 0.279155,-0.08661 0.413183,-0.008 0.140417,0.08749 0.171409,0.08294 0.171409,-0.02472 0,-0.274175 0.468693,-1.521681 0.641858,-1.708531 0.09928,-0.107022 0.336026,-0.447069 0.526044,-0.755538 0.262384,-0.425936 0.345452,-0.653857 0.34553,-0.947969 8.1e-5,-0.269312 0.0615,-0.462063 0.200323,-0.633204 0.110226,-0.135332 0.269652,-0.372902 0.354237,-0.527933 0.08722,-0.159656 0.271807,-0.322824 0.425643,-0.376414 0.273885,-0.09538 0.53307,-0.464375 0.53355,-0.759764 1.6e-4,-0.08788 -0.0863,-0.339887 -0.19209,-0.559913 -0.105674,-0.220025 -0.218854,-0.459988 -0.251444,-0.533358 -0.03275,-0.07337 -0.246088,-0.233264 -0.474524,-0.355518 -0.266298,-0.142512 -0.51574,-0.375535 -0.695456,-0.64971 -0.246088,-0.375616 -0.267413,-0.455205 -0.175799,-0.655933 0.134186,-0.29419 0.06789,-0.353762 -0.198884,-0.179114 -0.209587,0.137087 -0.212463,0.135093 -0.181793,-0.128314 0.04074,-0.348901 0.09753,-0.431361 0.297209,-0.431361 0.150242,0 0.16342,-0.07895 0.150561,-0.896611 -0.01279,-0.833212 2.11e-4,-0.908096 0.187782,-1.059858 l 0.201758,-0.163324 -0.157349,-0.494441 c -0.08642,-0.271942 -0.18283,-0.494998 -0.214219,-0.495637 -0.03115,0 -0.0607,0.261894 -0.0655,0.583599 -0.008,0.441807 -0.05272,0.6403 -0.187782,0.81192 -0.09849,0.124965 -0.179076,0.296425 -0.179076,0.381038 0,0.08461 -0.07827,0.25336 -0.174204,0.374897 -0.134825,0.171141 -0.180113,0.388615 -0.20032,0.960411 -0.02875,0.813912 -0.147925,0.983538 -0.378439,0.538541 -0.07748,-0.148969 -0.26414,-0.334783 -0.41558,-0.413016 -0.234826,-0.121218 -0.267815,-0.179037 -0.224843,-0.39372 0.05671,-0.283585 -0.100559,-0.477852 -0.291615,-0.359985 -0.196808,0.121459 -0.624208,-0.0831 -0.772692,-0.369952 -0.163261,-0.315166 -0.09441,-1.466255 0.111902,-1.8705 0.136902,-0.268195 0.03514,-0.330636 -0.158309,-0.09729 -0.06709,0.08086 -0.25112,0.200886 -0.40871,0.266598 -0.161423,0.06699 -0.268693,0.168191 -0.245849,0.230712 0.02236,0.06141 0.07827,0.383352 0.124762,0.716221 0.05831,0.422348 0.166535,0.733368 0.357112,1.029951 0.380355,0.591814 0.363342,0.848684 -0.07109,1.069826 -0.472529,0.240761 -0.771254,0.94829 -0.69833,1.654143 0.04393,0.422745 0.008,0.596517 -0.305275,1.37247 -0.35216,0.880742 -0.353917,0.890712 -0.197606,1.154839 0.152877,0.258463 0.151759,0.278321 -0.03754,0.667812 -0.189938,0.390449 -0.206712,0.401455 -0.619256,0.407515 -0.233229,0.008 -0.504238,0.03828 -0.602163,0.07736 -0.310786,0.124725 -0.489622,-0.04865 -0.489622,-0.473786 0,-0.514697 0.146248,-0.902195 0.403839,-1.070702 0.196967,-0.128875 0.211983,-0.193471 0.206152,-0.886167 -0.008,-0.768536 0.233549,-1.701034 0.667898,-2.595892 l 0.177079,-0.364928 -0.194092,-0.272101 c -0.242254,-0.339729 -0.319332,-0.709204 -0.208149,-0.998132 0.06869,-0.178957 0.04872,-0.262452 -0.105192,-0.429286 -0.307272,-0.333747 -0.261345,-0.927156 0.120847,-1.561316 0.171328,-0.284463 0.400963,-0.5517 0.510229,-0.593806 0.167734,-0.0646 0.190178,-0.122015 0.144011,-0.368279 -0.03035,-0.160453 -0.08938,-0.329681 -0.13187,-0.376173 -0.04233,-0.04626 -0.07748,-0.175048 -0.07748,-0.285739 0,-0.110692 -0.07428,-0.24108 -0.165417,-0.289646 -0.134426,-0.07177 -0.184187,-0.04705 -0.265258,0.13015 -0.102078,0.223773 -0.400723,0.296743 -0.507593,0.124087 -0.03195,-0.05184 0.0088,-0.169066 0.09177,-0.260219 0.09505,-0.104947 0.128755,-0.233582 0.09177,-0.350015 -0.06629,-0.208861 0.0849,-0.255834 0.16366,-0.05104 0.10016,0.260378 0.219091,0.12696 0.279795,-0.313811 0.04153,-0.301848 0.02636,-0.489177 -0.04633,-0.57674 -0.08714,-0.10479 -0.07588,-0.140915 0.05831,-0.188207 0.761669,-0.269311 0.93108,-0.452652 0.592897,-0.641576 -0.130512,-0.07257 -0.134506,-0.105269 -0.02875,-0.232547 0.06789,-0.08126 0.235945,-0.20615 0.374126,-0.277525 0.436106,-0.225208 0.246328,-0.727625 -0.229795,-0.60824 -0.347368,0.087 -0.272447,-0.237811 0.08051,-0.34914 0.09792,-0.0311 0.244411,-0.173054 0.325562,-0.315883 0.08107,-0.142751 0.237223,-0.272898 0.347049,-0.289089 0.109666,-0.01595 0.243613,-0.109176 0.297607,-0.206627 0.05431,-0.09729 0.188261,-0.290445 0.298405,-0.428967 0.110225,-0.138602 0.200322,-0.324098 0.200322,-0.41214 0,-0.09418 0.110065,-0.205671 0.267096,-0.270666 0.292094,-0.120739 0.362704,-0.35552 0.10695,-0.35552 -0.219252,0 -0.734513,0.460628 -2.041396,1.825124 -0.439222,0.458474 -0.745375,0.598272 -0.869977,0.397068 -0.07189,-0.115635 -0.400563,-0.115635 -0.400563,0 0,0.100004 0.225801,0.321625 0.570213,0.559754 0.42796,0.295786 0.203756,0.886644 -0.544654,1.434755 -0.483551,0.354242 -0.733234,0.397465 -0.800967,0.138761 -0.05751,-0.220344 -0.06949,-0.220106 -0.44042,0.0088 -0.187622,0.115795 -0.512226,0.202719 -0.856319,0.229436 -0.304795,0.02313 -0.740902,0.106304 -0.969179,0.18382 -0.394414,0.133977 -0.436267,0.131745 -0.845696,-0.04546 -0.505756,-0.218433 -0.651684,-0.396351 -0.50967,-0.621242 0.106231,-0.168029 0.581715,-0.197535 1.222297,-0.07576 l 0.342176,0.0646 -0.0599,-0.273059 c -0.04792,-0.21835 -0.01278,-0.328643 0.174043,-0.550743 0.332511,-0.394515 0.268533,-0.569325 -0.200641,-0.548271 -0.206312,0.0088 -0.375084,-0.01753 -0.375084,-0.05901 0,-0.04227 -0.02396,-0.13956 -0.05431,-0.216837 -0.04233,-0.110052 0.008,-0.140675 0.228437,-0.140675 0.155353,0 0.357512,0.03987 0.449286,0.08916 0.234987,0.125683 0.324285,-0.05582 0.131871,-0.268195 -0.103196,-0.113802 -0.299365,-0.176404 -0.609672,-0.194347 -0.429237,-0.02472 -0.455995,-0.03988 -0.432991,-0.248735 0.01358,-0.122254 0.02316,-0.328246 0.02157,-0.457756 -0.008,-0.186054 0.05671,-0.256231 0.281233,-0.334466 0.156312,-0.05423 0.346969,-0.15527 0.423647,-0.224172 0.07668,-0.06858 0.251201,-0.153197 0.387784,-0.187329 0.21374,-0.05343 0.298086,-0.0096 0.601923,0.308946 0.376442,0.395152 0.592738,0.419476 0.423008,0.04705 -0.08067,-0.176802 -0.07189,-0.249933 0.04792,-0.381598 0.08115,-0.08956 0.147685,-0.187886 0.147685,-0.21843 0,-0.08669 -0.632834,-0.240601 -0.991704,-0.24108 -0.429238,0 -0.744976,-0.251844 -0.658553,-0.523706 0.08618,-0.271067 0.7925,-0.579853 1.032758,-0.451537 0.126359,0.06779 0.244731,0.05264 0.455356,-0.05582 0.223885,-0.115635 0.319892,-0.125046 0.449526,-0.04386 0.20735,0.129192 0.335387,0.05423 0.337144,-0.197379 0.008,-0.261814 0.08267,-0.366125 0.399286,-0.515573 0.164777,-0.07815 0.267015,-0.193629 0.267015,-0.302565 0,-0.179593 -0.115257,-0.20631 -0.445053,-0.103116 -0.366457,0.114759 -0.424205,-0.05662 -0.181791,-0.538382 0.124443,-0.24738 0.226201,-0.536228 0.226201,-0.641895 0,-0.105667 0.124362,-0.305437 0.276281,-0.443959 0.20783,-0.189563 0.261344,-0.298499 0.216296,-0.440131 -0.0607,-0.19052 0.228117,-0.551861 0.613585,-0.767979 0.155752,-0.08724 0.156631,-0.107182 0.01677,-0.377688 -0.08139,-0.157105 -0.178037,-0.285659 -0.214858,-0.285659 -0.174683,0 -0.444494,0.287014 -0.491779,0.522991 -0.03195,0.157582 -0.1258,0.285898 -0.235306,0.320667 -0.10048,0.0319 -0.241696,0.171778 -0.313901,0.31118 -0.162302,0.313491 -0.61622,0.64636 -0.824449,0.604732 -0.228437,-0.04546 -0.13858,-0.698916 0.168771,-1.226292 0.177398,-0.304161 0.180194,-0.369873 0.02077,-0.490293 -0.23315,-0.176245 -0.275003,-0.164841 -0.407592,0.111489 -0.167494,0.348979 -0.39034,0.362375 -0.457353,0.02711 -0.06709,-0.336059 -0.276441,-0.352009 -0.432274,-0.0327 -0.149442,0.306155 -0.336904,0.365807 -0.399445,0.12712 -0.02716,-0.102956 -0.117014,-0.18717 -0.200002,-0.18717 -0.172366,0 -0.476602,-0.312694 -0.85552,-0.879546 -0.214379,-0.320589 -0.261664,-0.485269 -0.263581,-0.917108 -0.008,-0.454486 -0.03275,-0.549626 -0.223804,-0.696202 -0.294412,-0.22585 -0.323646,-0.218832 -0.386027,0.09282 -0.02955,0.146739 -0.104554,0.265404 -0.166934,0.263809 -0.15783,-0.008 -0.794977,-0.457278 -0.870856,-0.619326 -0.03435,-0.07337 -0.134906,-0.283746 -0.223485,-0.467646 -0.166136,-0.344753 -0.165816,-0.347384 0.129474,-0.949246 0.112142,-0.228639 0.259188,-0.200168 0.403279,0.07815 0.134826,0.260458 0.31446,0.367241 0.31446,0.18693 0,-0.04705 0.0877,-0.166995 0.194811,-0.2666 l 0.19481,-0.181189 -0.236903,-0.246901 c -0.197047,-0.205272 -0.225003,-0.291401 -0.166136,-0.511108 0.03914,-0.145381 0.09792,-0.254397 0.131151,-0.242115 0.03355,0.01196 0.09737,0.02233 0.142494,0.02233 0.04553,0 0.125161,0.129992 0.177717,0.28885 0.09042,0.273059 0.607914,0.777786 0.797373,0.777786 0.04792,0 0.143133,-0.05582 0.211344,-0.123689 0.09745,-0.09729 0.108468,-0.263489 0.05112,-0.777788 -0.06949,-0.63041 -0.0639,-0.660636 0.149522,-0.835206 0.121966,-0.09961 0.221728,-0.227201 0.221728,-0.283663 0,-0.372904 0.532833,-0.103992 0.791462,0.399459 0.09377,0.182545 0.271648,0.426336 0.395371,0.541492 0.216376,0.201683 0.223166,0.240043 0.179475,1.022216 -0.02476,0.447069 -0.08219,0.928591 -0.127158,1.070383 -0.04872,0.154951 -0.04952,0.296586 0,0.355518 0.04473,0.05423 0.09473,0.217954 0.111343,0.36461 0.04872,0.427453 0.199683,0.30807 0.275402,-0.217154 0.03834,-0.266041 0.129075,-0.549227 0.20152,-0.629216 0.07268,-0.07999 0.131791,-0.187329 0.131791,-0.238686 0,-0.05104 0.05831,-0.141234 0.128995,-0.20001 0.07109,-0.05901 0.141055,-0.290523 0.155832,-0.515014 0.01677,-0.252564 0.07428,-0.423863 0.151759,-0.449384 0.176679,-0.05822 0.05831,0.89701 -0.163421,1.323665 -0.132189,0.253761 -0.156231,0.440051 -0.118132,0.913918 0.04233,0.531284 0.07588,0.61518 0.309428,0.781136 0.208629,0.148332 0.250402,0.230473 0.206392,0.40576 -0.173084,0.688309 0.827885,0.573072 1.190748,-0.137168 0.09449,-0.184856 0.278277,-0.384625 0.408471,-0.443879 0.262223,-0.119224 0.256152,-0.334466 -0.0088,-0.314687 -0.09297,0.008 -0.29601,0.0646 -0.451283,0.127915 -0.407273,0.166356 -0.600566,-0.008 -0.526204,-0.471393 0.04233,-0.264365 0.01278,-0.39587 -0.134905,-0.595082 -0.168772,-0.227921 -0.182511,-0.324577 -0.125721,-0.888956 0.07029,-0.696044 0.234348,-0.902754 0.573569,-0.721565 0.09473,0.05024 0.219251,0.09203 0.27676,0.09203 0.14441,0 0.03275,-0.410306 -0.201041,-0.737913 -0.153436,-0.21524 -0.171487,-0.315563 -0.105033,-0.583199 0.06869,-0.275213 0.116695,-0.322743 0.324844,-0.319793 0.337464,0.008 0.306233,-0.0957 -0.111583,-0.359027 -0.350003,-0.220663 -0.356154,-0.233502 -0.356154,-0.750353 0,-0.5792924 0.136104,-0.8052204 0.485149,-0.8052204 0.112861,0 0.255115,0.05981 0.316138,0.13334 0.0607,0.07337 0.170449,0.133259 0.243373,0.133259 0.101678,0 0.11965,-0.06779 0.07748,-0.293155 -0.07588,-0.40568 0.108228,-0.658084 0.376202,-0.514936 0.106311,0.05662 0.193213,0.174889 0.193213,0.262452 0,0.182943 0.38379,0.577379 0.474046,0.487264 0.03275,-0.0327 0.05991,-0.13342 0.05991,-0.223057 0,-0.08964 0.05032,-0.162607 0.111263,-0.162208 0.0615,0 0.212463,-0.122015 0.336186,-0.272102 l 0.224763,-0.273059 0.211663,0.183342 c 0.244811,0.211971 0.359508,0.226565 0.566541,0.07177 0.12564,-0.0937 0.13179,-0.144903 0.03914,-0.327129 -0.0607,-0.118825 -0.224285,-0.246502 -0.364142,-0.283745 -0.139938,-0.03748 -0.320212,-0.124647 -0.400564,-0.194267 -0.08043,-0.06938 -0.255833,-0.152479 -0.38978,-0.184219 -0.300323,-0.07098 -0.392097,-0.368996 -0.248166,-0.804662 0.139458,-0.421789 0.217814,-0.452094 0.58483,-0.225608 0.250722,0.154712 0.338183,0.171459 0.442898,0.08477 0.235226,-0.194906 -0.02556,-1.108743 -0.512627,-1.796015 -0.176359,-0.248895 0.03514,-0.388854 0.313103,-0.207027 0.195131,0.127597 0.237942,0.129431 0.352559,0.01515 0.0897,-0.08956 0.2401,-0.115635 0.481076,-0.08334 0.263341,0.03509 0.382194,0.0088 0.477003,-0.105028 0.110463,-0.132941 0.103034,-0.192832 -0.05911,-0.475859 -0.102077,-0.178158 -0.212622,-0.448107 -0.245531,-0.599788 -0.05032,-0.232068 -0.02476,-0.299296 0.165018,-0.423066 0.326922,-0.213885 0.544815,-0.66885 0.417657,-0.872129 -0.142333,-0.227443 -0.123643,-0.570361 0.03994,-0.733686 0.07668,-0.07656 0.170768,-0.139639 0.208308,-0.139639 0.101118,0 0.275083,-0.420913 0.275083,-0.66558104 0,-0.320669 0.117652,-0.336618 0.672689,-0.09155 0.278678,0.123052 0.571893,0.22497004 0.651446,0.22640604 0.07987,0 0.325004,0.158141 0.545211,0.348261 l 0.40057,0.34563 -0.19545,0.263888 c -0.10751,0.145222 -0.17005,0.289247 -0.13914,0.32019 0.0944,0.09418 0.58491,-0.50752 0.64537,-0.791743 0.0503,-0.23478 0.0918,-0.264924 0.34937,-0.252563 0.18354,0.0088 0.38722,0.10455 0.54657,0.256949 0.23514,0.22497 0.27428,0.23454 0.52924,0.129033 0.20862,-0.08629 0.32843,-0.08972 0.49433,-0.01435 0.1786,0.08126 0.27668,0.06699 0.53283,-0.07656 0.17269,-0.09681 0.38667,-0.176085 0.47549,-0.176085 0.0889,0 0.23642,-0.08262 0.32804,-0.18366 0.14616,-0.161251 0.17859,-0.167073 0.26581,-0.04785 0.29545,0.403447 1.26232,0.338691 1.78501,-0.119543 0.39529,-0.34650704 0.95496,-0.52051804 1.15129,-0.35791104 0.18714,0.15511 1.02134,0.187409 1.02134,0.03987 0,-0.05981 -0.0599,-0.15846 -0.13363,-0.219308 -0.29258,-0.242515 -0.0791,-0.541094 0.23147,-0.323859 0.16574,0.115875 0.23227,0.1142 0.58107,-0.01435 0.3183,-0.117789 0.42733,-0.124807 0.56846,-0.03668 0.096,0.05981 0.29657,0.108936 0.44569,0.108936 0.17053,0 0.2921,0.05503 0.3278,0.147694 0.0567,0.146498 -0.11789,0.87890804 -0.33898,1.42558304 -0.10711,0.264765 -0.099,0.299296 0.11829,0.500342 0.2143,0.198335 0.22644,0.246503 0.14881,0.591574 -0.19362,0.860406 -0.64993,1.446557 -1.38508,1.779427 -0.49489,0.224094 -0.60592,0.322902 -0.91631,0.816226 -0.24768,0.393638 -0.62317,0.786399 -1.25728,1.314892 -0.64106,0.534395 -0.95935,0.868302 -1.09394,1.147341 -0.1639,0.340128 -0.24673,0.410147 -0.60823,0.514458 -0.49649,0.143228 -0.54362,0.204315 -0.60384,0.783768 -0.0399,0.379044 -0.083,0.461185 -0.30048,0.564938 -0.22549,0.10758 -0.2393,0.136529 -0.12165,0.2539984 0.10455,0.104311 0.17276,0.11117 0.32109,0.0319 0.11382,-0.06061 0.35719,-0.07815 0.61518,-0.04386 0.33251,0.04386 0.45296,0.02472 0.54521,-0.08581 0.10791,-0.1299104 0.36359,-0.2004884 0.36359,-0.1004834 0,0.1769624 -0.46894,1.0237314 -0.66598,1.2026074 -0.30512,0.277045 -1.11455,1.459237 -1.11455,1.627983 0,0.08438 0.15176,0.14315 0.46733,0.181031 0.72182,0.08653 0.72046,0.087 1.34299,-0.422428 0.48611,-0.397866 0.66718,-0.491171 1.05736,-0.544523 0.29074,-0.03988 0.56598,-0.144265 0.71957,-0.273138 0.41263,-0.34603 0.84035,-0.430721 1.3092,-0.259422 1.21767,0.445077 1.6993,0.491888 2.23757,0.217713 0.31046,-0.158141 0.41893,-0.171219 0.77549,-0.09347 1.3233298,0.288689 2.5227798,0.328723 2.9535398,0.09857 0.0918,-0.04865 0.27564,-0.04147 0.479,0.02153 0.27516,0.08437 0.37205,0.07656 0.58371,-0.04865 0.34713,-0.204715 0.90584,-0.189244 1.28755,0.03589 0.35752,0.210615 0.94091,0.954987 0.94386,1.204281 0,0.09123 0.0799,0.337336 0.17517,0.546835 0.14592,0.321228 0.15966,0.452413 0.0868,0.835604 -0.0939,0.494521 -0.0767,0.46637 -0.82038,1.34129 -0.28155,0.331274 -0.51191,0.673475 -0.51191,0.760482 0,0.08708 -0.0851,0.410146 -0.1893,0.717895 -0.16685,0.493563 -0.1758,0.600347 -0.0759,0.903549 0.10951,0.331196 0.0982,0.375616 -0.30887,1.213134 -0.25727,0.52929 -0.45184,1.072538 -0.49753,1.389059 -0.0575,0.401214 -0.17771,0.676028 -0.52604,1.205797 -0.24808,0.377369 -0.56917,0.773241 -0.71359,0.879864 -0.17556,0.129511 -0.28258,0.304399 -0.32308,0.527457 -0.0336,0.183581 -0.11526,0.441726 -0.18211,0.57379 -0.0671,0.131983 -0.12348,0.351928 -0.12572,0.488777 -0.008,0.398982 -0.18539,0.6848 -0.70816,1.130914 -0.26933,0.229915 -0.59321,0.515414 -0.7196498,0.634638 -0.14401,0.135731 -0.33539,0.216675 -0.51191,0.216675 -0.27484,0 -0.37189,0.111808 -0.19289,0.22218 0.0487,0.0303 0.0891,0.226407 0.0891,0.435986 0,0.447708 0.14201,0.608082 0.7166198,0.809047 0.41102,0.143787 0.7024,0.42482 0.70576,0.680812 0,0.0815 -0.15472,0.272023 -0.34625,0.423545 -0.6210998,0.491171 -1.3771698,0.697401 -1.4891598,0.406158 -0.11334,-0.295068 -0.4873,-0.140278 -1.10911,0.459033 -0.33803,0.325851 -0.61455,0.64046 -0.61455,0.699154 0,0.214124 -0.36949,0.575147 -0.58866,0.575147 -0.25823,0 -0.92477,0.320828 -0.92477,0.445076 0,0.158858 0.6528,0.368199 0.96646,0.309981 0.22469,-0.04147 0.41486,0.008 0.76614,0.180472 l 0.46726,0.236055 0.45704,-0.23127 c 0.36206,-0.183183 0.50264,-0.321068 0.67644,-0.663508 0.25024,-0.493164 0.33866,-0.543486 0.9548,-0.543486 0.3972098,0 0.4753298,0.03349 0.7213398,0.3111 0.15167,0.171139 0.32292,0.311178 0.38051,0.311178 0.1504,0 1.11096,0.521555 1.39043,0.755057 0.15727,0.131346 0.4151,0.218034 0.76694,0.257829 0.64817,0.07337 0.77781,0.200567 1.43117,1.40708 0.47492,0.877233 0.8679,1.313298 1.18324,1.313298 0.34122,0 0.49881,0.16165 0.56094,0.575305 0.0487,0.323381 0.0954,0.402491 0.23891,0.402491 0.31877,0 0.51582,0.173612 0.73363,0.646681 0.4135,0.898206 0.51023,1.303248 0.39945,1.672405 -0.0884,0.29483 -0.0767,0.376331 0.0971,0.670366 0.15479,0.261892 0.18586,0.414452 0.14281,0.701226 -0.0447,0.298261 -0.0176,0.413815 0.14593,0.62148 0.13562,0.172258 0.20168,0.378009 0.20335,0.633603 0,0.208222 0.0495,0.425537 0.10671,0.482796 0.0575,0.05742 0.0842,0.156626 0.0599,0.220665 -0.0463,0.120897 0.26359,0.711356 0.69864996,1.330284 0.19481,0.277044 0.26958,0.516609 0.33324,1.066634 0.14377,1.244235 0.25798,1.547201 0.77428,2.054241 0.30208,0.296586 0.47461,0.544683 0.49354,0.709681 0.0248,0.219948 0.14465,0.316681 0.89402004,0.725232 0.47572,0.259344 1.00352,0.4824 1.17293,0.495798 0.1695,0.01357 0.46135,0.129909 0.64865,0.259181 0.18731,0.129272 0.61295,0.358071 0.94594,0.508477 0.53906,0.243552 0.62389,0.31692 0.77573,0.670604 0.0939,0.218432 0.20783,0.397148 0.25343,0.397148 0.10719,0 0.63563,0.820691 0.63563,0.987127 0,0.210775 0.44042,0.790387 0.73779,0.970936 0.15328,0.09307 0.34042,0.295469 0.4159,0.449783 0.0995,0.203517 0.2548,0.324574 0.56518,0.440849 0.69003,0.258225 0.86886,0.479527 0.46878,0.579772 -0.39058,0.09793 -0.52325,0.336616 -0.47661,0.857534 0.0655,0.734404 0.54602,1.746492 1.20257,2.534087 0.31678,0.38 0.63755,0.810962 0.71287,0.95754 0.0751,0.146737 0.2716502,0.416845 0.4364302,0.600267 0.17068,0.190278 0.29944,0.428967 0.29944,0.555608 0,0.26293 -0.14281,0.295068 -0.22085,0.05024 -0.0837,-0.263251 -0.5825902,-0.394198 -1.0122302,-0.265644 -0.44409,0.132783 -0.72964,0.06221 -1.11407,-0.274493 -0.33539,-0.294032 -0.50176,-0.336378 -0.50176,-0.127519 0,0.213808 0.61143,0.730178 1.20185,1.01496 0.3413,0.16468 0.59274,0.356794 0.69617,0.532242 0.2298,0.38925 0.5314802,0.565097 0.8498502,0.495316 0.25272,-0.05582 0.26933,-0.03828 0.45512,0.458793 0.10607,0.284064 0.46661,0.976361 0.80136,1.538588 0.33475,0.562145 0.64969,1.173977 0.69985,1.35955 0.15368,0.568846 -0.1742,1.466255 -0.54154,1.481966 -0.0655,0.008 -0.81303,0.950683 -1.38332,1.75335 -0.16054,0.226088 -0.27764,0.454007 -0.26015,0.506563 0.0176,0.05263 0.19378,0.127517 0.39162,0.166594 0.25727,0.05104 0.46287,0.180948 0.72205,0.457039 0.35648,0.379762 0.37173,0.385982 0.94929,0.385982 0.68635,0 0.6826,0.008 1.02637,-1.079395 0.32077,-1.010493 0.36558,-1.034498 2.05705,-1.100767 0.75385,-0.02951 1.53093,-0.05184 1.72677,-0.04945 0.75169,0.0096 1.99412,0.198096 2.28142,0.346109 0.65136,0.33566 2.38453,1.555893 2.56065,1.802793 0.38083,0.533916 0.72197,1.383398 0.72205,1.79777 8e-5,0.223296 0.0639,0.6214 0.14234,0.884488 0.0865,0.29069 0.12012,0.60218 0.0858,0.7939 -0.0311,0.17353 -0.0954,0.54229 -0.14313,0.81949 -0.0471,0.27713 -0.18595,0.71718 -0.30743,0.9778 -0.15624,0.3351 -0.22117,0.6277 -0.22181,0.99981 0,0.28932 -0.0447,0.78934 -0.0984,1.11105 -0.0859,0.51494 -0.14257,0.6277 -0.47308,0.94063 -0.20656,0.19555 -0.53979,0.59557 -0.74035,0.88888 -0.2008,0.29332 -0.48978,0.61334 -0.64242,0.71112 -0.15271,0.0978 -0.33962,0.27114 -0.41542,0.38526 -0.12596,0.18956 -0.1242,0.22258 0.02,0.38224 0.152,0.16771 0.15152,0.18757 -0.012,0.49053 -0.21534,0.39922 -0.66742,0.77396 -1.08995,0.90347 -0.26917,0.0825 -0.36558,0.075 -0.5417,-0.0399 -0.16885,-0.11037 -0.26014,-0.1193 -0.43003,-0.0423 -0.11869,0.0542 -0.29066,0.0982 -0.38219,0.0982 -0.0915,0 -0.24194,0.10336 -0.33411,0.22976 -0.0951,0.13031 -0.29769,0.25639 -0.46813,0.29116 -0.16534,0.0335 -0.31742,0.11205 -0.33819,0.17409 -0.0487,0.1461 0.33954,0.0622 0.81598,-0.1764 0.46183,-0.23112 0.5421,-0.1335 0.55049,0.66916 0.008,0.35505 0.0343,0.69055 0.0687,0.74557 0.0351,0.0574 -0.15368,0.31015 -0.44537,0.59437 l -0.50711,0.49444 h -0.60353 c -0.49193,0 -0.6623,0.0399 -0.92157,0.21548 -0.17484,0.11851 -0.28682,0.2339 -0.24873,0.25655 0.0383,0.0223 0.31806,0.0694 0.6223,0.10391 0.43395,0.0494 0.5647,0.0996 0.60719,0.23335 0.0367,0.11475 0.13203,0.16811 0.29273,0.16356 0.72213,-0.0199 1.51471,0.41916 1.38133,0.76614 -0.0703,0.18367 0.28059,0.16429 0.90424,-0.0502 0.52085,-0.17895 1.8338,-0.38725 2.49332,-0.39571 0.3472,-0.008 0.35679,0.008 0.38339,0.32394 0.024,0.28877 -0.008,0.34539 -0.24474,0.46892 -0.14976,0.0774 -0.27228,0.16197 -0.27228,0.18821 0,0.0263 0.10359,0.2662 0.23011,0.5332 0.17796,0.37569 0.2171,0.56206 0.17269,0.82412 -0.11606,0.68567 -0.29362,0.84421 -1.44826,1.29271 -1.35505,0.52626 -1.54642,0.70841 -1.61799,1.54043 l -0.0519,0.6017 h -0.40056 c -0.22029,0 -0.51151,-0.0311 -0.64697,-0.0686 -0.21278,-0.059 -0.30408,-0.0144 -0.66774,0.32283 -0.46653,0.43271 -0.88866,0.66677 -1.62318,0.90004 -0.73515,0.23358 -1.17229,0.52275 -1.46894,0.97173 -0.16861,0.25528 -0.33275,0.40457 -0.44513,0.40496 -0.19186,0 -0.84913,-0.21133 -1.14514,-0.36955 -0.27005,-0.14427 -1.81384,-0.4265 -2.3350102,-0.42689 -0.24929,0 -0.64993,0.059 -0.89027,0.13214 -0.24041,0.0726 -0.61813,0.13278 -0.83946,0.13326 -0.22133,0 -0.69154,0.081 -1.0449,0.17879 -0.35344,0.0978 -0.73523,0.17776 -0.84849,0.17776 -0.24761,0 -0.4195,0.15416 -0.4195,0.37618 0,0.22162 -0.23986,0.29722 -0.4262,0.13422 -0.45272,-0.39604 -1.01582,-0.50115 -2.11104,-0.3938 -0.45983,0.0455 -0.84091,-0.11899 -1.35114,-0.58169 -0.24593,-0.22306 -0.36613,-0.15056 -0.31605,0.19044 0.0344,0.23295 0.008,0.27426 -0.21518,0.32824 -0.13986,0.0335 -0.33331004,0.11588 -0.42996004,0.18191 -0.0966,0.0662 -0.25072,0.1201 -0.34265,0.1201 -0.0918,0 -0.28467,0.12569 -0.42844,0.27944 -0.23331,0.24937 -0.28563,0.26851 -0.48507,0.17776 -0.33212,-0.15104 -1.01071996,-0.13111 -1.07325996,0.0319 -0.0367,0.0959 -0.18722,0.13334 -0.53579,0.13334 -0.26653,0 -0.60216,0.0606 -0.74593,0.13493 -0.26094,0.1347 -0.42285,0.48033 -0.31023,0.66216 0.0328,0.0526 0.032,0.21882 0,0.36883 -0.0439,0.19961 -0.14145,0.30671 -0.36374,0.39946 -0.28307,0.11811 -0.33243,0.11149 -0.72484,-0.0971 -0.30169,-0.16038 -0.5588,-0.22378 -0.90617,-0.22378 -0.26677,0 -0.7147,-0.047 -0.99561,-0.10534 -0.39833,-0.0821 -0.53923,-0.0815 -0.64114,0.008 -0.24282,0.20121 -0.2381,0.45138 0.0128,0.68377 0.18418,0.1705 0.21637,0.25136 0.14504,0.36421 -0.14033,0.2221 -0.23027,0.19195 -0.34057,-0.1138 -0.2143,-0.59429 -1.97087,-1.82273 -2.88007,-2.01405 -0.3922498,-0.0825 -0.5139798,-0.0742 -0.7819498,0.0534 -0.17453,0.0831 -0.3897,0.15112 -0.4782,0.15112 -0.0884,0 -0.46894,0.079 -0.84554,0.17489 -0.52493,0.13406 -0.78523,0.25942 -1.11511,0.53719 -0.23674,0.19929 -0.56853,0.40042 -0.73739,0.44699 -0.25687,0.071 -0.3476,0.16962 -0.55623,0.60529 -0.2028,0.4237 -0.23075,0.55513 -0.15008,0.70561 0.15495,0.28909 0.11821,0.45848 -0.12341,0.56845 -0.2746,0.12489 -0.2869,0.36389 -0.028,0.53583 0.1798,0.11922 0.18579,0.15152 0.0767,0.41397 -0.0647,0.15663 -0.29097,0.40864 -0.50208,0.56 -0.35991,0.25806 -0.57117,0.61398 -0.57117,0.9624 0,0.26533 -0.29721,0.44556 -0.71926,0.43599 -0.677,-0.0152 -0.8266,-0.0932 -0.95616,-0.49835 -0.14704,-0.45967 -0.6286,-0.70474 -1.07764,-0.54843 -0.22724,0.0789 -0.32141,0.063 -0.58507,-0.0996 -0.17277,-0.1067 -0.3572,-0.27409 -0.40975,-0.3721 -0.0951,-0.1776 -0.0962,-0.17752 -0.29394,0.008 -0.24848,0.23311 -0.30431,0.23223 -0.56078,-0.008 -0.30624,-0.28718 -1.15785,-0.33559 -1.55833,-0.0885 -0.23411,0.1445 -0.44201,0.18166 -1.00648,0.17975 -0.391296,0 -0.757515,-0.0399 -0.813746,-0.0864 -0.180273,-0.14801 -0.560468,0.28112 -0.679639,0.76734 -0.101997,0.41581 -0.127078,0.44444 -0.388342,0.44444 -0.153597,0 -0.356952,0.0702 -0.451842,0.15559 -0.09481,0.0855 -0.238421,0.15551 -0.318934,0.15551 -0.08059,0 -0.207349,0.117466 -0.281712,0.261096 -0.193611,0.37378 -0.28842,0.39969 -0.437464,0.11938 l -0.131392,-0.24706 -0.150161,0.3548 c -0.15791,0.37346 -0.198485,0.85769 -0.09673,1.15627 0.09161,0.26883 -0.242654,0.75554 -0.518935,0.75554 -0.156232,0 -0.262383,0.079 -0.359748,0.2666 -0.174443,0.33694 -0.272287,0.33558 -0.480596,-0.008 z M 1.5086928,95.112344 c -0.10679,-0.19929 -1.18244004,-0.80913 -1.42709004,-0.80913 -0.42876,0 -0.18291,-0.4627 0.33195,-0.62467 0.18347,-0.0574 0.48291,-0.2008 0.66550004,-0.31796 0.37261,-0.239 0.80472,-0.2693 1.13708,-0.0797 0.12236,0.0702 0.32572,0.12839 0.45176,0.13023 0.2528,0.008 0.61654,0.33287 0.61654,0.55832 0,0.079 -0.11494,0.22544 -0.25536,0.32529 -0.14041,0.0998 -0.30631,0.30448 -0.36861,0.45472 -0.19649,0.47347 -0.96295,0.71495 -1.15177,0.36278 z M -28.053121,81.858874 c 0,-0.0486 0.04233,-0.0888 0.09433,-0.0888 0.05192,0 0.06949,0.0399 0.03914,0.0888 -0.03035,0.0486 -0.07268,0.0889 -0.09433,0.0889 -0.02157,0 -0.03914,-0.0399 -0.03914,-0.0889 z m -4.686951,-27.424062 c -0.02875,-0.07417 -0.271328,-0.280716 -0.539382,-0.458395 -0.600805,-0.398105 -1.203528,-0.444278 -1.454968,-0.111487 -0.122126,0.161728 -0.208628,0.189641 -0.460947,0.14873 -0.221089,-0.03589 -0.384589,0 -0.568057,0.119224 -0.141615,0.09323 -0.369733,0.169785 -0.506955,0.170103 -0.350003,0 -0.570213,-0.506004 -0.427001,-0.983219 0.05352,-0.179114 0.09777,-0.388136 0.09777,-0.464533 0,-0.207427 -0.241137,-0.408393 -0.430596,-0.358949 -0.119011,0.0311 -0.284747,-0.09139 -0.580198,-0.428569 -0.336984,-0.384547 -0.413662,-0.534873 -0.413662,-0.810563 0,-0.186132 -0.07828,-0.491729 -0.174123,-0.679216 -0.168533,-0.329761 -0.647212,-0.807614 -0.809034,-0.807614 -0.04393,0 -0.275163,0.170023 -0.514702,0.377768 -0.23946,0.207826 -0.520853,0.44707 -0.625486,0.531843 l -0.190018,0.154154 0.186823,0.357832 c 0.250242,0.479367 0.177318,0.735042 -0.258469,0.905942 -0.263182,0.103194 -0.360867,0.202481 -0.427481,0.43415 -0.07508,0.261814 -0.135465,0.310061 -0.469733,0.376094 -0.310147,0.06141 -0.4155,0.04705 -0.551444,-0.07576 -0.143931,-0.130069 -0.206472,-0.135971 -0.435867,-0.04147 -0.468136,0.19363 -0.871415,0.04785 -1.368944,-0.494441 -0.320131,-0.348979 -0.506475,-0.48176 -0.675966,-0.48176 -0.323406,0 -0.596572,-0.212609 -0.656317,-0.510869 -0.05751,-0.287892 -0.667499,-1.08753 -0.990425,-1.298784 -0.194252,-0.127037 -0.674448,-0.92835 -0.674448,-1.12525 0,-0.04147 0.1631,-0.167391 0.362304,-0.279199 0.254395,-0.142828 0.37756,-0.27912 0.413343,-0.457916 l 0.05112,-0.254556 0.606956,0.06061 0.607035,0.06061 0.492018,-0.430882 c 0.496171,-0.43447 0.645294,-0.712871 0.328039,-0.612388 -0.225322,0.07177 -0.627483,-0.09139 -0.924291,-0.374101 -0.307352,-0.292755 -0.310227,-0.492287 -0.0096,-0.688866 0.198085,-0.12967 0.288182,-0.138045 0.571651,-0.05343 0.285067,0.08525 0.405995,0.07337 0.791941,-0.07895 0.250482,-0.09857 0.574128,-0.179195 0.719257,-0.179195 0.237143,0 0.263741,-0.02871 0.263741,-0.283186 0,-0.167791 0.07828,-0.366444 0.192175,-0.487421 0.105751,-0.112287 0.259906,-0.396191 0.342655,-0.630731 0.111822,-0.31716 0.357831,-0.636633 0.959435,-1.245911 0.841063,-0.851793 0.983237,-0.92221 1.481565,-0.733048 0.125161,0.04705 0.288102,0.063 0.362065,0.03509 0.216535,-0.08294 0.634831,-0.769572 0.695215,-1.1412 0.07428,-0.457277 0.159346,-0.522673 0.469813,-0.361023 0.395771,0.20607 1.00009,0.16859 1.417347,-0.08804 0.195849,-0.120418 0.480916,-0.219148 0.633473,-0.219386 0.152558,-4.22e-4 0.381155,-0.08214 0.508153,-0.181828 0.192494,-0.151124 0.309348,-0.172097 0.702004,-0.126002 0.259108,0.0303 0.631316,0.116912 0.827165,0.192273 0.195849,0.07496 0.542977,0.131426 0.771414,0.124647 0.351202,-0.01036 0.444094,0.02392 0.601045,0.223296 0.289699,0.36772 0.405675,0.851953 0.286185,1.194312 -0.138181,0.395712 -0.133388,0.413896 0.144171,0.548112 0.208468,0.100801 0.244811,0.172974 0.244811,0.485748 0,0.250011 0.0607,0.433752 0.189219,0.575385 0.104074,0.114358 0.240897,0.307988 0.303997,0.430164 0.198324,0.383827 0.740103,0.977796 0.891782,0.977796 0.399925,0 0.649847,0.790625 0.389222,1.231235 -0.15751,0.266121 -0.274125,0.344354 -0.819498,0.549308 -0.332112,0.124805 -0.684352,0.561588 -0.609671,0.755855 0.07189,0.186772 0.181552,0.162608 0.508392,-0.112046 0.231233,-0.194267 0.413743,-0.253999 0.919419,-0.30097 0.84921,-0.07895 1.208239,0.10431 1.210076,0.617172 3.17e-4,0.08158 0.05671,0.255037 0.124522,0.385505 0.06789,0.130469 0.153117,0.409587 0.188741,0.620282 0.03514,0.210696 0.122445,0.470837 0.192813,0.578017 0.103595,0.157903 0.108787,0.268275 0.02716,0.579772 -0.20759,0.795253 -0.293054,1.012966 -0.482753,1.229164 -0.107269,0.122174 -0.291057,0.368437 -0.408471,0.547153 -0.303597,0.462301 -0.580677,0.601543 -1.084196,0.544682 -0.813348,-0.09179 -1.140428,0.120261 -1.140428,0.739587 0,0.559915 -0.177957,0.919501 -0.668058,1.350301 -0.451123,0.396429 -0.640342,0.458633 -0.724928,0.238368 z m 9.718792,0.03509 c -0.145928,-0.03987 -0.419891,-0.04865 -0.608791,-0.01834 l -0.343613,0.05503 0.242812,-0.47841 c 0.133549,-0.263091 0.267336,-0.678421 0.297288,-0.922929 0.04712,-0.388137 0.09577,-0.471313 0.380596,-0.655213 0.295051,-0.19068 0.573571,-0.656252 0.813111,-1.359234 0.11126,-0.32657 1.1552,-0.887361 1.32892,-0.713907 0.0415,0.04147 0.0344,0.184617 -0.0168,0.318035 -0.14449,0.379444 -0.11445,0.486307 0.22357,0.795572 l 0.3159,0.28885 -0.19521,0.173213 c -0.10735,0.0953 -0.28491,0.373303 -0.39458,0.617651 -0.10958,0.24451 -0.28402,0.520679 -0.3877,0.613745 -0.10367,0.09315 -0.18842,0.222897 -0.18842,0.28821 0,0.06539 -0.14944,0.189163 -0.33211,0.275133 -0.18267,0.08597 -0.41303,0.284223 -0.51191,0.440689 -0.21861,0.34555 -0.28411,0.375217 -0.623167,0.281912 z m -3.989178,-16.433926 c -0.125801,-0.09881 -0.285866,-0.367479 -0.357512,-0.600026 -0.488424,-1.585718 -0.498009,-1.738117 -0.137941,-2.195156 0.276121,-0.350494 0.716861,-0.521236 1.006002,-0.38973 0.326041,0.148332 0.617257,0.798122 0.557353,1.243677 -0.03834,0.282868 -0.008,0.422905 0.17029,0.677463 0.132589,0.195144 0.193531,0.375215 0.155432,0.45951 -0.03434,0.07656 -0.0655,0.262451 -0.06949,0.413655 -0.01118,0.420593 -0.187142,0.569483 -0.673809,0.569483 -0.288341,0 -0.494493,-0.05662 -0.650006,-0.178876 z m -6.822756,-1.83541 c -0.254476,-0.177918 -0.18882,-0.524665 0.152877,-0.807292 0.228037,-0.188606 0.233868,-0.211972 0.107589,-0.430405 -0.07348,-0.127117 -0.233709,-0.290523 -0.356154,-0.363173 -0.212542,-0.126242 -0.240099,-0.115875 -0.615661,0.230473 -0.625407,0.576581 -0.914068,0.414214 -0.504399,-0.283744 0.126439,-0.215401 0.229875,-0.519322 0.229875,-0.67555 0,-0.616376 0.596092,-1.419124 0.979403,-1.319039 0.122445,0.0319 0.372288,-0.05981 0.713107,-0.262851 0.558552,-0.332232 0.711189,-0.327925 0.711189,0.01994 0,0.295627 0.14457,0.272898 0.311106,-0.04865 0.07588,-0.146177 0.237063,-0.330795 0.35839,-0.410146 0.146407,-0.09578 0.220769,-0.226803 0.220769,-0.388852 0,-0.34555 0.243533,-0.61518 1.122057,-1.24272 1.146418,-0.818699 1.32733,-0.606886 0.536188,0.627699 -0.263102,0.410625 -0.570933,1.010016 -0.683953,1.332039 -0.148884,0.424102 -0.273086,0.624112 -0.450564,0.725869 -0.1889,0.108221 -0.25144,0.218433 -0.273086,0.481123 -0.02796,0.337178 -0.03195,0.340845 -0.405356,0.340845 -0.426203,0 -0.432672,0.01675 -0.237063,0.604254 0.07827,0.234621 0.119011,0.514617 0.09113,0.622278 -0.07428,0.285339 -0.830041,0.86232 -1.130044,0.86232 -0.170688,0 -0.266536,0.05582 -0.305354,0.177918 -0.0889,0.279439 -0.339461,0.370512 -0.572051,0.207826 z m 3.55443,-0.891906 c 0,-0.252802 0.391458,-0.738232 0.595374,-0.738232 0.157909,0 0.148085,0.08477 -0.0655,0.566454 -0.126998,0.286696 -0.234907,0.411342 -0.356074,0.411342 -0.129474,0 -0.173963,-0.06141 -0.173963,-0.239564 z m -3.009057,-4.222601 c -0.205433,-0.205114 -0.119011,-0.590457 0.215098,-0.959772 0.326202,-0.360464 0.568297,-0.458795 0.568297,-0.230793 0,0.186772 -0.515022,1.297188 -0.601604,1.297188 -0.04153,0 -0.123084,-0.04785 -0.181791,-0.106623 z m -4.217377,-5.229903 c -0.08187,-0.04785 -0.1758,-0.209102 -0.208708,-0.358788 -0.08115,-0.369077 0.145129,-0.614463 0.571651,-0.619647 0.176041,-0.008 0.480357,-0.06141 0.676126,-0.131984 0.457592,-0.164599 0.489621,-0.162686 0.489621,0.02871 0,0.19682 -0.166615,0.373384 -0.352479,0.373384 -0.07588,0 -0.18882,0.07999 -0.250003,0.17776 -0.0615,0.09777 -0.191935,0.177757 -0.290658,0.177757 -0.109586,0 -0.212542,0.08661 -0.26414,0.222261 -0.09225,0.242195 -0.146407,0.261175 -0.37141,0.130069 z m 1.706807,-1.372632 c 0,-0.137805 0.845616,-1.019981 1.118383,-1.16664 0.346569,-0.186371 0.439861,-0.136769 0.357751,0.19004 -0.101758,0.404884 -0.670215,0.910489 -1.097775,0.976442 -0.208069,0.0319 -0.378359,0.0319 -0.378359,1.58e-4 z m -5.901579,-2.890721 c 0.02556,-0.09777 0.0615,-0.177839 0.08067,-0.177839 0.01837,0 0.03435,0.08007 0.03435,0.177839 0,0.09777 -0.03674,0.17776 -0.08067,0.17776 -0.04393,0 -0.05991,-0.07999 -0.03435,-0.17776 z m 8.803527,0.01435 c -0.03035,-0.05024 -0.01278,-0.117231 0.04074,-0.150007 0.136823,-0.08445 0.225162,0.0311 0.110944,0.145381 -0.0639,0.0638 -0.113819,0.06539 -0.15136,0.008 z m 0.409828,-0.565017 c -0.164139,-0.163885 -0.130273,-0.282071 0.160865,-0.560552 0.361585,-0.345869 0.522609,-0.210296 0.366937,0.308866 -0.111264,0.370511 -0.312544,0.466527 -0.527802,0.251686 z m -8.672455,-0.548031 c -0.292256,-0.221701 0.008,-1.13219 0.530437,-1.634126 0.273565,-0.26054 0.335467,-0.252564 0.46526,0.05981 0.145689,0.351371 0.05911,0.569323 -0.35823,0.899244 -0.265179,0.209579 -0.351362,0.341402 -0.351362,0.536945 0,0.284782 -0.05671,0.311976 -0.286105,0.137805 z m 7.540974,-0.381279 c -0.08522,-0.129831 -0.260067,-0.330398 -0.388583,-0.445715 l -0.233788,-0.209579 0.348726,-0.309903 c 0.191775,-0.170422 0.439861,-0.309902 0.551363,-0.309902 0.436107,0 0.62972,0.7415 0.327161,1.253007 -0.190178,0.321386 -0.40336,0.329122 -0.604879,0.02233 z m -0.893859,-1.193435 c -0.03275,-0.05263 -0.155274,-0.07177 -0.272368,-0.04227 -0.153595,0.03828 -0.212861,0.01595 -0.212861,-0.07999 0,-0.178638 0.411825,-0.275053 0.579878,-0.135811 0.147126,0.121935 0.178996,0.35464 0.04872,0.35464 -0.04553,0 -0.110465,-0.04306 -0.143213,-0.0961 z m -5.025533,-0.476411 c 0,-0.07018 0.03994,-0.152799 0.08898,-0.183023 0.04872,-0.0303 0.08898,0.02791 0.08898,0.128076 0,0.100724 -0.03994,0.183022 -0.08898,0.183022 -0.04872,0 -0.08898,-0.05742 -0.08898,-0.128075 z m -0.03594,-0.395551 c -0.300962,-0.04705 -0.362544,-0.0973 -0.458711,-0.375857 -0.205434,-0.595162 -0.247846,-1.593691 -0.08403,-1.979994 0.105992,-0.249851 0.130273,-0.466289 0.08738,-0.777786 -0.05032,-0.363414 -0.03674,-0.431518 0.08523,-0.431518 0.217095,0 0.260466,-0.223776 0.09281,-0.479129 -0.141056,-0.215002 -0.139378,-0.238767 0.03275,-0.457277 0.253278,-0.321467 0.08059,-0.726271 -0.550165,-1.289694 -0.386905,-0.345628 -0.380755,-0.467165 0.04393,-0.851793 0.271488,-0.246103 1.022774,-0.340207 1.133798,-0.142111 0.120368,0.214683 0.36462,0.05901 0.517737,-0.330398 0.07588,-0.192752 0.194331,-0.372107 0.263341,-0.398583 0.155513,-0.05981 0.265099,0.193869 0.1385,0.32027 -0.140337,0.140039 0.04792,0.587986 0.27692,0.659281 0.106071,0.0327 0.219012,0.100721 0.250961,0.150326 0.05991,0.09346 -0.133388,0.730017 -0.273485,0.90028 -0.04393,0.05343 -0.108228,0.288848 -0.143213,0.523868 -0.04633,0.309663 -0.122445,0.46573 -0.277079,0.566772 -0.193852,0.126959 -0.20783,0.18007 -0.153836,0.586469 l 0.05911,0.446991 -0.280354,-0.05583 c -0.233788,-0.04705 -0.280434,-0.02871 -0.280434,0.108618 0,0.0906 0.05511,0.210218 0.122046,0.265882 0.22596,0.187169 0.236664,0.777387 0.02157,1.189367 -0.211743,0.405842 -0.247047,1.216803 -0.06789,1.551586 0.08794,0.163885 -0.01677,0.403926 -0.160704,0.367003 -0.02716,-0.008 -0.205354,-0.03668 -0.39657,-0.06619 z m -1.967434,-5.254707 c -0.06709,-0.108537 0.177079,-0.215959 0.307751,-0.135334 0.05112,0.0319 0.09329,0.09522 0.09329,0.141236 0,0.112046 -0.330994,0.10726 -0.401043,-0.008 z m 4.265541,-2.354892 c -0.08027,-0.122254 -0.20136,-0.222259 -0.269172,-0.222259 -0.06789,0 -0.123324,-0.07736 -0.123324,-0.172496 0,-0.0949 -0.03994,-0.1972184 -0.08906,-0.2274424 -0.04872,-0.0303 -0.08898,-0.117231 -0.08898,-0.19339 0,-0.09713 0.05591,-0.12377 0.187861,-0.0894 0.130992,0.03429 0.254236,-0.02313 0.406953,-0.189642 0.486826,-0.530567 0.608234,-0.638706 0.716462,-0.638706 0.18227,0 0.130113,-0.244748 -0.08411,-0.394515 -0.108468,-0.07576 -0.323166,-0.161491 -0.477082,-0.19036 -0.183628,-0.03429 -0.391378,-0.185574 -0.604,-0.439573 -0.463822,-0.554013 -0.424365,-0.676108 0.143213,-0.442764 0.231232,0.09506 0.204075,-0.258704 -0.03674,-0.483036 -0.223405,-0.207825 -0.253517,-0.629455 -0.07748,-1.08442 0.389302,-1.005229 0.371809,-0.98266 0.712867,-0.919021 0.380595,0.07098 0.546811,0.196022 0.515501,0.387817 -0.01837,0.116353 0.05112,0.140198 0.368694,0.125524 0.519734,-0.02472 0.621971,-0.134855 0.4278,-0.463099 -0.233149,-0.394037 -0.198644,-0.702664 0.09265,-0.82739 0.134586,-0.05742 0.344891,-0.170981 0.467337,-0.251846 0.122445,-0.0807 0.334348,-0.173852 0.471011,-0.206867 0.136583,-0.0327 0.477162,-0.269391 0.756718,-0.525383 0.279555,-0.255993 0.648489,-0.56127 0.819896,-0.678341 0.171408,-0.11715 0.421091,-0.313411 0.554878,-0.436144 0.235866,-0.216278 0.248725,-0.218112 0.421171,-0.0622 0.238581,0.21572 0.319971,0.711117 0.193932,1.181633 -0.06869,0.255913 -0.07428,0.439733 -0.01677,0.546755 0.06709,0.125764 0.03514,0.207745 -0.14481,0.373462 -0.306233,0.281193 -0.741221,0.877393 -0.741221,1.016076 0,0.227921 0.297926,0.221222 0.638665,-0.01435 0.397927,-0.275371 0.498407,-0.236055 0.344492,0.134695 -0.177718,0.428409 -0.408231,0.58974 -0.671573,0.469958 -0.311424,-0.141713 -0.667658,0.008 -0.667658,0.272899 0,0.112605 -0.0623,0.292916 -0.137542,0.400736 -0.09457,0.134775 -0.111982,0.244987 -0.05591,0.353047 0.04473,0.08645 0.108548,0.343077 0.141535,0.570361 0.05671,0.388933 0.04393,0.42458 -0.211184,0.606008 -0.149123,0.106065 -0.271169,0.251925 -0.271169,0.324177 0,0.213328 -0.398487,0.548271 -0.771494,0.648595 -0.531954,0.142989 -0.697212,0.292677 -0.574926,0.520757 0.180114,0.335901 -0.08243,0.349697 -0.359029,0.01834 -0.281633,-0.336857 -0.427321,-0.300093 -0.260387,0.06539 0.09848,0.215799 0.08922,0.26006 -0.08442,0.400417 -0.10727,0.08677 -0.266217,0.157742 -0.353039,0.157742 -0.0869,0 -0.229635,0.109176 -0.317256,0.2427554 -0.192095,0.292597 -0.488663,0.550264 -0.638106,0.554251 -0.05991,0 -0.174842,-0.09697 -0.255114,-0.219228 z m -1.505687,-0.311737 c -0.03115,-0.04944 0.0088,-0.114199 0.08762,-0.1443444 0.170449,-0.06539 0.265418,0.008 0.183468,0.1390814 -0.07428,0.119383 -0.198964,0.121856 -0.271089,0.008 z m -8.857761,-1.0660774 c 0,-0.04865 0.03994,-0.08884 0.08898,-0.08884 0.04872,0 0.08906,0.03987 0.08906,0.08884 0,0.04865 -0.03994,0.08892 -0.08906,0.08892 -0.04872,0 -0.08898,-0.03987 -0.08898,-0.08892 z m 10.149066,-0.101123 -0.222606,-0.0894 0.213741,-0.17433 c 0.261344,-0.213008 0.409429,-0.17752 0.409429,0.09825 0,0.245705 -0.0988,0.286536 -0.400564,0.165478 z m 25.393076,-9.69167004 c -0.0607,-0.05981 -0.1095,-0.188127 -0.1095,-0.28446296 0,-0.09642 -0.0695,-0.252244 -0.15504,-0.346348 -0.14832,-0.163564 -0.14544,-0.178237 0.0671,-0.339329 0.12197,-0.09267 0.30856,-0.254398 0.41463,-0.359506 0.11302,-0.111967 0.2512,-0.168668 0.33387,-0.137008 0.18075,0.06938 0.17771,0.179195 -0.0144,0.530726 -0.0857,0.156466 -0.15576,0.443481 -0.15576,0.637828 0,0.37457796 -0.17013,0.50791796 -0.38027,0.29809996 z m -2.04578,-0.52833396 c -0.0615,-0.063 -0.11167,-0.156227 -0.11215,-0.207585 0,-0.05184 -0.14073,-0.268992 -0.31166,-0.483674 -0.17093,-0.214604 -0.31071,-0.444598 -0.31071,-0.511028 0,-0.159737 0.32205,-0.476417 0.48435,-0.476417 0.2298,0 0.25088,-0.186293 0.0455,-0.404245 -0.18778,-0.199531 -0.19728,-0.26644 -0.14744,-1.037847 0.0479,-0.74493 0.0759,-0.843818 0.28539,-1.024608 0.26757,-0.230473 0.65432,-0.257188 1.01654,-0.07018 0.30591,0.157982 0.38323,0.100802 0.25224,-0.186372 -0.0775,-0.170343 -0.0711,-0.244349 0.0303,-0.346188 0.11366,-0.113402 0.19002,-0.107501 0.6155,0.04785 0.26718,0.09753 0.49897,0.177281 0.51518,0.177281 0.016,0 0.0168,0.109973 0,0.244429 -0.0208,0.174729 -0.11014,0.282469 -0.31558,0.377768 -0.29665,0.137646 -0.39337,0.355519 -0.15775,0.355519 0.15983,0 0.16191,0.01914 0.0344,0.297222 -0.0543,0.119144 -0.19449,0.267796 -0.3115,0.330318 -0.11702,0.0622 -0.21278,0.141793 -0.21278,0.176165 0,0.08836 0.66981,0.184777 0.83747,0.1205 0.095,-0.03668 0.16717,0.01994 0.22684,0.176244 0.0751,0.197377 0.12532,0.222019 0.35727,0.175686 0.1726,-0.03429 0.26989,-0.01754 0.26989,0.04625 0,0.05503 0.14018,0.100004 0.31166,0.100004 0.27021,0 0.31159,0.02871 0.31159,0.215002 0,0.149768 -0.0945,0.273218 -0.31159,0.407275 -0.1714,0.105666 -0.31166,0.224651 -0.31166,0.264366 0,0.27585 -0.83563,0.04705 -0.93172,-0.254797 -0.10855,-0.341402 -0.27365,-0.38965 -0.66031,-0.192671 -0.59146,0.301209 -1.07869,0.211892 -1.07869,-0.197696 0,-0.09442 -0.0487,-0.151203 -0.11134,-0.130309 -0.1627,0.05423 -0.0847,0.618368 0.10767,0.777706 0.0885,0.07337 0.20703,0.223376 0.26342,0.333349 0.0767,0.14921 0.18091,0.200009 0.41111,0.200009 0.37005,0 0.38946,0.12377 0.0751,0.480404 -0.17469,0.198414 -0.32365,0.267078 -0.64266,0.296505 -0.26694,0.02472 -0.45504,-0.008 -0.52661,-0.07576 z m 2.39084,-2.956275 c -0.11542,-0.138762 -0.0415,-0.410704 0.11134,-0.412538 0.0559,0 0.19193,-0.02472 0.30216,-0.05503 0.18067,-0.04865 0.20032,-0.02233 0.20032,0.267875 0,0.294909 -0.0216,0.321466 -0.25623,0.321466 -0.14082,0 -0.30184,-0.05503 -0.35759,-0.122016 z m 1.8167098,-0.554889 c -0.1134998,-0.08278 -0.1991198,-0.09426 -0.2589498,-0.03509 -0.0487,0.04865 -0.12141,0.08916 -0.16054,0.08916 -0.11766,0 -0.0802,-0.326251 0.0503,-0.434071 0.0711,-0.05901 0.10279,-0.196022 0.0767,-0.330797 -0.0639,-0.333348 0.22716,-0.253361 0.4887398,0.134217 0.3294,0.487981 0.2008,0.865829 -0.19609,0.576023 z m -1.2586398,-0.972134 c -0.11206,-0.170662 -0.12356,-0.252005 -0.0463,-0.328803 0.0559,-0.05582 0.10224,-0.191795 0.10224,-0.301289 0,-0.202003 0.14592,-0.360304 0.24289,-0.263489 0.0296,0.02951 0.0631,0.293075 0.0751,0.586629 0.0248,0.598433 -0.10998,0.709363 -0.37396,0.306952 z m 0.58994,-0.472031 c 0,-0.09099 0.12013,-0.316601 0.26702,-0.501139 0.14688,-0.184538 0.26709,-0.387339 0.26709,-0.450659 0,-0.149927 0.3811598,-0.274095 0.4263698,-0.138842 0.0471,0.142112 0.2004,0.124886 0.38682,-0.04386 0.0877,-0.07895 0.22109,-0.1205 0.29625,-0.09171 0.19872,0.07576 0.16893,0.324736 -0.0391,0.324736 -0.10511,0 -0.23107,0.106783 -0.31326,0.265403 -0.12341,0.238288 -0.40416,0.395153 -0.62956,0.35177 -0.1923398,-0.03668 -0.2829098,0.01675 -0.3786798,0.227283 -0.11909,0.260857 -0.28323,0.293714 -0.28323,0.05662 z m -1.20305,-0.567809 c -0.0655,-0.14913 -0.14888,-0.192832 -0.32803,-0.172018 -0.20153,0.02313 -0.26862,-0.02791 -0.4183,-0.320987 l -0.17836,-0.348979 0.25536,-0.24427 c 0.27372,-0.261894 0.49361,-0.231191 0.41773,0.05822 -0.028,0.10798 0.0224,0.231032 0.13275,0.323301 0.20895,0.174489 0.43156,0.570121 0.43156,0.766861 0,0.207585 -0.21278,0.165239 -0.31271,-0.0622 z m -0.0884,-1.045183 c -0.0719,-0.115795 0.0319,-0.443641 0.14002,-0.443641 0.0455,0 0.0831,0.119942 0.0831,0.266599 0,0.262372 -0.11421,0.352967 -0.22308,0.177042 z m 2.8048298,-0.438378 c 0,-0.20607 0.15982,-0.325692 0.27779,-0.207984 0.11175,0.111648 0.008,0.38048 -0.15375,0.38048 -0.0679,0 -0.12404,-0.07736 -0.12404,-0.172496 z m 4.68159,-1.7707336 c -0.0791,-0.127678 0.0383,-0.36788 0.17988,-0.36788 0.0679,0 0.12404,0.05503 0.12404,0.122494 0,0.165079 -0.23578,0.3555176 -0.30392,0.245386 z"
           id="path38057"
           inkscape:connector-curvature="0" />
        <g
           transform="translate(-0.51288341,87.38876)"
           id="g16274">
          <rect
             y="18.443947"
             x="41.386936"
             height="47.970314"
             width="23.557629"
             id="rect16266"
             style="opacity:1;fill:#dc2a34;fill-opacity:0.98039216;fill-rule:nonzero;stroke:none;stroke-width:0.7729578;stroke-linecap:butt;stroke-linejoin:miter;stroke-miterlimit:4;stroke-dasharray:none;stroke-dashoffset:0;stroke-opacity:0.98039216" />
          <rect
             style="opacity:0.98000004;fill:#31448c;fill-opacity:1;fill-rule:nonzero;stroke:none;stroke-width:0.38547388;stroke-linecap:round;stroke-linejoin:round;stroke-miterlimit:4;stroke-dasharray:none;stroke-dashoffset:0;stroke-opacity:1"
             id="rect16268"
             width="23.557629"
             height="7.7896514"
             x="73.816216"
             y="58.796173" />
          <rect
             y="63.333012"
             x="105.88673"
             height="2.9499187"
             width="24.275909"
             id="rect16270"
             style="opacity:0.98000004;fill:#53ba9c;fill-opacity:1;fill-rule:nonzero;stroke:none;stroke-width:0.7729578;stroke-linecap:butt;stroke-linejoin:miter;stroke-miterlimit:4;stroke-dasharray:none;stroke-dashoffset:0;stroke-opacity:1" />
          <rect
             style="opacity:0.98000004;fill:#f7ce35;fill-opacity:1;fill-rule:nonzero;stroke:none;stroke-width:0.20104522;stroke-linecap:round;stroke-linejoin:round;stroke-miterlimit:4;stroke-dasharray:none;stroke-dashoffset:0;stroke-opacity:1"
             id="rect16272"
             width="23.557629"
             height="2.1189251"
             x="138.6754"
             y="64.466904" />
        </g>
      </g>
    </g>
  </g>
</svg>
