<?xml version="1.0" encoding="UTF-8" standalone="no"?>
<!-- Created with Inkscape (http://www.inkscape.org/) -->

<svg
   xmlns:dc="http://purl.org/dc/elements/1.1/"
   xmlns:cc="http://creativecommons.org/ns#"
   xmlns:rdf="http://www.w3.org/1999/02/22-rdf-syntax-ns#"
   xmlns:svg="http://www.w3.org/2000/svg"
   xmlns="http://www.w3.org/2000/svg"
   xmlns:sodipodi="http://sodipodi.sourceforge.net/DTD/sodipodi-0.dtd"
   xmlns:inkscape="http://www.inkscape.org/namespaces/inkscape"
   width="188.028mm"
   height="188.028mm"
   viewBox="0 0 188.028 188.028"
   version="1.1"
   id="svg4412"
   inkscape:version="0.92.2 (5c3e80d, 2017-08-06)"
   sodipodi:docname="small-circle.svg">
  <defs
     id="defs4406" />
  <sodipodi:namedview
     id="base"
     pagecolor="#ffffff"
     bordercolor="#666666"
     borderopacity="1.0"
     inkscape:pageopacity="0.0"
     inkscape:pageshadow="2"
     inkscape:zoom="0.7"
     inkscape:cx="165.04092"
     inkscape:cy="454.18464"
     inkscape:document-units="mm"
     inkscape:current-layer="layer1"
     showgrid="false"
     inkscape:window-width="1680"
     inkscape:window-height="987"
     inkscape:window-x="-8"
     inkscape:window-y="-8"
     inkscape:window-maximized="1"
     inkscape:snap-center="true" />
  <metadata
     id="metadata4409">
    <rdf:RDF>
      <cc:Work
         rdf:about="">
        <dc:format>image/svg+xml</dc:format>
        <dc:type
           rdf:resource="http://purl.org/dc/dcmitype/StillImage" />
        <dc:title />
      </cc:Work>
    </rdf:RDF>
  </metadata>
  <g
     inkscape:label="Layer 1"
     inkscape:groupmode="layer"
     id="layer1"
     transform="translate(0,-108.972)">
    <g
       style="fill:#cdd5ed;fill-opacity:1;stroke-width:0.99927062"
       id="g98691"
       transform="matrix(1.0014599,0,0,1.0000005,3195.995,-1182.418)">
      <path
         style="opacity:1;fill:#cdd5ed;fill-opacity:1;fill-rule:nonzero;stroke:none;stroke-width:0.03176979;stroke-linecap:round;stroke-linejoin:round;stroke-miterlimit:4;stroke-dasharray:none;stroke-dashoffset:0;stroke-opacity:1"
         d="m -3200.3595,1369.3136 a 1.4954476,1.4954476 0 0 1 -1.4955,1.4954 1.4954476,1.4954476 0 0 1 -1.4954,-1.4954 1.4954476,1.4954476 0 0 1 1.4954,-1.4954 1.4954476,1.4954476 0 0 1 1.4955,1.4954 z"
         id="path2897"
         transform="translate(104.39595,-76.4288)"
         inkscape:connector-curvature="0" />
      <path
         style="opacity:1;fill:#cdd5ed;fill-opacity:1;fill-rule:nonzero;stroke:none;stroke-width:0.03176979;stroke-linecap:round;stroke-linejoin:round;stroke-miterlimit:4;stroke-dasharray:none;stroke-dashoffset:0;stroke-opacity:1"
         d="m -3200.3595,1369.3136 a 1.4954476,1.4954476 0 0 1 -1.4955,1.4954 1.4954476,1.4954476 0 0 1 -1.4954,-1.4954 1.4954476,1.4954476 0 0 1 1.4954,-1.4954 1.4954476,1.4954476 0 0 1 1.4955,1.4954 z"
         id="path8644"
         transform="translate(94.392573,-75.881968)"
         inkscape:connector-curvature="0" />
      <path
         style="opacity:1;fill:#cdd5ed;fill-opacity:1;fill-rule:nonzero;stroke:none;stroke-width:0.03176979;stroke-linecap:round;stroke-linejoin:round;stroke-miterlimit:4;stroke-dasharray:none;stroke-dashoffset:0;stroke-opacity:1"
         d="m -3200.3595,1369.3136 a 1.4954476,1.4954476 0 0 1 -1.4955,1.4954 1.4954476,1.4954476 0 0 1 -1.4954,-1.4954 1.4954476,1.4954476 0 0 1 1.4954,-1.4954 1.4954476,1.4954476 0 0 1 1.4955,1.4954 z"
         id="path8345"
         transform="translate(84.507352,-74.262107)"
         inkscape:connector-curvature="0" />
      <path
         style="opacity:1;fill:#cdd5ed;fill-opacity:1;fill-rule:nonzero;stroke:none;stroke-width:0.03176979;stroke-linecap:round;stroke-linejoin:round;stroke-miterlimit:4;stroke-dasharray:none;stroke-dashoffset:0;stroke-opacity:1"
         d="m -3200.3595,1369.3136 a 1.4954476,1.4954476 0 0 1 -1.4955,1.4954 1.4954476,1.4954476 0 0 1 -1.4954,-1.4954 1.4954476,1.4954476 0 0 1 1.4954,-1.4954 1.4954476,1.4954476 0 0 1 1.4955,1.4954 z"
         id="path2835"
         transform="translate(74.856038,-71.582867)"
         inkscape:connector-curvature="0" />
      <path
         style="opacity:1;fill:#cdd5ed;fill-opacity:1;fill-rule:nonzero;stroke:none;stroke-width:0.03176979;stroke-linecap:round;stroke-linejoin:round;stroke-miterlimit:4;stroke-dasharray:none;stroke-dashoffset:0;stroke-opacity:1"
         d="m -3200.3595,1369.3136 a 1.4954476,1.4954476 0 0 1 -1.4955,1.4954 1.4954476,1.4954476 0 0 1 -1.4954,-1.4954 1.4954476,1.4954476 0 0 1 1.4954,-1.4954 1.4954476,1.4954476 0 0 1 1.4955,1.4954 z"
         id="path8082"
         transform="translate(65.550552,-67.876866)"
         inkscape:connector-curvature="0" />
      <path
         style="opacity:1;fill:#cdd5ed;fill-opacity:1;fill-rule:nonzero;stroke:none;stroke-width:0.03176979;stroke-linecap:round;stroke-linejoin:round;stroke-miterlimit:4;stroke-dasharray:none;stroke-dashoffset:0;stroke-opacity:1"
         d="m -3200.3595,1369.3136 a 1.4954476,1.4954476 0 0 1 -1.4955,1.4954 1.4954476,1.4954476 0 0 1 -1.4954,-1.4954 1.4954476,1.4954476 0 0 1 1.4954,-1.4954 1.4954476,1.4954476 0 0 1 1.4955,1.4954 z"
         id="path3813"
         transform="translate(56.696434,-63.191711)"
         inkscape:connector-curvature="0" />
      <path
         style="opacity:1;fill:#cdd5ed;fill-opacity:1;fill-rule:nonzero;stroke:none;stroke-width:0.03176979;stroke-linecap:round;stroke-linejoin:round;stroke-miterlimit:4;stroke-dasharray:none;stroke-dashoffset:0;stroke-opacity:1"
         d="m -3200.3595,1369.3136 a 1.4954476,1.4954476 0 0 1 -1.4955,1.4954 1.4954476,1.4954476 0 0 1 -1.4954,-1.4954 1.4954476,1.4954476 0 0 1 1.4954,-1.4954 1.4954476,1.4954476 0 0 1 1.4955,1.4954 z"
         id="path5716"
         transform="translate(48.414759,-57.555659)"
         inkscape:connector-curvature="0" />
      <path
         style="opacity:1;fill:#cdd5ed;fill-opacity:1;fill-rule:nonzero;stroke:none;stroke-width:0.03176979;stroke-linecap:round;stroke-linejoin:round;stroke-miterlimit:4;stroke-dasharray:none;stroke-dashoffset:0;stroke-opacity:1"
         d="m -3200.3595,1369.3136 a 1.4954476,1.4954476 0 0 1 -1.4955,1.4954 1.4954476,1.4954476 0 0 1 -1.4954,-1.4954 1.4954476,1.4954476 0 0 1 1.4954,-1.4954 1.4954476,1.4954476 0 0 1 1.4955,1.4954 z"
         id="path0454"
         transform="translate(40.789996,-51.059365)"
         inkscape:connector-curvature="0" />
      <path
         style="opacity:1;fill:#cdd5ed;fill-opacity:1;fill-rule:nonzero;stroke:none;stroke-width:0.03176979;stroke-linecap:round;stroke-linejoin:round;stroke-miterlimit:4;stroke-dasharray:none;stroke-dashoffset:0;stroke-opacity:1"
         d="m -3200.3595,1369.3136 a 1.4954476,1.4954476 0 0 1 -1.4955,1.4954 1.4954476,1.4954476 0 0 1 -1.4954,-1.4954 1.4954476,1.4954476 0 0 1 1.4954,-1.4954 1.4954476,1.4954476 0 0 1 1.4955,1.4954 z"
         id="path8990"
         transform="translate(33.89788,-43.790809)"
         inkscape:connector-curvature="0" />
      <path
         style="opacity:1;fill:#cdd5ed;fill-opacity:1;fill-rule:nonzero;stroke:none;stroke-width:0.03176979;stroke-linecap:round;stroke-linejoin:round;stroke-miterlimit:4;stroke-dasharray:none;stroke-dashoffset:0;stroke-opacity:1"
         d="m -3200.3595,1369.3136 a 1.4954476,1.4954476 0 0 1 -1.4955,1.4954 1.4954476,1.4954476 0 0 1 -1.4954,-1.4954 1.4954476,1.4954476 0 0 1 1.4954,-1.4954 1.4954476,1.4954476 0 0 1 1.4955,1.4954 z"
         id="path9991"
         transform="translate(27.816233,-35.830672)"
         inkscape:connector-curvature="0" />
      <path
         style="opacity:1;fill:#cdd5ed;fill-opacity:1;fill-rule:nonzero;stroke:none;stroke-width:0.03176979;stroke-linecap:round;stroke-linejoin:round;stroke-miterlimit:4;stroke-dasharray:none;stroke-dashoffset:0;stroke-opacity:1"
         d="m -3200.3595,1369.3136 a 1.4954476,1.4954476 0 0 1 -1.4955,1.4954 1.4954476,1.4954476 0 0 1 -1.4954,-1.4954 1.4954476,1.4954476 0 0 1 1.4954,-1.4954 1.4954476,1.4954476 0 0 1 1.4955,1.4954 z"
         id="path8119"
         transform="translate(22.65363,-27.245854)"
         inkscape:connector-curvature="0" />
      <path
         style="opacity:1;fill:#cdd5ed;fill-opacity:1;fill-rule:nonzero;stroke:none;stroke-width:0.03176979;stroke-linecap:round;stroke-linejoin:round;stroke-miterlimit:4;stroke-dasharray:none;stroke-dashoffset:0;stroke-opacity:1"
         d="m -3200.3595,1369.3136 a 1.4954476,1.4954476 0 0 1 -1.4955,1.4954 1.4954476,1.4954476 0 0 1 -1.4954,-1.4954 1.4954476,1.4954476 0 0 1 1.4954,-1.4954 1.4954476,1.4954476 0 0 1 1.4955,1.4954 z"
         id="path0727"
         transform="translate(18.45137,-18.15329)"
         inkscape:connector-curvature="0" />
      <path
         style="opacity:1;fill:#cdd5ed;fill-opacity:1;fill-rule:nonzero;stroke:none;stroke-width:0.03176979;stroke-linecap:round;stroke-linejoin:round;stroke-miterlimit:4;stroke-dasharray:none;stroke-dashoffset:0;stroke-opacity:1"
         d="m -3200.3595,1369.3136 a 1.4954476,1.4954476 0 0 1 -1.4955,1.4954 1.4954476,1.4954476 0 0 1 -1.4954,-1.4954 1.4954476,1.4954476 0 0 1 1.4954,-1.4954 1.4954476,1.4954476 0 0 1 1.4955,1.4954 z"
         id="path7779"
         transform="translate(15.253698,-8.661239)"
         inkscape:connector-curvature="0" />
      <path
         style="opacity:1;fill:#cdd5ed;fill-opacity:1;fill-rule:nonzero;stroke:none;stroke-width:0.03176979;stroke-linecap:round;stroke-linejoin:round;stroke-miterlimit:4;stroke-dasharray:none;stroke-dashoffset:0;stroke-opacity:1"
         d="m -3200.3595,1369.3136 a 1.4954476,1.4954476 0 0 1 -1.4955,1.4954 1.4954476,1.4954476 0 0 1 -1.4954,-1.4954 1.4954476,1.4954476 0 0 1 1.4954,-1.4954 1.4954476,1.4954476 0 0 1 1.4955,1.4954 z"
         id="path0252"
         transform="translate(13.101228,1.121353)"
         inkscape:connector-curvature="0" />
      <path
         style="opacity:1;fill:#cdd5ed;fill-opacity:1;fill-rule:nonzero;stroke:none;stroke-width:0.03176979;stroke-linecap:round;stroke-linejoin:round;stroke-miterlimit:4;stroke-dasharray:none;stroke-dashoffset:0;stroke-opacity:1"
         d="m -3200.3595,1369.3136 a 1.4954476,1.4954476 0 0 1 -1.4955,1.4954 1.4954476,1.4954476 0 0 1 -1.4954,-1.4954 1.4954476,1.4954476 0 0 1 1.4954,-1.4954 1.4954476,1.4954476 0 0 1 1.4955,1.4954 z"
         id="path1496"
         transform="translate(12.014448,11.079982)"
         inkscape:connector-curvature="0" />
      <path
         style="opacity:1;fill:#cdd5ed;fill-opacity:1;fill-rule:nonzero;stroke:none;stroke-width:0.03176979;stroke-linecap:round;stroke-linejoin:round;stroke-miterlimit:4;stroke-dasharray:none;stroke-dashoffset:0;stroke-opacity:1"
         d="m -3200.3595,1369.3136 a 1.4954476,1.4954476 0 0 1 -1.4955,1.4954 1.4954476,1.4954476 0 0 1 -1.4954,-1.4954 1.4954476,1.4954476 0 0 1 1.4954,-1.4954 1.4954476,1.4954476 0 0 1 1.4955,1.4954 z"
         id="path7490"
         transform="translate(12.014546,21.098819)"
         inkscape:connector-curvature="0" />
      <path
         style="opacity:1;fill:#cdd5ed;fill-opacity:1;fill-rule:nonzero;stroke:none;stroke-width:0.03176979;stroke-linecap:round;stroke-linejoin:round;stroke-miterlimit:4;stroke-dasharray:none;stroke-dashoffset:0;stroke-opacity:1"
         d="m -3200.3595,1369.3136 a 1.4954476,1.4954476 0 0 1 -1.4955,1.4954 1.4954476,1.4954476 0 0 1 -1.4954,-1.4954 1.4954476,1.4954476 0 0 1 1.4954,-1.4954 1.4954476,1.4954476 0 0 1 1.4955,1.4954 z"
         id="path9728"
         transform="translate(13.101489,31.057429)"
         inkscape:connector-curvature="0" />
      <path
         style="opacity:1;fill:#cdd5ed;fill-opacity:1;fill-rule:nonzero;stroke:none;stroke-width:0.03176979;stroke-linecap:round;stroke-linejoin:round;stroke-miterlimit:4;stroke-dasharray:none;stroke-dashoffset:0;stroke-opacity:1"
         d="m -3200.3595,1369.3136 a 1.4954476,1.4954476 0 0 1 -1.4955,1.4954 1.4954476,1.4954476 0 0 1 -1.4954,-1.4954 1.4954476,1.4954476 0 0 1 1.4954,-1.4954 1.4954476,1.4954476 0 0 1 1.4955,1.4954 z"
         id="path4549"
         transform="translate(15.254074,40.839995)"
         inkscape:connector-curvature="0" />
      <path
         style="opacity:1;fill:#cdd5ed;fill-opacity:1;fill-rule:nonzero;stroke:none;stroke-width:0.03176979;stroke-linecap:round;stroke-linejoin:round;stroke-miterlimit:4;stroke-dasharray:none;stroke-dashoffset:0;stroke-opacity:1"
         d="m -3200.3595,1369.3136 a 1.4954476,1.4954476 0 0 1 -1.4955,1.4954 1.4954476,1.4954476 0 0 1 -1.4954,-1.4954 1.4954476,1.4954476 0 0 1 1.4954,-1.4954 1.4954476,1.4954476 0 0 1 1.4955,1.4954 z"
         id="path8571"
         transform="translate(18.451823,50.33202)"
         inkscape:connector-curvature="0" />
      <path
         style="opacity:1;fill:#cdd5ed;fill-opacity:1;fill-rule:nonzero;stroke:none;stroke-width:0.03176979;stroke-linecap:round;stroke-linejoin:round;stroke-miterlimit:4;stroke-dasharray:none;stroke-dashoffset:0;stroke-opacity:1"
         d="m -3200.3595,1369.3136 a 1.4954476,1.4954476 0 0 1 -1.4955,1.4954 1.4954476,1.4954476 0 0 1 -1.4954,-1.4954 1.4954476,1.4954476 0 0 1 1.4954,-1.4954 1.4954476,1.4954476 0 0 1 1.4955,1.4954 z"
         id="path0953"
         transform="translate(22.654117,59.424571)"
         inkscape:connector-curvature="0" />
      <path
         style="opacity:1;fill:#cdd5ed;fill-opacity:1;fill-rule:nonzero;stroke:none;stroke-width:0.03176979;stroke-linecap:round;stroke-linejoin:round;stroke-miterlimit:4;stroke-dasharray:none;stroke-dashoffset:0;stroke-opacity:1"
         d="m -3200.3595,1369.3136 a 1.4954476,1.4954476 0 0 1 -1.4955,1.4954 1.4954476,1.4954476 0 0 1 -1.4954,-1.4954 1.4954476,1.4954476 0 0 1 1.4954,-1.4954 1.4954476,1.4954476 0 0 1 1.4955,1.4954 z"
         id="path7581"
         transform="translate(27.816745,68.009373)"
         inkscape:connector-curvature="0" />
      <path
         style="opacity:1;fill:#cdd5ed;fill-opacity:1;fill-rule:nonzero;stroke:none;stroke-width:0.03176979;stroke-linecap:round;stroke-linejoin:round;stroke-miterlimit:4;stroke-dasharray:none;stroke-dashoffset:0;stroke-opacity:1"
         d="m -3200.3595,1369.3136 a 1.4954476,1.4954476 0 0 1 -1.4955,1.4954 1.4954476,1.4954476 0 0 1 -1.4954,-1.4954 1.4954476,1.4954476 0 0 1 1.4954,-1.4954 1.4954476,1.4954476 0 0 1 1.4955,1.4954 z"
         id="path6379"
         transform="translate(33.898343,75.969547)"
         inkscape:connector-curvature="0" />
      <path
         style="opacity:1;fill:#cdd5ed;fill-opacity:1;fill-rule:nonzero;stroke:none;stroke-width:0.03176979;stroke-linecap:round;stroke-linejoin:round;stroke-miterlimit:4;stroke-dasharray:none;stroke-dashoffset:0;stroke-opacity:1"
         d="m -3200.3595,1369.3136 a 1.4954476,1.4954476 0 0 1 -1.4955,1.4954 1.4954476,1.4954476 0 0 1 -1.4954,-1.4954 1.4954476,1.4954476 0 0 1 1.4954,-1.4954 1.4954476,1.4954476 0 0 1 1.4955,1.4954 z"
         id="path3357"
         transform="translate(40.790388,83.238171)"
         inkscape:connector-curvature="0" />
      <path
         style="opacity:1;fill:#cdd5ed;fill-opacity:1;fill-rule:nonzero;stroke:none;stroke-width:0.03176979;stroke-linecap:round;stroke-linejoin:round;stroke-miterlimit:4;stroke-dasharray:none;stroke-dashoffset:0;stroke-opacity:1"
         d="m -3200.3595,1369.3136 a 1.4954476,1.4954476 0 0 1 -1.4955,1.4954 1.4954476,1.4954476 0 0 1 -1.4954,-1.4954 1.4954476,1.4954476 0 0 1 1.4954,-1.4954 1.4954476,1.4954476 0 0 1 1.4955,1.4954 z"
         id="path6403"
         transform="translate(48.41507,89.734561)"
         inkscape:connector-curvature="0" />
      <path
         style="opacity:1;fill:#cdd5ed;fill-opacity:1;fill-rule:nonzero;stroke:none;stroke-width:0.03176979;stroke-linecap:round;stroke-linejoin:round;stroke-miterlimit:4;stroke-dasharray:none;stroke-dashoffset:0;stroke-opacity:1"
         d="m -3200.3595,1369.3136 a 1.4954476,1.4954476 0 0 1 -1.4955,1.4954 1.4954476,1.4954476 0 0 1 -1.4954,-1.4954 1.4954476,1.4954476 0 0 1 1.4954,-1.4954 1.4954476,1.4954476 0 0 1 1.4955,1.4954 z"
         id="path4748"
         transform="translate(56.696671,95.370721)"
         inkscape:connector-curvature="0" />
      <path
         style="opacity:1;fill:#cdd5ed;fill-opacity:1;fill-rule:nonzero;stroke:none;stroke-width:0.03176979;stroke-linecap:round;stroke-linejoin:round;stroke-miterlimit:4;stroke-dasharray:none;stroke-dashoffset:0;stroke-opacity:1"
         d="m -3200.3595,1369.3136 a 1.4954476,1.4954476 0 0 1 -1.4955,1.4954 1.4954476,1.4954476 0 0 1 -1.4954,-1.4954 1.4954476,1.4954476 0 0 1 1.4954,-1.4954 1.4954476,1.4954476 0 0 1 1.4955,1.4954 z"
         id="path3816"
         transform="translate(65.550718,100.05601)"
         inkscape:connector-curvature="0" />
      <path
         style="opacity:1;fill:#cdd5ed;fill-opacity:1;fill-rule:nonzero;stroke:none;stroke-width:0.03176979;stroke-linecap:round;stroke-linejoin:round;stroke-miterlimit:4;stroke-dasharray:none;stroke-dashoffset:0;stroke-opacity:1"
         d="m -3200.3595,1369.3136 a 1.4954476,1.4954476 0 0 1 -1.4955,1.4954 1.4954476,1.4954476 0 0 1 -1.4954,-1.4954 1.4954476,1.4954476 0 0 1 1.4954,-1.4954 1.4954476,1.4954476 0 0 1 1.4955,1.4954 z"
         id="path2481"
         transform="translate(74.856152,103.76214)"
         inkscape:connector-curvature="0" />
      <path
         style="opacity:1;fill:#cdd5ed;fill-opacity:1;fill-rule:nonzero;stroke:none;stroke-width:0.03176979;stroke-linecap:round;stroke-linejoin:round;stroke-miterlimit:4;stroke-dasharray:none;stroke-dashoffset:0;stroke-opacity:1"
         d="m -3200.3595,1369.3136 a 1.4954476,1.4954476 0 0 1 -1.4955,1.4954 1.4954476,1.4954476 0 0 1 -1.4954,-1.4954 1.4954476,1.4954476 0 0 1 1.4954,-1.4954 1.4954476,1.4954476 0 0 1 1.4955,1.4954 z"
         id="path9985"
         transform="translate(84.507435,106.44149)"
         inkscape:connector-curvature="0" />
      <path
         style="opacity:1;fill:#cdd5ed;fill-opacity:1;fill-rule:nonzero;stroke:none;stroke-width:0.03176979;stroke-linecap:round;stroke-linejoin:round;stroke-miterlimit:4;stroke-dasharray:none;stroke-dashoffset:0;stroke-opacity:1"
         d="m -3200.3595,1369.3136 a 1.4954476,1.4954476 0 0 1 -1.4955,1.4954 1.4954476,1.4954476 0 0 1 -1.4954,-1.4954 1.4954476,1.4954476 0 0 1 1.4954,-1.4954 1.4954476,1.4954476 0 0 1 1.4955,1.4954 z"
         id="path2357"
         transform="translate(94.392642,108.06143)"
         inkscape:connector-curvature="0" />
      <path
         style="opacity:1;fill:#cdd5ed;fill-opacity:1;fill-rule:nonzero;stroke:none;stroke-width:0.03176979;stroke-linecap:round;stroke-linejoin:round;stroke-miterlimit:4;stroke-dasharray:none;stroke-dashoffset:0;stroke-opacity:1"
         d="m -3200.3595,1369.3136 a 1.4954476,1.4954476 0 0 1 -1.4955,1.4954 1.4954476,1.4954476 0 0 1 -1.4954,-1.4954 1.4954476,1.4954476 0 0 1 1.4954,-1.4954 1.4954476,1.4954476 0 0 1 1.4955,1.4954 z"
         id="path7626"
         transform="translate(104.39602,108.6083)"
         inkscape:connector-curvature="0" />
      <path
         style="opacity:1;fill:#cdd5ed;fill-opacity:1;fill-rule:nonzero;stroke:none;stroke-width:0.03176979;stroke-linecap:round;stroke-linejoin:round;stroke-miterlimit:4;stroke-dasharray:none;stroke-dashoffset:0;stroke-opacity:1"
         d="m -3200.3595,1369.3136 a 1.4954476,1.4954476 0 0 1 -1.4955,1.4954 1.4954476,1.4954476 0 0 1 -1.4954,-1.4954 1.4954476,1.4954476 0 0 1 1.4954,-1.4954 1.4954476,1.4954476 0 0 1 1.4955,1.4954 z"
         id="path4986"
         transform="translate(114.39939,108.06143)"
         inkscape:connector-curvature="0" />
      <path
         style="opacity:1;fill:#cdd5ed;fill-opacity:1;fill-rule:nonzero;stroke:none;stroke-width:0.03176979;stroke-linecap:round;stroke-linejoin:round;stroke-miterlimit:4;stroke-dasharray:none;stroke-dashoffset:0;stroke-opacity:1"
         d="m -3200.3595,1369.3136 a 1.4954476,1.4954476 0 0 1 -1.4955,1.4954 1.4954476,1.4954476 0 0 1 -1.4954,-1.4954 1.4954476,1.4954476 0 0 1 1.4954,-1.4954 1.4954476,1.4954476 0 0 1 1.4955,1.4954 z"
         id="path5812"
         transform="translate(124.2846,106.4415)"
         inkscape:connector-curvature="0" />
      <path
         style="opacity:1;fill:#cdd5ed;fill-opacity:1;fill-rule:nonzero;stroke:none;stroke-width:0.03176979;stroke-linecap:round;stroke-linejoin:round;stroke-miterlimit:4;stroke-dasharray:none;stroke-dashoffset:0;stroke-opacity:1"
         d="m -3200.3595,1369.3136 a 1.4954476,1.4954476 0 0 1 -1.4955,1.4954 1.4954476,1.4954476 0 0 1 -1.4954,-1.4954 1.4954476,1.4954476 0 0 1 1.4954,-1.4954 1.4954476,1.4954476 0 0 1 1.4955,1.4954 z"
         id="path6961"
         transform="translate(133.93588,103.76215)"
         inkscape:connector-curvature="0" />
      <path
         style="opacity:1;fill:#cdd5ed;fill-opacity:1;fill-rule:nonzero;stroke:none;stroke-width:0.03176979;stroke-linecap:round;stroke-linejoin:round;stroke-miterlimit:4;stroke-dasharray:none;stroke-dashoffset:0;stroke-opacity:1"
         d="m -3200.3595,1369.3136 a 1.4954476,1.4954476 0 0 1 -1.4955,1.4954 1.4954476,1.4954476 0 0 1 -1.4954,-1.4954 1.4954476,1.4954476 0 0 1 1.4954,-1.4954 1.4954476,1.4954476 0 0 1 1.4955,1.4954 z"
         id="path9880"
         transform="translate(143.24132,100.05602)"
         inkscape:connector-curvature="0" />
      <path
         style="opacity:1;fill:#cdd5ed;fill-opacity:1;fill-rule:nonzero;stroke:none;stroke-width:0.03176979;stroke-linecap:round;stroke-linejoin:round;stroke-miterlimit:4;stroke-dasharray:none;stroke-dashoffset:0;stroke-opacity:1"
         d="m -3200.3595,1369.3136 a 1.4954476,1.4954476 0 0 1 -1.4955,1.4954 1.4954476,1.4954476 0 0 1 -1.4954,-1.4954 1.4954476,1.4954476 0 0 1 1.4954,-1.4954 1.4954476,1.4954476 0 0 1 1.4955,1.4954 z"
         id="path0865"
         transform="translate(152.09536,95.370726)"
         inkscape:connector-curvature="0" />
      <path
         style="opacity:1;fill:#cdd5ed;fill-opacity:1;fill-rule:nonzero;stroke:none;stroke-width:0.03176979;stroke-linecap:round;stroke-linejoin:round;stroke-miterlimit:4;stroke-dasharray:none;stroke-dashoffset:0;stroke-opacity:1"
         d="m -3200.3595,1369.3136 a 1.4954476,1.4954476 0 0 1 -1.4955,1.4954 1.4954476,1.4954476 0 0 1 -1.4954,-1.4954 1.4954476,1.4954476 0 0 1 1.4954,-1.4954 1.4954476,1.4954476 0 0 1 1.4955,1.4954 z"
         id="path6040"
         transform="translate(160.37696,89.734557)"
         inkscape:connector-curvature="0" />
      <path
         style="opacity:1;fill:#cdd5ed;fill-opacity:1;fill-rule:nonzero;stroke:none;stroke-width:0.03176979;stroke-linecap:round;stroke-linejoin:round;stroke-miterlimit:4;stroke-dasharray:none;stroke-dashoffset:0;stroke-opacity:1"
         d="m -3200.3595,1369.3136 a 1.4954476,1.4954476 0 0 1 -1.4955,1.4954 1.4954476,1.4954476 0 0 1 -1.4954,-1.4954 1.4954476,1.4954476 0 0 1 1.4954,-1.4954 1.4954476,1.4954476 0 0 1 1.4955,1.4954 z"
         id="path5487"
         transform="translate(168.00163,83.238163)"
         inkscape:connector-curvature="0" />
      <path
         style="opacity:1;fill:#cdd5ed;fill-opacity:1;fill-rule:nonzero;stroke:none;stroke-width:0.03176979;stroke-linecap:round;stroke-linejoin:round;stroke-miterlimit:4;stroke-dasharray:none;stroke-dashoffset:0;stroke-opacity:1"
         d="m -3200.3595,1369.3136 a 1.4954476,1.4954476 0 0 1 -1.4955,1.4954 1.4954476,1.4954476 0 0 1 -1.4954,-1.4954 1.4954476,1.4954476 0 0 1 1.4954,-1.4954 1.4954476,1.4954476 0 0 1 1.4955,1.4954 z"
         id="path2712"
         transform="translate(174.89367,75.969533)"
         inkscape:connector-curvature="0" />
      <path
         style="opacity:1;fill:#cdd5ed;fill-opacity:1;fill-rule:nonzero;stroke:none;stroke-width:0.03176979;stroke-linecap:round;stroke-linejoin:round;stroke-miterlimit:4;stroke-dasharray:none;stroke-dashoffset:0;stroke-opacity:1"
         d="m -3200.3595,1369.3136 a 1.4954476,1.4954476 0 0 1 -1.4955,1.4954 1.4954476,1.4954476 0 0 1 -1.4954,-1.4954 1.4954476,1.4954476 0 0 1 1.4954,-1.4954 1.4954476,1.4954476 0 0 1 1.4955,1.4954 z"
         id="path8354"
         transform="translate(180.97526,68.009352)"
         inkscape:connector-curvature="0" />
      <path
         style="opacity:1;fill:#cdd5ed;fill-opacity:1;fill-rule:nonzero;stroke:none;stroke-width:0.03176979;stroke-linecap:round;stroke-linejoin:round;stroke-miterlimit:4;stroke-dasharray:none;stroke-dashoffset:0;stroke-opacity:1"
         d="m -3200.3595,1369.3136 a 1.4954476,1.4954476 0 0 1 -1.4955,1.4954 1.4954476,1.4954476 0 0 1 -1.4954,-1.4954 1.4954476,1.4954476 0 0 1 1.4954,-1.4954 1.4954476,1.4954476 0 0 1 1.4955,1.4954 z"
         id="path8835"
         transform="translate(186.13787,59.42454)"
         inkscape:connector-curvature="0" />
      <path
         style="opacity:1;fill:#cdd5ed;fill-opacity:1;fill-rule:nonzero;stroke:none;stroke-width:0.03176979;stroke-linecap:round;stroke-linejoin:round;stroke-miterlimit:4;stroke-dasharray:none;stroke-dashoffset:0;stroke-opacity:1"
         d="m -3200.3595,1369.3136 a 1.4954476,1.4954476 0 0 1 -1.4955,1.4954 1.4954476,1.4954476 0 0 1 -1.4954,-1.4954 1.4954476,1.4954476 0 0 1 1.4954,-1.4954 1.4954476,1.4954476 0 0 1 1.4955,1.4954 z"
         id="path4031"
         transform="translate(190.34015,50.331982)"
         inkscape:connector-curvature="0" />
      <path
         style="opacity:1;fill:#cdd5ed;fill-opacity:1;fill-rule:nonzero;stroke:none;stroke-width:0.03176979;stroke-linecap:round;stroke-linejoin:round;stroke-miterlimit:4;stroke-dasharray:none;stroke-dashoffset:0;stroke-opacity:1"
         d="m -3200.3595,1369.3136 a 1.4954476,1.4954476 0 0 1 -1.4955,1.4954 1.4954476,1.4954476 0 0 1 -1.4954,-1.4954 1.4954476,1.4954476 0 0 1 1.4954,-1.4954 1.4954476,1.4954476 0 0 1 1.4955,1.4954 z"
         id="path7784"
         transform="translate(193.53788,40.839951)"
         inkscape:connector-curvature="0" />
      <path
         style="opacity:1;fill:#cdd5ed;fill-opacity:1;fill-rule:nonzero;stroke:none;stroke-width:0.03176979;stroke-linecap:round;stroke-linejoin:round;stroke-miterlimit:4;stroke-dasharray:none;stroke-dashoffset:0;stroke-opacity:1"
         d="m -3200.3595,1369.3136 a 1.4954476,1.4954476 0 0 1 -1.4955,1.4954 1.4954476,1.4954476 0 0 1 -1.4954,-1.4954 1.4954476,1.4954476 0 0 1 1.4954,-1.4954 1.4954476,1.4954476 0 0 1 1.4955,1.4954 z"
         id="path3720"
         transform="translate(195.69045,31.057381)"
         inkscape:connector-curvature="0" />
      <path
         style="opacity:1;fill:#cdd5ed;fill-opacity:1;fill-rule:nonzero;stroke:none;stroke-width:0.03176979;stroke-linecap:round;stroke-linejoin:round;stroke-miterlimit:4;stroke-dasharray:none;stroke-dashoffset:0;stroke-opacity:1"
         d="m -3200.3595,1369.3136 a 1.4954476,1.4954476 0 0 1 -1.4955,1.4954 1.4954476,1.4954476 0 0 1 -1.4954,-1.4954 1.4954476,1.4954476 0 0 1 1.4954,-1.4954 1.4954476,1.4954476 0 0 1 1.4955,1.4954 z"
         id="path7196"
         transform="translate(196.77737,21.098768)"
         inkscape:connector-curvature="0" />
      <path
         style="opacity:1;fill:#cdd5ed;fill-opacity:1;fill-rule:nonzero;stroke:none;stroke-width:0.03176979;stroke-linecap:round;stroke-linejoin:round;stroke-miterlimit:4;stroke-dasharray:none;stroke-dashoffset:0;stroke-opacity:1"
         d="m -3200.3595,1369.3136 a 1.4954476,1.4954476 0 0 1 -1.4955,1.4954 1.4954476,1.4954476 0 0 1 -1.4954,-1.4954 1.4954476,1.4954476 0 0 1 1.4954,-1.4954 1.4954476,1.4954476 0 0 1 1.4955,1.4954 z"
         id="path5967"
         transform="translate(196.77745,11.079931)"
         inkscape:connector-curvature="0" />
      <path
         style="opacity:1;fill:#cdd5ed;fill-opacity:1;fill-rule:nonzero;stroke:none;stroke-width:0.03176979;stroke-linecap:round;stroke-linejoin:round;stroke-miterlimit:4;stroke-dasharray:none;stroke-dashoffset:0;stroke-opacity:1"
         d="m -3200.3595,1369.3136 a 1.4954476,1.4954476 0 0 1 -1.4955,1.4954 1.4954476,1.4954476 0 0 1 -1.4954,-1.4954 1.4954476,1.4954476 0 0 1 1.4954,-1.4954 1.4954476,1.4954476 0 0 1 1.4955,1.4954 z"
         id="path6241"
         transform="translate(195.69067,1.121301)"
         inkscape:connector-curvature="0" />
      <path
         style="opacity:1;fill:#cdd5ed;fill-opacity:1;fill-rule:nonzero;stroke:none;stroke-width:0.03176979;stroke-linecap:round;stroke-linejoin:round;stroke-miterlimit:4;stroke-dasharray:none;stroke-dashoffset:0;stroke-opacity:1"
         d="m -3200.3595,1369.3136 a 1.4954476,1.4954476 0 0 1 -1.4955,1.4954 1.4954476,1.4954476 0 0 1 -1.4954,-1.4954 1.4954476,1.4954476 0 0 1 1.4954,-1.4954 1.4954476,1.4954476 0 0 1 1.4955,1.4954 z"
         id="path2216"
         transform="translate(193.5382,-8.661291)"
         inkscape:connector-curvature="0" />
      <path
         style="opacity:1;fill:#cdd5ed;fill-opacity:1;fill-rule:nonzero;stroke:none;stroke-width:0.03176979;stroke-linecap:round;stroke-linejoin:round;stroke-miterlimit:4;stroke-dasharray:none;stroke-dashoffset:0;stroke-opacity:1"
         d="m -3200.3595,1369.3136 a 1.4954476,1.4954476 0 0 1 -1.4955,1.4954 1.4954476,1.4954476 0 0 1 -1.4954,-1.4954 1.4954476,1.4954476 0 0 1 1.4954,-1.4954 1.4954476,1.4954476 0 0 1 1.4955,1.4954 z"
         id="path7625"
         transform="translate(190.34053,-18.153342)"
         inkscape:connector-curvature="0" />
      <path
         style="opacity:1;fill:#cdd5ed;fill-opacity:1;fill-rule:nonzero;stroke:none;stroke-width:0.03176979;stroke-linecap:round;stroke-linejoin:round;stroke-miterlimit:4;stroke-dasharray:none;stroke-dashoffset:0;stroke-opacity:1"
         d="m -3200.3595,1369.3136 a 1.4954476,1.4954476 0 0 1 -1.4955,1.4954 1.4954476,1.4954476 0 0 1 -1.4954,-1.4954 1.4954476,1.4954476 0 0 1 1.4954,-1.4954 1.4954476,1.4954476 0 0 1 1.4955,1.4954 z"
         id="path8679"
         transform="translate(186.13827,-27.245909)"
         inkscape:connector-curvature="0" />
      <path
         style="opacity:1;fill:#cdd5ed;fill-opacity:1;fill-rule:nonzero;stroke:none;stroke-width:0.03176979;stroke-linecap:round;stroke-linejoin:round;stroke-miterlimit:4;stroke-dasharray:none;stroke-dashoffset:0;stroke-opacity:1"
         d="m -3200.3595,1369.3136 a 1.4954476,1.4954476 0 0 1 -1.4955,1.4954 1.4954476,1.4954476 0 0 1 -1.4954,-1.4954 1.4954476,1.4954476 0 0 1 1.4954,-1.4954 1.4954476,1.4954476 0 0 1 1.4955,1.4954 z"
         id="path2990"
         transform="translate(180.97567,-35.830729)"
         inkscape:connector-curvature="0" />
      <path
         style="opacity:1;fill:#cdd5ed;fill-opacity:1;fill-rule:nonzero;stroke:none;stroke-width:0.03176979;stroke-linecap:round;stroke-linejoin:round;stroke-miterlimit:4;stroke-dasharray:none;stroke-dashoffset:0;stroke-opacity:1"
         d="m -3200.3595,1369.3136 a 1.4954476,1.4954476 0 0 1 -1.4955,1.4954 1.4954476,1.4954476 0 0 1 -1.4954,-1.4954 1.4954476,1.4954476 0 0 1 1.4954,-1.4954 1.4954476,1.4954476 0 0 1 1.4955,1.4954 z"
         id="path7272"
         transform="translate(174.89403,-43.790869)"
         inkscape:connector-curvature="0" />
      <path
         style="opacity:1;fill:#cdd5ed;fill-opacity:1;fill-rule:nonzero;stroke:none;stroke-width:0.03176979;stroke-linecap:round;stroke-linejoin:round;stroke-miterlimit:4;stroke-dasharray:none;stroke-dashoffset:0;stroke-opacity:1"
         d="m -3200.3595,1369.3136 a 1.4954476,1.4954476 0 0 1 -1.4955,1.4954 1.4954476,1.4954476 0 0 1 -1.4954,-1.4954 1.4954476,1.4954476 0 0 1 1.4954,-1.4954 1.4954476,1.4954476 0 0 1 1.4955,1.4954 z"
         id="path0571"
         transform="translate(168.00192,-51.059428)"
         inkscape:connector-curvature="0" />
      <path
         style="opacity:1;fill:#cdd5ed;fill-opacity:1;fill-rule:nonzero;stroke:none;stroke-width:0.03176979;stroke-linecap:round;stroke-linejoin:round;stroke-miterlimit:4;stroke-dasharray:none;stroke-dashoffset:0;stroke-opacity:1"
         d="m -3200.3595,1369.3136 a 1.4954476,1.4954476 0 0 1 -1.4955,1.4954 1.4954476,1.4954476 0 0 1 -1.4954,-1.4954 1.4954476,1.4954476 0 0 1 1.4954,-1.4954 1.4954476,1.4954476 0 0 1 1.4955,1.4954 z"
         id="path7330"
         transform="translate(160.37715,-57.555724)"
         inkscape:connector-curvature="0" />
      <path
         style="opacity:1;fill:#cdd5ed;fill-opacity:1;fill-rule:nonzero;stroke:none;stroke-width:0.03176979;stroke-linecap:round;stroke-linejoin:round;stroke-miterlimit:4;stroke-dasharray:none;stroke-dashoffset:0;stroke-opacity:1"
         d="m -3200.3595,1369.3136 a 1.4954476,1.4954476 0 0 1 -1.4955,1.4954 1.4954476,1.4954476 0 0 1 -1.4954,-1.4954 1.4954476,1.4954476 0 0 1 1.4954,-1.4954 1.4954476,1.4954476 0 0 1 1.4955,1.4954 z"
         id="path5187"
         transform="translate(152.09548,-63.191773)"
         inkscape:connector-curvature="0" />
      <path
         style="opacity:1;fill:#cdd5ed;fill-opacity:1;fill-rule:nonzero;stroke:none;stroke-width:0.03176979;stroke-linecap:round;stroke-linejoin:round;stroke-miterlimit:4;stroke-dasharray:none;stroke-dashoffset:0;stroke-opacity:1"
         d="m -3200.3595,1369.3136 a 1.4954476,1.4954476 0 0 1 -1.4955,1.4954 1.4954476,1.4954476 0 0 1 -1.4954,-1.4954 1.4954476,1.4954476 0 0 1 1.4954,-1.4954 1.4954476,1.4954476 0 0 1 1.4955,1.4954 z"
         id="path6188"
         transform="translate(143.24136,-67.876923)"
         inkscape:connector-curvature="0" />
      <path
         style="opacity:1;fill:#cdd5ed;fill-opacity:1;fill-rule:nonzero;stroke:none;stroke-width:0.03176979;stroke-linecap:round;stroke-linejoin:round;stroke-miterlimit:4;stroke-dasharray:none;stroke-dashoffset:0;stroke-opacity:1"
         d="m -3200.3595,1369.3136 a 1.4954476,1.4954476 0 0 1 -1.4955,1.4954 1.4954476,1.4954476 0 0 1 -1.4954,-1.4954 1.4954476,1.4954476 0 0 1 1.4954,-1.4954 1.4954476,1.4954476 0 0 1 1.4955,1.4954 z"
         id="path0293"
         transform="translate(133.93587,-71.582916)"
         inkscape:connector-curvature="0" />
      <path
         style="opacity:1;fill:#cdd5ed;fill-opacity:1;fill-rule:nonzero;stroke:none;stroke-width:0.03176979;stroke-linecap:round;stroke-linejoin:round;stroke-miterlimit:4;stroke-dasharray:none;stroke-dashoffset:0;stroke-opacity:1"
         d="m -3200.3595,1369.3136 a 1.4954476,1.4954476 0 0 1 -1.4955,1.4954 1.4954476,1.4954476 0 0 1 -1.4954,-1.4954 1.4954476,1.4954476 0 0 1 1.4954,-1.4954 1.4954476,1.4954476 0 0 1 1.4955,1.4954 z"
         id="path2888"
         transform="translate(124.28455,-74.262143)"
         inkscape:connector-curvature="0" />
      <path
         style="opacity:1;fill:#cdd5ed;fill-opacity:1;fill-rule:nonzero;stroke:none;stroke-width:0.03176979;stroke-linecap:round;stroke-linejoin:round;stroke-miterlimit:4;stroke-dasharray:none;stroke-dashoffset:0;stroke-opacity:1"
         d="m -3200.3595,1369.3136 a 1.4954476,1.4954476 0 0 1 -1.4955,1.4954 1.4954476,1.4954476 0 0 1 -1.4954,-1.4954 1.4954476,1.4954476 0 0 1 1.4954,-1.4954 1.4954476,1.4954476 0 0 1 1.4955,1.4954 z"
         id="path4638"
         transform="translate(114.39933,-75.881987)"
         inkscape:connector-curvature="0" />
      <path
         style="opacity:1;fill:#cdd5ed;fill-opacity:1;fill-rule:nonzero;stroke:none;stroke-width:0.03176979;stroke-linecap:round;stroke-linejoin:round;stroke-miterlimit:4;stroke-dasharray:none;stroke-dashoffset:0;stroke-opacity:1"
         d="m -3200.3595,1369.3136 a 1.4954476,1.4954476 0 0 1 -1.4955,1.4954 1.4954476,1.4954476 0 0 1 -1.4954,-1.4954 1.4954476,1.4954476 0 0 1 1.4954,-1.4954 1.4954476,1.4954476 0 0 1 1.4955,1.4954 z"
         id="path8864"
         transform="translate(104.39595,-76.4288)"
         inkscape:connector-curvature="0" />
      <path
         style="opacity:1;fill:#cdd5ed;fill-opacity:1;fill-rule:nonzero;stroke:none;stroke-width:0.03176979;stroke-linecap:round;stroke-linejoin:round;stroke-miterlimit:4;stroke-dasharray:none;stroke-dashoffset:0;stroke-opacity:1"
         d="m -3200.3595,1369.3136 a 1.4954476,1.4954476 0 0 1 -1.4955,1.4954 1.4954476,1.4954476 0 0 1 -1.4954,-1.4954 1.4954476,1.4954476 0 0 1 1.4954,-1.4954 1.4954476,1.4954476 0 0 1 1.4955,1.4954 z"
         id="path6985"
         transform="translate(104.39595,-76.1652)"
         inkscape:connector-curvature="0" />
      <path
         style="opacity:1;fill:#cdd5ed;fill-opacity:1;fill-rule:nonzero;stroke:none;stroke-width:0.03176979;stroke-linecap:round;stroke-linejoin:round;stroke-miterlimit:4;stroke-dasharray:none;stroke-dashoffset:0;stroke-opacity:1"
         d="m -3200.3595,1369.3136 a 1.4954476,1.4954476 0 0 1 -1.4955,1.4954 1.4954476,1.4954476 0 0 1 -1.4954,-1.4954 1.4954476,1.4954476 0 0 1 1.4954,-1.4954 1.4954476,1.4954476 0 0 1 1.4955,1.4954 z"
         id="path0398"
         transform="translate(74.940045,103.51108)"
         inkscape:connector-curvature="0" />
    </g>
    <g
       id="g10561"
       transform="translate(3871.2364,-1096.2546)">
      <circle
         style="opacity:1;fill:#e2e8f3;fill-opacity:1;fill-rule:nonzero;stroke:none;stroke-width:0.264;stroke-linecap:round;stroke-linejoin:round;stroke-miterlimit:4;stroke-dasharray:none;stroke-dashoffset:0;stroke-opacity:1"
         id="circle10557"
         cx="-3689.655"
         cy="1333.4829"
         r="3.5546846" />
      <circle
         cy="1333.4829"
         cx="-3689.655"
         id="circle10559"
         style="opacity:1;fill:#2046b3;fill-opacity:1;fill-rule:nonzero;stroke:none;stroke-width:0.264;stroke-linecap:round;stroke-linejoin:round;stroke-miterlimit:4;stroke-dasharray:none;stroke-dashoffset:0;stroke-opacity:1"
         r="1.9632217" />
    </g>
    <g
       transform="translate(3824.0688,-1214.4636)"
       id="g10567">
      <circle
         r="3.5546846"
         cy="1333.4829"
         cx="-3689.655"
         id="circle10563"
         style="opacity:1;fill:#e2e8f3;fill-opacity:1;fill-rule:nonzero;stroke:none;stroke-width:0.264;stroke-linecap:round;stroke-linejoin:round;stroke-miterlimit:4;stroke-dasharray:none;stroke-dashoffset:0;stroke-opacity:1" />
      <circle
         r="1.9632217"
         style="opacity:1;fill:#2046b3;fill-opacity:1;fill-rule:nonzero;stroke:none;stroke-width:0.264;stroke-linecap:round;stroke-linejoin:round;stroke-miterlimit:4;stroke-dasharray:none;stroke-dashoffset:0;stroke-opacity:1"
         id="circle10565"
         cx="-3689.655"
         cy="1333.4829" />
    </g>
  </g>
</svg>
