<?xml version="1.0" encoding="UTF-8" standalone="no"?>
<!-- Created with Inkscape (http://www.inkscape.org/) -->

<svg
   xmlns:dc="http://purl.org/dc/elements/1.1/"
   xmlns:cc="http://creativecommons.org/ns#"
   xmlns:rdf="http://www.w3.org/1999/02/22-rdf-syntax-ns#"
   xmlns:svg="http://www.w3.org/2000/svg"
   xmlns="http://www.w3.org/2000/svg"
   xmlns:sodipodi="http://sodipodi.sourceforge.net/DTD/sodipodi-0.dtd"
   xmlns:inkscape="http://www.inkscape.org/namespaces/inkscape"
   width="450"
   height="173.506"
   viewBox="0 0 119.0625 45.906798"
   version="1.1"
   id="svg2134"
   inkscape:version="0.92.2 (5c3e80d, 2017-08-06)"
   sodipodi:docname="stonehenge.svg">
  <defs
     id="defs2128" />
  <sodipodi:namedview
     id="base"
     pagecolor="#ffffff"
     bordercolor="#666666"
     borderopacity="1.0"
     inkscape:pageopacity="0.0"
     inkscape:pageshadow="2"
     inkscape:zoom="0.49497475"
     inkscape:cx="-51.673039"
     inkscape:cy="328.57412"
     inkscape:document-units="mm"
     inkscape:current-layer="layer1"
     showgrid="false"
     inkscape:window-width="1680"
     inkscape:window-height="987"
     inkscape:window-x="-8"
     inkscape:window-y="-8"
     inkscape:window-maximized="1"
     units="px" />
  <metadata
     id="metadata2131">
    <rdf:RDF>
      <cc:Work
         rdf:about="">
        <dc:format>image/svg+xml</dc:format>
        <dc:type
           rdf:resource="http://purl.org/dc/dcmitype/StillImage" />
        <dc:title></dc:title>
      </cc:Work>
    </rdf:RDF>
  </metadata>
  <g
     inkscape:label="Layer 1"
     inkscape:groupmode="layer"
     id="layer1"
     transform="translate(0,-251.09319)">
    <g
       id="g2929"
       transform="matrix(0.63407532,0,0,0.63407532,245.51157,292.79713)"
       style="opacity:0.98000004">
      <g
         style="stroke-width:1.13999999;stroke-miterlimit:4;stroke-dasharray:none"
         id="g3904"
         transform="translate(3322.879,-1186.2208)">
        <path
           inkscape:connector-curvature="0"
           id="path3068"
           d="m -3528.196,1171.2514 h 5.3159"
           style="fill:none;stroke:#cccccc;stroke-width:1.13999999;stroke-linecap:round;stroke-linejoin:round;stroke-miterlimit:4;stroke-dasharray:none;stroke-opacity:1" />
        <g
           style="stroke-width:1.13999999;stroke-miterlimit:4;stroke-dasharray:none"
           id="g3887">
          <g
             style="stroke-width:1.13999999;stroke-miterlimit:4;stroke-dasharray:none"
             id="g3872">
            <path
               style="fill:none;stroke:#cccccc;stroke-width:1.13999999;stroke-linecap:round;stroke-linejoin:round;stroke-miterlimit:4;stroke-dasharray:none;stroke-opacity:1"
               d="m -3705.5559,1171.2514 h 175.2037"
               id="path2678-5"
               inkscape:connector-curvature="0" />
            <g
               id="g3859"
               style="stroke-width:1.13999999;stroke-miterlimit:4;stroke-dasharray:none">
              <path
                 inkscape:connector-curvature="0"
                 id="path2623-8"
                 d="m -3696.5867,1164.5504 c 0,0 1.0886,-13.0173 1.565,-16.4932 0.4763,-3.4758 -0.8847,-8.86 4.0829,-8.7236 4.9671,0.1362 9.8665,-0.7498 9.7985,7.2242 -0.068,7.9741 0.6123,34.0771 -0.6808,35.2356 -1.2927,1.1587 -12.4523,0.2727 -13.609,-0.2725 -1.1566,-0.5453 -1.565,-4.9072 -1.1566,-16.9705 z"
                 style="fill:#ffffff;stroke:#cccccc;stroke-width:1.13999999;stroke-linecap:butt;stroke-linejoin:miter;stroke-miterlimit:4;stroke-dasharray:none;stroke-opacity:1" />
              <path
                 sodipodi:nodetypes="ccscc"
                 inkscape:connector-curvature="0"
                 id="path2684-3"
                 d="m -3662.8365,1137.357 c 8.3017,1.6358 8.0973,-5.5886 7.485,13.2901 -0.6125,18.8786 3.5384,37.8936 -4.0146,37.0076 -7.553,-0.886 -15.6504,3.2033 -11.9759,-16.6976 1.8582,-10.8484 -0.282,-36.1256 8.5055,-33.6001 z"
                 style="fill:#ffffff;stroke:#cccccc;stroke-width:1.13999999;stroke-linecap:butt;stroke-linejoin:miter;stroke-miterlimit:4;stroke-dasharray:none;stroke-opacity:1" />
              <path
                 sodipodi:nodetypes="cscccsc"
                 inkscape:connector-curvature="0"
                 id="path2713-9"
                 d="m -3661.3963,1136.0564 c 0,0 20.3252,-0.87 22.2049,-1.0362 0.8179,-0.072 3.0554,0.217 3.2478,-4.265 0.1924,-4.4818 0.2405,-6.6023 -0.048,-7.2288 -0.2887,-0.6264 -0.5293,-3.759 -22.133,-0.048 -2.469,0.4157 -5.0581,0.097 -5.3964,1.6822 -1.5842,7.4241 -2.2696,10.9368 2.1243,10.8955 z"
                 style="fill:none;stroke:#cccccc;stroke-width:1.13999999;stroke-linecap:butt;stroke-linejoin:miter;stroke-miterlimit:4;stroke-dasharray:none;stroke-opacity:1" />
              <path
                 sodipodi:nodetypes="ccccccc"
                 inkscape:connector-curvature="0"
                 id="path2908"
                 d="m -3641.2868,1187.1306 c -1.6197,-1.1836 -1.9569,-3.5606 -1.7404,-7.4938 0.6735,-12.2407 -0.1926,-37.4934 1.5394,-40.4814 1.732,-2.9878 5.9664,-4.0481 12.9913,-2.6987 7.0244,1.3494 3.5604,2.3131 3.6565,20.048 0.071,12.9588 0.3839,28.9847 -1.0243,30.3238 -1.0389,0.9758 -12.6684,2.1215 -15.4225,0.3021 z"
                 style="fill:#ffffff;stroke:#cccccc;stroke-width:1.13999999;stroke-linecap:butt;stroke-linejoin:miter;stroke-miterlimit:4;stroke-dasharray:none;stroke-opacity:1" />
              <path
                 sodipodi:nodetypes="ccscccc"
                 inkscape:connector-curvature="0"
                 id="path2926"
                 d="m -3631.5621,1121.1592 c -2.3132,0.1542 -2.4217,1.6047 -2.3607,4.0805 0.1924,7.8071 -5.1003,10.5058 10.7777,9.7348 15.8779,-0.7711 18.688,0.771 20.42,-0.1928 1.732,-0.9638 2.117,-7.7108 1.732,-11.9517 -0.1088,-1.1979 -2.234,-1.2288 -3.9879,-1.2879 -10.3071,-0.069 -17.8467,-0.8284 -26.5811,-0.3829 z"
                 style="fill:none;stroke:#cccccc;stroke-width:1.13999999;stroke-linecap:butt;stroke-linejoin:miter;stroke-miterlimit:4;stroke-dasharray:none;stroke-opacity:1" />
              <path
                 sodipodi:nodetypes="ccccccc"
                 inkscape:connector-curvature="0"
                 id="path2932"
                 d="m -3591.5377,1123.3177 c -2.1818,-0.6149 -4.7192,-0.6454 -6.2034,1.6519 -2.9937,4.6345 -3.1981,10.8365 4.2189,11.1773 5.3749,0.2469 14.7705,1.1024 19.7951,0.6208 3.5768,-0.4504 3.7165,-1.1807 4.1579,-4.3101 0.3462,-2.6003 -0.4727,-5.6824 -6.942,-7.0109 -10.2363,-0.9368 -9.6852,-0.5622 -15.0265,-2.129 z"
                 style="fill:none;stroke:#cccccc;stroke-width:1.13999999;stroke-linecap:butt;stroke-linejoin:miter;stroke-miterlimit:4;stroke-dasharray:none;stroke-opacity:1" />
              <path
                 sodipodi:nodetypes="ccccssccc"
                 inkscape:connector-curvature="0"
                 id="path2936"
                 d="m -3605.4133,1136.3934 c -2.643,-0.1615 -5.3144,0.1861 -4.5646,6.8564 0.9487,8.4396 -2.4387,29.1285 -2.8627,37.8602 -0.3232,3.0576 0.6748,5.6631 3.343,6.4759 1.2504,0.3604 3.0603,0.448 6.0011,0.3559 6.5323,-0.2044 14.745,2.3105 12.1201,-11.2055 -2.5607,-13.186 -1.7011,-29.9542 -2.0497,-32.8219 -0.2572,-1.8572 0.2647,-5.4325 -3.627,-6.5879 -2.8732,-0.7129 -5.8571,-0.7586 -8.3602,-0.9331 z"
                 style="fill:#ffffff;stroke:#cccccc;stroke-width:1.13999999;stroke-linecap:butt;stroke-linejoin:miter;stroke-miterlimit:4;stroke-dasharray:none;stroke-opacity:1" />
              <path
                 sodipodi:nodetypes="cscsscc"
                 inkscape:connector-curvature="0"
                 id="path2946"
                 d="m -3581.1718,1142.4391 c -0.1923,-1.6362 0.1074,-4.9568 5.9536,-4.1795 7.689,1.0224 13.9493,-5.1114 12.7925,11.9951 -1.1566,17.1067 -1.293,19.015 -0.8847,22.6271 0.4084,3.6122 4.4229,14.7895 -8.2333,14.108 -12.6563,-0.6816 -11.2276,3.2714 -10.9552,-30.5331 0.077,-4.5222 1.512,-9.1437 1.3271,-14.0176 z"
                 style="fill:#ffffff;stroke:#cccccc;stroke-width:1.13999999;stroke-linecap:butt;stroke-linejoin:miter;stroke-miterlimit:4;stroke-dasharray:none;stroke-opacity:1" />
              <path
                 sodipodi:nodetypes="cccccscc"
                 inkscape:connector-curvature="0"
                 id="path2952"
                 d="m -3538.6072,1146.7814 c 0,0 0.8663,-7.9034 -5.87,-7.3251 -6.7359,0.5783 -8.7569,-4.6265 -9.1418,13.0118 0,0 -0.6414,7.8733 -1.1177,17.3468 0.1279,4.559 -1.0657,6.9536 2.7013,8.1066 1.5927,0.3615 5.9183,0.1993 10.2953,0.14 2.9794,-0.041 3.4334,-1.727 3.4628,-3.5777 0.5287,-9.0867 0.1764,-18.4301 -0.3299,-27.7024 z"
                 style="fill:#ffffff;stroke:#cccccc;stroke-width:1.13999999;stroke-linecap:butt;stroke-linejoin:miter;stroke-miterlimit:4;stroke-dasharray:none;stroke-opacity:1" />
            </g>
          </g>
          <path
             inkscape:connector-curvature="0"
             id="path3070"
             d="m -3709.4969,1171.2514 h 1.6662"
             style="fill:none;stroke:#cccccc;stroke-width:1.13999999;stroke-linecap:round;stroke-linejoin:round;stroke-miterlimit:4;stroke-dasharray:none;stroke-opacity:1" />
        </g>
      </g>
      <g
         style="stroke-width:0.56999999;stroke-miterlimit:4;stroke-dasharray:none"
         id="g3848"
         transform="translate(3322.879,-1186.2208)">
        <path
           style="fill:none;stroke:#cccccc;stroke-width:0.56999999;stroke-linecap:round;stroke-linejoin:round;stroke-miterlimit:4;stroke-dasharray:none;stroke-opacity:1"
           d="m -3683.9306,1145.1266 c 0,0 0.5444,2.3172 0.1364,5.3841 -0.4083,3.067 0.8163,9.6098 0.4764,11.1091 -0.3404,1.4994 0.204,7.9059 -0.068,11.1092"
           id="path2694-6"
           inkscape:connector-curvature="0" />
        <path
           style="fill:none;stroke:#cccccc;stroke-width:0.56999999;stroke-linecap:round;stroke-linejoin:round;stroke-miterlimit:4;stroke-dasharray:none;stroke-opacity:1"
           d="m -3683.541,1174.5484 c 0,0 -0.2407,4.0481 -0.1442,4.4818"
           id="path2696-7"
           inkscape:connector-curvature="0" />
        <path
           style="fill:none;stroke:#cccccc;stroke-width:0.56999999;stroke-linecap:round;stroke-linejoin:round;stroke-miterlimit:4;stroke-dasharray:none;stroke-opacity:1"
           d="m -3661.0596,1185.95 c 0,0 3.7051,1.494 3.8494,-8.8673"
           id="path2700-7"
           inkscape:connector-curvature="0" />
        <path
           style="fill:none;stroke:#cccccc;stroke-width:0.56999999;stroke-linecap:round;stroke-linejoin:round;stroke-miterlimit:4;stroke-dasharray:none;stroke-opacity:1"
           d="m -3677.9057,1187.2513 h 2.2969"
           id="path2702-7"
           inkscape:connector-curvature="0" />
        <path
           inkscape:connector-curvature="0"
           id="path2704-5"
           d="m -3679.1252,1187.2513 h 0.4298"
           style="fill:none;stroke:#cccccc;stroke-width:0.56999999;stroke-linecap:round;stroke-linejoin:round;stroke-miterlimit:4;stroke-dasharray:none;stroke-opacity:1" />
        <path
           style="fill:none;stroke:#cccccc;stroke-width:0.56999999;stroke-linecap:round;stroke-linejoin:round;stroke-miterlimit:4;stroke-dasharray:none;stroke-opacity:1"
           d="m -3657.7048,1163.4454 c 0,0 -0.3402,-9.7459 0.3402,-12.6083 0.6803,-2.8625 0.5445,-9.8825 0.2041,-10.7003"
           id="path2721-6"
           inkscape:connector-curvature="0"
           sodipodi:nodetypes="ccc" />
        <path
           style="fill:none;stroke:#cccccc;stroke-width:0.56999999;stroke-linecap:round;stroke-linejoin:round;stroke-miterlimit:4;stroke-dasharray:none;stroke-opacity:1"
           d="m -3646.6583,1133.7869 7.5794,-0.3447"
           id="path2733"
           inkscape:connector-curvature="0" />
        <path
           style="fill:none;stroke:#cccccc;stroke-width:0.56999999;stroke-linecap:round;stroke-linejoin:round;stroke-miterlimit:4;stroke-dasharray:none;stroke-opacity:1"
           d="m -3642.8023,1168.3327 c 0,0 4.934,2.3039 8.0613,7.364"
           id="path2912"
           inkscape:connector-curvature="0"
           sodipodi:nodetypes="cc" />
        <path
           style="fill:none;stroke:#cccccc;stroke-width:0.56999999;stroke-linecap:round;stroke-linejoin:round;stroke-miterlimit:4;stroke-dasharray:none;stroke-opacity:1"
           d="m -3624.0616,1141.0336 c 0,0 -4.4338,7.2316 -5.7813,7.9062"
           id="path2916"
           inkscape:connector-curvature="0"
           sodipodi:nodetypes="cc" />
        <path
           style="fill:none;stroke:#cccccc;stroke-width:0.56999999;stroke-linecap:round;stroke-linejoin:round;stroke-miterlimit:4;stroke-dasharray:none;stroke-opacity:1"
           d="m -3644.6525,1192.5641 h 2.117"
           id="path2918"
           inkscape:connector-curvature="0" />
        <path
           style="fill:none;stroke:#cccccc;stroke-width:0.56999999;stroke-linecap:round;stroke-linejoin:round;stroke-miterlimit:4;stroke-dasharray:none;stroke-opacity:1"
           d="m -3641.6934,1192.5641 h 4.2825"
           id="path2920"
           inkscape:connector-curvature="0" />
        <path
           style="fill:none;stroke:#cccccc;stroke-width:0.56999999;stroke-linecap:round;stroke-linejoin:round;stroke-miterlimit:4;stroke-dasharray:none;stroke-opacity:1"
           d="m -3636.5689,1192.5641 h 1.2509"
           id="path2922"
           inkscape:connector-curvature="0" />
        <path
           style="fill:none;stroke:#cccccc;stroke-width:0.56999999;stroke-linecap:round;stroke-linejoin:round;stroke-miterlimit:4;stroke-dasharray:none;stroke-opacity:1"
           d="m -3626.6053,1164.1307 c 0,0 -0.8661,4.4336 -0.4811,7.6143 0.3847,3.1807 -0.6738,8.7709 -0.385,10.6987"
           id="path2928"
           inkscape:connector-curvature="0" />
        <path
           style="fill:none;stroke:#cccccc;stroke-width:0.56999999;stroke-linecap:butt;stroke-linejoin:miter;stroke-miterlimit:4;stroke-dasharray:none;stroke-opacity:1"
           d="m -3601.0157,1128.509 c 0,0 0.4813,1.0051 -9.9116,3.4147 -10.3927,2.4097 -14.6271,-0.3854 -16.6481,1.2531"
           id="path2930"
           inkscape:connector-curvature="0"
           sodipodi:nodetypes="ccc" />
        <path
           style="fill:none;stroke:#cccccc;stroke-width:0.56999999;stroke-linecap:round;stroke-linejoin:round;stroke-miterlimit:4;stroke-dasharray:none;stroke-opacity:1"
           d="m -3600.0547,1170.0875 c 0,0 -3.1981,1.772 -4.0824,3.4077"
           id="path2938"
           inkscape:connector-curvature="0" />
        <path
           style="fill:none;stroke:#cccccc;stroke-width:0.56999999;stroke-linecap:round;stroke-linejoin:round;stroke-miterlimit:4;stroke-dasharray:none;stroke-opacity:1"
           d="m -3604.9538,1175.3354 c 0,0 -0.068,3.2714 -2.2455,9.6097"
           id="path2940"
           inkscape:connector-curvature="0" />
        <path
           style="fill:none;stroke:#cccccc;stroke-width:0.56999999;stroke-linecap:round;stroke-linejoin:round;stroke-miterlimit:4;stroke-dasharray:none;stroke-opacity:1"
           d="m -3602.6514,1138.6921 c 0,0 -3.272,-1.0602 -4.4269,0.5783 -1.1545,1.6386 0.289,9.0602 -0.6735,11.5661"
           id="path2942"
           inkscape:connector-curvature="0" />
        <path
           style="fill:none;stroke:#cccccc;stroke-width:0.56999999;stroke-linecap:round;stroke-linejoin:round;stroke-miterlimit:4;stroke-dasharray:none;stroke-opacity:1"
           d="m -3578.7832,1135.3599 c 0.2405,-0.097 7.6503,1.6867 7.4577,-3.7108"
           id="path2944"
           inkscape:connector-curvature="0" />
        <path
           style="fill:none;stroke:#cccccc;stroke-width:0.56999999;stroke-linecap:round;stroke-linejoin:round;stroke-miterlimit:4;stroke-dasharray:none;stroke-opacity:1"
           d="m -3579.9814,1157.8879 c 0,0 1.0888,-6.202 1.1568,-9.2007 0.068,-2.9989 -0.068,-6.6111 0.6123,-7.02"
           id="path2948"
           inkscape:connector-curvature="0" />
        <path
           style="fill:none;stroke:#cccccc;stroke-width:0.56999999;stroke-linecap:round;stroke-linejoin:round;stroke-miterlimit:4;stroke-dasharray:none;stroke-opacity:1"
           d="m -3541.542,1182.8293 h 1.3471"
           id="path2968"
           inkscape:connector-curvature="0" />
        <path
           style="fill:none;stroke:#cccccc;stroke-width:0.56999999;stroke-linecap:round;stroke-linejoin:round;stroke-miterlimit:4;stroke-dasharray:none;stroke-opacity:1"
           d="m -3588.358,1189.9617 h 3.1274"
           id="path2970"
           inkscape:connector-curvature="0" />
        <path
           style="fill:none;stroke:#cccccc;stroke-width:0.56999999;stroke-linecap:round;stroke-linejoin:round;stroke-miterlimit:4;stroke-dasharray:none;stroke-opacity:1"
           d="m -3584.22,1189.9617 h 1.251"
           id="path2972"
           inkscape:connector-curvature="0" />
        <path
           style="fill:none;stroke:#cccccc;stroke-width:0.56999999;stroke-linecap:round;stroke-linejoin:round;stroke-miterlimit:4;stroke-dasharray:none;stroke-opacity:1"
           d="m -3544.8861,1176.4438 c 0,0 2.3298,0.1476 3.4253,-0.1964 1.1149,-0.3502 1.3344,-1.5822 1.5653,-4.9336"
           id="path2974"
           inkscape:connector-curvature="0"
           sodipodi:nodetypes="csc" />
        <path
           inkscape:connector-curvature="0"
           id="path3072"
           d="m -3617.8895,1177.0124 h 3.1274"
           style="fill:none;stroke:#cccccc;stroke-width:0.56999999;stroke-linecap:round;stroke-linejoin:round;stroke-miterlimit:4;stroke-dasharray:none;stroke-opacity:1" />
        <path
           inkscape:connector-curvature="0"
           id="path3074"
           d="m -3613.7515,1177.0124 h 1.251"
           style="fill:none;stroke:#cccccc;stroke-width:0.56999999;stroke-linecap:round;stroke-linejoin:round;stroke-miterlimit:4;stroke-dasharray:none;stroke-opacity:1" />
        <path
           style="fill:none;stroke:#cccccc;stroke-width:0.56999999;stroke-linecap:round;stroke-linejoin:round;stroke-miterlimit:4;stroke-dasharray:none;stroke-opacity:1"
           d="m -3557.7718,1181.2379 h 3.1273"
           id="path3076"
           inkscape:connector-curvature="0" />
        <path
           inkscape:connector-curvature="0"
           id="path3078"
           d="m -3560.945,1182.4894 h 0.7032"
           style="fill:none;stroke:#cccccc;stroke-width:0.56999999;stroke-linecap:round;stroke-linejoin:round;stroke-miterlimit:4;stroke-dasharray:none;stroke-opacity:1" />
        <path
           style="fill:none;stroke:#cccccc;stroke-width:0.56999999;stroke-linecap:round;stroke-linejoin:round;stroke-miterlimit:4;stroke-dasharray:none;stroke-opacity:1"
           d="m -3560.0688,1181.2379 h 1.347"
           id="path3080"
           inkscape:connector-curvature="0" />
        <path
           style="fill:none;stroke:#cccccc;stroke-width:0.56999999;stroke-linecap:round;stroke-linejoin:round;stroke-miterlimit:4;stroke-dasharray:none;stroke-opacity:1"
           d="m -3539.0526,1182.8293 h 0.7032"
           id="path3082"
           inkscape:connector-curvature="0" />
        <path
           inkscape:connector-curvature="0"
           id="path3084"
           d="m -3654.4177,1175.1199 h 2.2968"
           style="fill:none;stroke:#cccccc;stroke-width:0.56999999;stroke-linecap:round;stroke-linejoin:round;stroke-miterlimit:4;stroke-dasharray:none;stroke-opacity:1" />
        <path
           style="fill:none;stroke:#cccccc;stroke-width:0.56999999;stroke-linecap:round;stroke-linejoin:round;stroke-miterlimit:4;stroke-dasharray:none;stroke-opacity:1"
           d="m -3650.9703,1175.1199 h 0.4298"
           id="path3086"
           inkscape:connector-curvature="0" />
        <path
           style="fill:none;stroke:#cccccc;stroke-width:0.56999999;stroke-linecap:round;stroke-linejoin:round;stroke-miterlimit:4;stroke-dasharray:none;stroke-opacity:1"
           d="m -3649.3899,1175.1199 h 2.2969"
           id="path3088"
           inkscape:connector-curvature="0" />
      </g>
      <g
         id="g2704"
         style="stroke-width:0.56999999;stroke-miterlimit:4;stroke-dasharray:none"
         transform="translate(3322.879,-1186.2208)">
        <path
           inkscape:connector-curvature="0"
           id="path2640"
           d="m -3683.9306,1145.1266 c 0,0 0.5444,2.3172 0.1364,5.3841 -0.4083,3.067 0.8163,9.6098 0.4764,11.1091 -0.3404,1.4994 0.204,7.9059 -0.068,11.1092"
           style="fill:none;stroke:#cccccc;stroke-width:0.56999999;stroke-linecap:round;stroke-linejoin:round;stroke-miterlimit:4;stroke-dasharray:none;stroke-opacity:1" />
        <path
           inkscape:connector-curvature="0"
           id="path2642"
           d="m -3683.541,1174.5484 c 0,0 -0.2407,4.0481 -0.1442,4.4818"
           style="fill:none;stroke:#cccccc;stroke-width:0.56999999;stroke-linecap:round;stroke-linejoin:round;stroke-miterlimit:4;stroke-dasharray:none;stroke-opacity:1" />
        <path
           inkscape:connector-curvature="0"
           id="path2644"
           d="m -3661.0596,1185.95 c 0,0 3.7051,1.494 3.8494,-8.8673"
           style="fill:none;stroke:#cccccc;stroke-width:0.56999999;stroke-linecap:round;stroke-linejoin:round;stroke-miterlimit:4;stroke-dasharray:none;stroke-opacity:1" />
        <path
           inkscape:connector-curvature="0"
           id="path2646"
           d="m -3677.9057,1187.2513 h 2.2969"
           style="fill:none;stroke:#cccccc;stroke-width:0.56999999;stroke-linecap:round;stroke-linejoin:round;stroke-miterlimit:4;stroke-dasharray:none;stroke-opacity:1" />
        <path
           style="fill:none;stroke:#cccccc;stroke-width:0.56999999;stroke-linecap:round;stroke-linejoin:round;stroke-miterlimit:4;stroke-dasharray:none;stroke-opacity:1"
           d="m -3679.1252,1187.2513 h 0.4298"
           id="path2648"
           inkscape:connector-curvature="0" />
        <path
           sodipodi:nodetypes="ccc"
           inkscape:connector-curvature="0"
           id="path2650"
           d="m -3657.7048,1163.4454 c 0,0 -0.3402,-9.7459 0.3402,-12.6083 0.6803,-2.8625 0.5445,-9.8825 0.2041,-10.7003"
           style="fill:none;stroke:#cccccc;stroke-width:0.56999999;stroke-linecap:round;stroke-linejoin:round;stroke-miterlimit:4;stroke-dasharray:none;stroke-opacity:1" />
        <path
           inkscape:connector-curvature="0"
           id="path2652"
           d="m -3646.6583,1133.7869 7.5794,-0.3447"
           style="fill:none;stroke:#cccccc;stroke-width:0.56999999;stroke-linecap:round;stroke-linejoin:round;stroke-miterlimit:4;stroke-dasharray:none;stroke-opacity:1" />
        <path
           sodipodi:nodetypes="cc"
           inkscape:connector-curvature="0"
           id="path2654"
           d="m -3642.8023,1168.3327 c 0,0 4.934,2.3039 8.0613,7.364"
           style="fill:none;stroke:#cccccc;stroke-width:0.56999999;stroke-linecap:round;stroke-linejoin:round;stroke-miterlimit:4;stroke-dasharray:none;stroke-opacity:1" />
        <path
           sodipodi:nodetypes="cc"
           inkscape:connector-curvature="0"
           id="path2656"
           d="m -3624.0616,1141.0336 c 0,0 -4.4338,7.2316 -5.7813,7.9062"
           style="fill:none;stroke:#cccccc;stroke-width:0.56999999;stroke-linecap:round;stroke-linejoin:round;stroke-miterlimit:4;stroke-dasharray:none;stroke-opacity:1" />
        <path
           inkscape:connector-curvature="0"
           id="path2658"
           d="m -3644.6525,1192.5641 h 2.117"
           style="fill:none;stroke:#cccccc;stroke-width:0.56999999;stroke-linecap:round;stroke-linejoin:round;stroke-miterlimit:4;stroke-dasharray:none;stroke-opacity:1" />
        <path
           inkscape:connector-curvature="0"
           id="path2660"
           d="m -3641.6934,1192.5641 h 4.2825"
           style="fill:none;stroke:#cccccc;stroke-width:0.56999999;stroke-linecap:round;stroke-linejoin:round;stroke-miterlimit:4;stroke-dasharray:none;stroke-opacity:1" />
        <path
           inkscape:connector-curvature="0"
           id="path2662"
           d="m -3636.5689,1192.5641 h 1.2509"
           style="fill:none;stroke:#cccccc;stroke-width:0.56999999;stroke-linecap:round;stroke-linejoin:round;stroke-miterlimit:4;stroke-dasharray:none;stroke-opacity:1" />
        <path
           inkscape:connector-curvature="0"
           id="path2664"
           d="m -3626.6053,1164.1307 c 0,0 -0.8661,4.4336 -0.4811,7.6143 0.3847,3.1807 -0.6738,8.7709 -0.385,10.6987"
           style="fill:none;stroke:#cccccc;stroke-width:0.56999999;stroke-linecap:round;stroke-linejoin:round;stroke-miterlimit:4;stroke-dasharray:none;stroke-opacity:1" />
        <path
           sodipodi:nodetypes="ccc"
           inkscape:connector-curvature="0"
           id="path2666"
           d="m -3601.0157,1128.509 c 0,0 0.4813,1.0051 -9.9116,3.4147 -10.3927,2.4097 -14.6271,-0.3854 -16.6481,1.2531"
           style="fill:none;stroke:#cccccc;stroke-width:0.56999999;stroke-linecap:butt;stroke-linejoin:miter;stroke-miterlimit:4;stroke-dasharray:none;stroke-opacity:1" />
        <path
           inkscape:connector-curvature="0"
           id="path2668"
           d="m -3600.0547,1170.0875 c 0,0 -3.1981,1.772 -4.0824,3.4077"
           style="fill:none;stroke:#cccccc;stroke-width:0.56999999;stroke-linecap:round;stroke-linejoin:round;stroke-miterlimit:4;stroke-dasharray:none;stroke-opacity:1" />
        <path
           inkscape:connector-curvature="0"
           id="path2670"
           d="m -3604.9538,1175.3354 c 0,0 -0.068,3.2714 -2.2455,9.6097"
           style="fill:none;stroke:#cccccc;stroke-width:0.56999999;stroke-linecap:round;stroke-linejoin:round;stroke-miterlimit:4;stroke-dasharray:none;stroke-opacity:1" />
        <path
           inkscape:connector-curvature="0"
           id="path2672"
           d="m -3602.6514,1138.6921 c 0,0 -3.272,-1.0602 -4.4269,0.5783 -1.1545,1.6386 0.289,9.0602 -0.6735,11.5661"
           style="fill:none;stroke:#cccccc;stroke-width:0.56999999;stroke-linecap:round;stroke-linejoin:round;stroke-miterlimit:4;stroke-dasharray:none;stroke-opacity:1" />
        <path
           inkscape:connector-curvature="0"
           id="path2674"
           d="m -3578.7832,1135.3599 c 0.2405,-0.097 7.6503,1.6867 7.4577,-3.7108"
           style="fill:none;stroke:#cccccc;stroke-width:0.56999999;stroke-linecap:round;stroke-linejoin:round;stroke-miterlimit:4;stroke-dasharray:none;stroke-opacity:1" />
        <path
           inkscape:connector-curvature="0"
           id="path2676"
           d="m -3579.9814,1157.8879 c 0,0 1.0888,-6.202 1.1568,-9.2007 0.068,-2.9989 -0.068,-6.6111 0.6123,-7.02"
           style="fill:none;stroke:#cccccc;stroke-width:0.56999999;stroke-linecap:round;stroke-linejoin:round;stroke-miterlimit:4;stroke-dasharray:none;stroke-opacity:1" />
        <path
           inkscape:connector-curvature="0"
           id="path2678"
           d="m -3541.542,1182.8293 h 1.3471"
           style="fill:none;stroke:#cccccc;stroke-width:0.56999999;stroke-linecap:round;stroke-linejoin:round;stroke-miterlimit:4;stroke-dasharray:none;stroke-opacity:1" />
        <path
           inkscape:connector-curvature="0"
           id="path2680"
           d="m -3588.358,1189.9617 h 3.1274"
           style="fill:none;stroke:#cccccc;stroke-width:0.56999999;stroke-linecap:round;stroke-linejoin:round;stroke-miterlimit:4;stroke-dasharray:none;stroke-opacity:1" />
        <path
           inkscape:connector-curvature="0"
           id="path2682"
           d="m -3584.22,1189.9617 h 1.251"
           style="fill:none;stroke:#cccccc;stroke-width:0.56999999;stroke-linecap:round;stroke-linejoin:round;stroke-miterlimit:4;stroke-dasharray:none;stroke-opacity:1" />
        <path
           sodipodi:nodetypes="csc"
           inkscape:connector-curvature="0"
           id="path2684"
           d="m -3544.8861,1176.4438 c 0,0 2.3298,0.1476 3.4253,-0.1964 1.1149,-0.3502 1.3344,-1.5822 1.5653,-4.9336"
           style="fill:none;stroke:#cccccc;stroke-width:0.56999999;stroke-linecap:round;stroke-linejoin:round;stroke-miterlimit:4;stroke-dasharray:none;stroke-opacity:1" />
        <path
           style="fill:none;stroke:#cccccc;stroke-width:0.56999999;stroke-linecap:round;stroke-linejoin:round;stroke-miterlimit:4;stroke-dasharray:none;stroke-opacity:1"
           d="m -3617.8895,1177.0124 h 3.1274"
           id="path2686"
           inkscape:connector-curvature="0" />
        <path
           style="fill:none;stroke:#cccccc;stroke-width:0.56999999;stroke-linecap:round;stroke-linejoin:round;stroke-miterlimit:4;stroke-dasharray:none;stroke-opacity:1"
           d="m -3613.7515,1177.0124 h 1.251"
           id="path2688"
           inkscape:connector-curvature="0" />
        <path
           inkscape:connector-curvature="0"
           id="path2690"
           d="m -3557.7718,1181.2379 h 3.1273"
           style="fill:none;stroke:#cccccc;stroke-width:0.56999999;stroke-linecap:round;stroke-linejoin:round;stroke-miterlimit:4;stroke-dasharray:none;stroke-opacity:1" />
        <path
           style="fill:none;stroke:#cccccc;stroke-width:0.56999999;stroke-linecap:round;stroke-linejoin:round;stroke-miterlimit:4;stroke-dasharray:none;stroke-opacity:1"
           d="m -3560.945,1182.4894 h 0.7032"
           id="path2692"
           inkscape:connector-curvature="0" />
        <path
           inkscape:connector-curvature="0"
           id="path2694"
           d="m -3560.0688,1181.2379 h 1.347"
           style="fill:none;stroke:#cccccc;stroke-width:0.56999999;stroke-linecap:round;stroke-linejoin:round;stroke-miterlimit:4;stroke-dasharray:none;stroke-opacity:1" />
        <path
           inkscape:connector-curvature="0"
           id="path2696"
           d="m -3539.0526,1182.8293 h 0.7032"
           style="fill:none;stroke:#cccccc;stroke-width:0.56999999;stroke-linecap:round;stroke-linejoin:round;stroke-miterlimit:4;stroke-dasharray:none;stroke-opacity:1" />
        <path
           style="fill:none;stroke:#cccccc;stroke-width:0.56999999;stroke-linecap:round;stroke-linejoin:round;stroke-miterlimit:4;stroke-dasharray:none;stroke-opacity:1"
           d="m -3654.4177,1175.1199 h 2.2968"
           id="path2698"
           inkscape:connector-curvature="0" />
        <path
           inkscape:connector-curvature="0"
           id="path2700"
           d="m -3650.9703,1175.1199 h 0.4298"
           style="fill:none;stroke:#cccccc;stroke-width:0.56999999;stroke-linecap:round;stroke-linejoin:round;stroke-miterlimit:4;stroke-dasharray:none;stroke-opacity:1" />
        <path
           inkscape:connector-curvature="0"
           id="path2702"
           d="m -3649.3899,1175.1199 h 2.2969"
           style="fill:none;stroke:#cccccc;stroke-width:0.56999999;stroke-linecap:round;stroke-linejoin:round;stroke-miterlimit:4;stroke-dasharray:none;stroke-opacity:1" />
      </g>
    </g>
  </g>
</svg>
